<?xml version="1.0" encoding="UTF-8"?>
<svg width="32px" height="48px" viewBox="0 0 32 48" version="1.1" xmlns="http://www.w3.org/2000/svg" xmlns:xlink="http://www.w3.org/1999/xlink">
    <!-- Generator: Sketch 51.2 (57519) - http://www.bohemiancoding.com/sketch -->
    <title>sand-clock</title>
    <desc>Created with Sketch.</desc>
    <defs></defs>
    <g id="Page-1" stroke="none" stroke-width="1" fill="none" fill-rule="evenodd">
        <g id="Desktop" transform="translate(-142.000000, -689.000000)" fill-rule="nonzero">
            <g id="Group-4" transform="translate(122.000000, 653.000000)">
                <g id="sand-clock" transform="translate(20.000000, 36.000000)">
                    <g id="Group" transform="translate(1.000000, 1.000000)" fill="#8AF4E9">
                        <rect id="Rectangle-path" x="0.0431481481" y="0.0638064516" width="29.8912963" height="4.32084677"></rect>
                        <rect id="Rectangle-path" x="0.0431481481" y="41.6164597" width="29.8912963" height="4.32084677"></rect>
                    </g>
                    <g id="Group" transform="translate(1.000000, 1.000000)" fill="#5DE0BF">
                        <rect id="Rectangle-path" x="0.0423636364" y="0.0638064516" width="5.94036364" height="4.32084677"></rect>
                        <rect id="Rectangle-path" x="0.0423636364" y="41.6164597" width="5.94036364" height="4.32084677"></rect>
                    </g>
                    <path d="M4.00084003,42.9999053 L4.00084003,36.7573937 C3.92960576,30.4848763 8.39714342,25.2729707 14.2322871,24.3857673 C8.44310101,23.5053792 4.00010471,18.3682511 4.00010471,12.1618978 L4,5 L27.99916,5 L27.99916,12.0140463 C28.0703942,18.2865637 23.6028566,23.4984693 17.7677129,24.385862 C23.556899,25.2662502 27.9998953,30.4033782 27.9998953,36.6097316 L28,43 L4.00084003,43 L4.00084003,42.9999053 Z" id="Shape" fill="#FFFFFF"></path>
                    <path d="M18,24.3858639 C12.0109806,23.5054713 7.4146193,18.3683177 7.4146193,12.1619335 L7.4146193,5 L4,5 L4.00001103,12.1618388 C4.00001103,18.3682231 8.59646742,23.505566 14.5853917,24.3857693 C8.54892344,25.2730717 3.92726875,30.4850033 4.00086682,36.7574572 L4.00086682,43 L7.41547509,43 L7.41547509,36.7574572 C7.34187701,30.485098 11.9635317,25.2731664 18,24.3858639 Z" id="Shape" fill="#E1EAF8"></path>
                    <path d="M26,43 C26,37.4771185 21.5228815,33 16,33 C10.4771185,33 6,37.4771185 6,43" id="Shape" fill="#FFC843"></path>
                    <path d="M18,33.1105733 C17.4924863,33.0380211 16.9730784,33 16.4444622,33 C10.6761095,33 6,37.4771185 6,43 L9.11107559,43 C9.11117151,37.9834232 12.9695613,33.8298511 18,33.1105733 Z" id="Shape" fill="#FFA816"></path>
                    <polygon id="Shape" fill="#FFC843" points="11 13 12.5503278 22.9465226 15.0332882 20.407632 17.9670984 23 22 18.8762669 19.0662864 16.2838989 21.5491502 13.7451002"></polygon>
                    <path d="M4.9711788,42.0036797 L4.53802311,42.0036797 L4.53802311,36.6258257 C4.52429005,35.4565802 4.68654707,34.3024285 5.02046731,33.1952453 C5.15036699,32.7644658 4.90533537,32.3102488 4.4731203,32.1808743 C4.04043492,32.0514998 3.58517464,32.2956238 3.45518091,32.7264972 C3.07347715,33.9920235 2.88798681,35.3103308 2.90350704,36.6354819 L2.90350704,42.0037734 L0.817211001,42.0037734 C0.365807273,42.0037734 0,42.3684595 0,42.8182702 L0,47.1855032 C0,47.6353139 0.365807273,48 0.817211001,48 L31.182789,48 C31.6341927,48 32,47.6353139 32,47.1855032 L32,42.8182702 C32,42.3684595 31.6341927,42.0037734 31.182789,42.0037734 L29.0973395,42.0037734 L29.0973395,36.4891387 C29.0973395,33.3386823 27.9555204,30.2963192 25.8824871,27.9226722 C24.5142607,26.3561158 22.8027078,25.1478705 20.9020902,24.382311 C22.8250005,23.6080328 24.5533905,22.3807563 25.9299884,20.7870126 C28.0092298,18.3797095 29.1337415,15.3014402 29.096587,12.1287651 L29.096587,5.99613283 L31.182789,5.99613283 C31.6341927,5.99613283 32,5.63144675 32,5.18163601 L32,0.814496818 C32.000094,0.364686075 31.6343808,0 31.1829771,0 L25.9155029,0 C25.4640992,0 25.0982919,0.364686075 25.0982919,0.814496818 C25.0982919,1.26430756 25.4640992,1.62899364 25.9155029,1.62899364 L30.3659542,1.62899364 L30.3659542,4.36723294 L1.63451606,4.36723294 L1.63451606,1.62899364 L23.1914662,1.62899364 C23.6428699,1.62899364 24.0086772,1.26430756 24.0086772,0.814496818 C24.0086772,0.364686075 23.6428699,0 23.1914662,0 L0.817305063,0 C0.365901335,0 0.000188124079,0.364686075 0.000188124079,0.814496818 L0.000188124079,5.18172976 C0.000188124079,5.6315405 0.365995397,5.99622658 0.817399125,5.99622658 L2.90275455,5.99622658 L2.90275455,12.2751083 C2.90275455,15.4257522 4.04457365,18.4679279 6.11760694,20.8415748 C7.48752649,22.4100062 9.20161904,23.6192827 11.1049644,24.3846547 C8.39447267,25.4819005 6.07208091,27.4765177 4.60555965,30.0485389 C4.38253856,30.4395686 4.5199632,30.9368167 4.9122019,31.159097 C5.30491092,31.3813774 5.80343973,31.2445967 6.02655489,30.8533795 C7.75955391,27.8141101 10.8563584,25.6961184 14.3105987,25.1878079 C14.7114911,25.1288393 15.0083509,24.7859969 15.0083509,24.3821235 C15.0083509,23.9782501 14.711303,23.6354077 14.3105987,23.5764392 C14.0531509,23.5385643 13.798525,23.489252 13.545404,23.4340335 L11.8015879,22.906598 C10.1017928,22.2387256 8.57018056,21.1687611 7.35028997,19.772079 C5.53620947,17.6950559 4.53717655,15.0325663 4.53717655,12.275202 L4.53717655,5.99613283 L27.4624472,5.99613283 L27.4624472,12.1381401 C27.5239638,17.3843696 23.9586362,21.9731329 18.9842593,23.3083152 L17.2956576,23.7486572 C17.1093207,23.8989379 16.9922134,24.128437 16.9922134,24.3820298 C16.9922134,24.7859032 17.2892613,25.1287456 17.6899656,25.1877141 C20.381645,25.5839001 22.8535954,26.934926 24.6502744,28.9920742 C26.4643549,31.0690974 27.4633878,33.731587 27.4633878,36.4889512 L27.4633878,42.0035859 L27.0299499,42.0035859 L4.9711788,42.0035859 L4.9711788,42.0036797 Z M30.3658602,43.6325796 L30.3658602,46.3708189 L1.63451606,46.3708189 L1.63451606,43.6325796 L30.3658602,43.6325796 Z" id="Shape" fill="#323C5A"></path>
                    <g id="Group" transform="translate(19.000000, 37.000000)" fill="#FFA816">
                        <ellipse id="Oval" cx="2.04168889" cy="0.873047619" rx="1" ry="1"></ellipse>
                        <ellipse id="Oval" cx="0.806044444" cy="3.07952381" rx="1" ry="1"></ellipse>
                        <ellipse id="Oval" cx="3.19182222" cy="2.96914286" rx="1" ry="1"></ellipse>
                    </g>
                </g>
            </g>
        </g>
    </g>
</svg>