<?xml version="1.0" encoding="UTF-8"?>
<svg width="29px" height="48px" viewBox="0 0 29 48" version="1.1" xmlns="http://www.w3.org/2000/svg" xmlns:xlink="http://www.w3.org/1999/xlink">
    <!-- Generator: Sketch 51.2 (57519) - http://www.bohemiancoding.com/sketch -->
    <title>description</title>
    <desc>Created with Sketch.</desc>
    <defs></defs>
    <g id="Page-1" stroke="none" stroke-width="1" fill="none" fill-rule="evenodd">
        <g id="Desktop" transform="translate(-701.000000, -689.000000)" fill-rule="nonzero">
            <g id="Group-6" transform="translate(682.000000, 653.000000)">
                <g id="description" transform="translate(19.000000, 36.000000)">
                    <g id="Group" transform="translate(0.800000, 0.800000)" fill="#323C5A">
                        <path d="M24,0 L3.2,0 C1.4327,0 0,1.4327 0,3.2 L0,4.8 L27.2,4.8 L27.2,3.2 C27.2,1.4327 25.7673,0 24,0 Z" id="Shape"></path>
                        <path d="M0,43.2 C0,44.9673 1.4327,46.4 3.2,46.4 L24,46.4 C25.7673,46.4 27.2,44.9673 27.2,43.2 L27.2,41.6 L0,41.6 L0,43.2 Z" id="Shape"></path>
                    </g>
                    <path d="M0.8,42.4 L28,42.4 L28,5.6 L0.8,5.6 L0.8,42.4 Z M15.3224,12.052 C19.7109,12.5642 22.8533,16.537 22.3411,20.9255 C22.0114,23.7508 20.2062,26.1885 17.6,27.328 L17.6,34.4 L16,34.4 L16,36 L12.8,36 L12.8,34.4 L11.2,34.4 L11.2,27.328 C7.1527,25.5559 5.3082,20.8384 7.0802,16.791 C8.4892,13.5731 11.8325,11.6507 15.3224,12.052 Z" id="Shape" fill-opacity="0" fill="#FFFBEA"></path>
                    <polygon id="Shape" fill="#32CCBC" points="11.2 34.4 12.8 34.4 12.8 36 16 36 16 34.4 17.6 34.4 17.6 29.66 11.2 29.66"></polygon>
                    <path d="M11.2,27.268 L11.2,29.6 L17.6,29.6 L17.6,27.268 C21.6494,25.5007 23.4994,20.7853 21.7321,16.7359 C19.9648,12.6865 15.2494,10.8365 11.2,12.6038 C7.1506,14.3711 5.3006,19.0865 7.0679,23.1359 C7.8749,24.985 9.3508,26.461 11.2,27.268 Z M19.2,19.94 C19.1969,17.2903 17.0497,15.1431 14.4,15.14 C17.0497,15.1431 19.1969,17.2903 19.2,19.94 Z" id="Shape" fill="#FFC843"></path>
                    <g id="Group">
                        <path d="M24.8,0 L4,0 C1.792,0.0026 0.0026,1.792 0,4 L0,44 C0.0026,46.208 1.792,47.9974 4,48 L24.8,48 C27.008,47.9974 28.7974,46.208 28.8,44 L28.8,4 C28.7974,1.792 27.008,0.0026 24.8,0 Z M1.6,6.4 L27.2,6.4 L27.2,41.6 L1.6,41.6 L1.6,6.4 Z M4,1.6 L24.8,1.6 C26.1255,1.6 27.2,2.6745 27.2,4 L27.2,4.8 L1.6,4.8 L1.6,4 C1.6,2.6745 2.6745,1.6 4,1.6 Z M24.8,46.4 L4,46.4 C2.6745,46.4 1.6,45.3255 1.6,44 L1.6,43.2 L27.2,43.2 L27.2,44 C27.2,45.3255 26.1255,46.4 24.8,46.4 Z" id="Shape" fill="#323C5A"></path>
                        <path d="M11.2,4 L12,4 C12.4418,4 12.8,3.6418 12.8,3.2 C12.8,2.7582 12.4418,2.4 12,2.4 L11.2,2.4 C10.7582,2.4 10.4,2.7582 10.4,3.2 C10.4,3.6418 10.7582,4 11.2,4 Z" id="Shape" fill="#231F20"></path>
                        <path d="M14.4,4 L17.6,4 C18.0418,4 18.4,3.6418 18.4,3.2 C18.4,2.7582 18.0418,2.4 17.6,2.4 L14.4,2.4 C13.9582,2.4 13.6,2.7582 13.6,3.2 C13.6,3.6418 13.9582,4 14.4,4 Z" id="Shape" fill="#231F20"></path>
                        <path d="M16,44 L12.8,44 C12.3582,44 12,44.3582 12,44.8 C12,45.2418 12.3582,45.6 12.8,45.6 L16,45.6 C16.4418,45.6 16.8,45.2418 16.8,44.8 C16.8,44.3582 16.4418,44 16,44 Z" id="Shape" fill="#231F20"></path>
                        <path d="M23.12,18.7656 C22.4385,13.9535 17.9851,10.605 13.173,11.2865 C8.3609,11.968 5.0124,16.4214 5.6939,21.2335 C6.0954,24.0683 7.8509,26.5307 10.4,27.8343 L10.4,35.2 L12,35.2 L12,36.8 L16.8,36.8 L16.8,35.2 L18.4,35.2 L18.4,27.8352 C21.7602,26.1417 23.661,22.4893 23.12,18.7656 Z M15.2,33.6 L15.2,35.2 L13.6,35.2 L13.6,33.6 L12,33.6 L12,30.4592 L16.8,30.4592 L16.8,33.6 L15.2,33.6 Z M17.28,26.5944 L16.8,26.8048 L16.8,28.8592 L12,28.8592 L12,26.8048 L11.52,26.5944 C7.876,25.0026 6.2124,20.7582 7.8042,17.1143 C9.396,13.4704 13.6404,11.8067 17.2843,13.3985 C19.572,14.3978 21.1788,16.5109 21.5304,18.9824 C21.9994,22.1892 20.2561,25.3113 17.28,26.5944 Z" id="Shape" fill="#231F20"></path>
                        <path d="M14.4,14.4 L14.4,16 C16.608,16.0026 18.3974,17.792 18.4,20 L20,20 C19.996,16.9089 17.4911,14.404 14.4,14.4 Z" id="Shape" fill="#231F20"></path>
                    </g>
                </g>
            </g>
        </g>
    </g>
</svg>