<?xml version="1.0" encoding="UTF-8"?>
<svg width="456px" height="494px" viewBox="0 0 456 494" version="1.1" xmlns="http://www.w3.org/2000/svg" xmlns:xlink="http://www.w3.org/1999/xlink">
    <!-- Generator: Sketch 51.2 (57519) - http://www.bohemiancoding.com/sketch -->
    <title>dinner-image</title>
    <desc>Created with Sketch.</desc>
    <defs>
        <linearGradient x1="50.0019248%" y1="100.003446%" x2="50.0019248%" y2="7.46780926e-06%" id="linearGradient-1">
            <stop stop-color="#808080" stop-opacity="0.4" offset="20%"></stop>
            <stop stop-color="#808080" stop-opacity="0.5" offset="46%"></stop>
            <stop stop-color="#000000" stop-opacity="0.6" offset="100%"></stop>
        </linearGradient>
        <linearGradient x1="49.9895271%" y1="100.011301%" x2="49.9895271%" y2="1.33137805e-14%" id="linearGradient-2">
            <stop stop-color="#808080" stop-opacity="0.25" offset="0%"></stop>
            <stop stop-color="#808080" stop-opacity="0.12" offset="54%"></stop>
            <stop stop-color="#808080" stop-opacity="0.1" offset="100%"></stop>
        </linearGradient>
        <linearGradient x1="50.0064244%" y1="99.9694963%" x2="50.0064244%" y2="-0.0281823568%" id="linearGradient-3">
            <stop stop-color="#808080" stop-opacity="0.25" offset="0%"></stop>
            <stop stop-color="#808080" stop-opacity="0.12" offset="54%"></stop>
            <stop stop-color="#808080" stop-opacity="0.1" offset="100%"></stop>
        </linearGradient>
    </defs>
    <g id="Page-1" stroke="none" stroke-width="1" fill="none" fill-rule="evenodd">
        <g id="Desktop" transform="translate(-568.000000, 0.000000)">
            <g id="dinner-image" transform="translate(568.000000, -178.000000)">
                <g id="undraw_working_late_pukg-(1)" fill-rule="nonzero">
                    <path d="M818,450.212102 C818,487.113329 637.455085,623 411.973529,623 C186.491973,623 9,478.189503 9,441.288275 C9,404.387048 186.491973,489.350523 411.973529,489.350523 C637.455085,489.350523 818,413.277607 818,450.212102 Z" id="Shape" fill-opacity="0.276636096" fill="#8591B0"></path>
                    <path d="M820,435.479297 C820,435.970686 820,436.462076 820,436.961794 C819.504966,452.319794 811.916907,467.594508 798.070732,478.380088 C783.38226,489.806973 763.684339,495.820246 743.46183,499.659746 C740.299523,500.259408 737.122439,500.800769 733.952744,501.325473 C732.334648,501.575332 730.72394,501.825191 729.120621,502.058393 C684.10208,508.7213 638.137802,509.995581 592.387793,511.21989 C544.532042,512.552471 496.631959,513.868395 448.724488,514.551343 L439.22279,514.676273 C366.534064,515.559108 293.874892,514.817859 221.452155,510.170482 C198.976133,508.737957 176.278454,506.839029 153.994534,503.640833 C150.81745,503.202192 147.650218,502.721907 144.492837,502.19998 C114.938567,497.427673 86.263537,490.106804 60.1375627,478.221844 C53.9702089,475.44667 47.9376102,472.305149 42.0651268,468.810488 C25.6551186,458.991029 11.8163319,446.573037 4.9671299,431.331637 C0.982879897,422.395875 -0.657523486,412.36442 0.238446762,402.414622 C0.531485037,398.79757 1.08248319,395.212998 1.88609729,391.695671 C3.94606016,382.99281 7.0877687,374.662163 11.2178579,366.951301 C21.8869492,346.612778 37.9127519,328.381399 51.729373,309.283843 C81.2245341,268.581811 100.434809,217.152499 73.215327,175.434374 C65.4056112,163.44947 54.1158803,152.947064 47.7543237,140.41247 C44.351191,133.641234 42.2280184,126.149382 41.5183728,118.408221 C41.1730157,114.849325 41.0421842,111.268124 41.1267788,107.689269 C41.4285935,99.3319557 42.3554522,91.0182508 43.8974915,82.836627 C48.330632,57.251065 56.613216,29.6666309 82.1924364,13.7089692 C99.6516212,2.81511657 121.905986,-0.566308617 144.470671,0.0749961605 C147.637904,0.158282495 150.805136,0.324855165 153.972369,0.574714169 C162.624381,1.21601895 171.224674,2.3986849 179.529423,3.90616756 C230.835635,13.1426221 278.188964,32.4400658 325.992995,49.8635671 C362.389078,63.1227516 400.085549,75.5240868 439.200625,81.4374166 C442.362932,81.9121487 445.525238,82.3535663 448.702322,82.7366834 C457.871534,83.8693775 467.122021,84.6189546 476.446393,84.927114 C522.853985,86.426268 576.997407,75.0993265 607.815121,45.6825931 C637.583659,17.2486384 693.411675,14.9582642 733.930578,31.9403478 L734.536441,32.1985355 C737.585456,33.5089071 740.540883,34.9192224 743.402722,36.4294813 C773.259923,52.2538849 793.260775,79.3552582 796.083207,107.714255 C796.436386,111.23651 796.520433,114.786459 796.334419,118.324934 C796.33836,118.360888 796.33836,118.397252 796.334419,118.433206 C794.398614,153.321852 769.100159,182.621985 743.41011,211.972089 C740.233026,215.595045 737.048554,219.218 733.901024,222.865942 C725.56672,232.510499 717.491016,242.230014 710.486654,252.232703 C707.288115,256.766492 704.346547,261.523263 701.679482,266.474666 C699.228262,271.041583 697.134322,275.840326 695.421365,280.816573 C693.614656,285.968067 692.453343,291.37814 691.970904,296.890836 C691.250765,304.792735 692.531666,312.762916 695.665188,319.877864 L695.731685,320.044437 C702.588275,335.369123 717.099422,346.229661 733.901024,355.857561 C736.996834,357.639888 740.181306,359.372244 743.41011,361.087943 C761.630318,370.782472 781.261741,379.785725 796.186647,391.753971 C800.210084,394.90831 803.964835,398.477197 807.402493,402.414622 C808.802009,404.047666 810.123945,405.762983 811.362765,407.553389 C816.8125,415.315071 819.845069,424.882523 819.992611,434.779692 C820,435.029551 820,435.254424 820,435.479297 Z" id="Shape" fill="#32CCBC"></path>
                    <path d="M820,435.479297 C820,435.970686 820,436.462076 820,436.961794 C819.504966,452.319794 811.916907,467.594508 798.070732,478.380088 C783.38226,489.806973 763.684339,495.820246 743.46183,499.659746 C740.299523,500.259408 737.122439,500.800769 733.952744,501.325473 C732.334648,501.575332 730.72394,501.825191 729.120621,502.058393 C684.10208,508.7213 638.137802,509.995581 592.387793,511.21989 C544.532042,512.552471 496.631959,513.868395 448.724488,514.551343 L439.22279,514.676273 C366.534064,515.559108 293.874892,514.817859 221.452155,510.170482 C198.976133,508.737957 176.278454,506.839029 153.994534,503.640833 C150.81745,503.202192 147.650218,502.721907 144.492837,502.19998 C114.938567,497.427673 86.263537,490.106804 60.1375627,478.221844 C53.9702089,475.44667 47.9376102,472.305149 42.0651268,468.810488 C25.6551186,458.991029 11.8163319,446.573037 4.9671299,431.331637 C0.982879897,422.395875 -0.657523486,412.36442 0.238446762,402.414622 C0.531485037,398.79757 1.08248319,395.212998 1.88609729,391.695671 C3.94606016,382.99281 7.0877687,374.662163 11.2178579,366.951301 C21.8869492,346.612778 37.9127519,328.381399 51.729373,309.283843 C81.2245341,268.581811 100.434809,217.152499 73.215327,175.434374 C65.4056112,163.44947 54.1158803,152.947064 47.7543237,140.41247 C44.351191,133.641234 42.2280184,126.149382 41.5183728,118.408221 C41.1730157,114.849325 41.0421842,111.268124 41.1267788,107.689269 C41.4285935,99.3319557 42.3554522,91.0182508 43.8974915,82.836627 C48.330632,57.251065 56.613216,29.6666309 82.1924364,13.7089692 C99.6516212,2.81511657 121.905986,-0.566308617 144.470671,0.0749961605 C147.637904,0.158282495 150.805136,0.324855165 153.972369,0.574714169 C162.624381,1.21601895 171.224674,2.3986849 179.529423,3.90616756 C230.835635,13.1426221 278.188964,32.4400658 325.992995,49.8635671 C362.389078,63.1227516 400.085549,75.5240868 439.200625,81.4374166 C442.362932,81.9121487 445.525238,82.3535663 448.702322,82.7366834 C457.871534,83.8693775 467.122021,84.6189546 476.446393,84.927114 C522.853985,86.426268 576.997407,75.0993265 607.815121,45.6825931 C637.583659,17.2486384 693.411675,14.9582642 733.930578,31.9403478 L734.536441,32.1985355 C737.585456,33.5089071 740.540883,34.9192224 743.402722,36.4294813 C773.259923,52.2538849 793.260775,79.3552582 796.083207,107.714255 C796.436386,111.23651 796.520433,114.786459 796.334419,118.324934 C796.33836,118.360888 796.33836,118.397252 796.334419,118.433206 C794.398614,153.321852 769.100159,182.621985 743.41011,211.972089 C740.233026,215.595045 737.048554,219.218 733.901024,222.865942 C725.56672,232.510499 717.491016,242.230014 710.486654,252.232703 C707.288115,256.766492 704.346547,261.523263 701.679482,266.474666 C699.228262,271.041583 697.134322,275.840326 695.421365,280.816573 C693.614656,285.968067 692.453343,291.37814 691.970904,296.890836 C691.250765,304.792735 692.531666,312.762916 695.665188,319.877864 L695.731685,320.044437 C702.588275,335.369123 717.099422,346.229661 733.901024,355.857561 C736.996834,357.639888 740.181306,359.372244 743.41011,361.087943 C761.630318,370.782472 781.261741,379.785725 796.186647,391.753971 C800.210084,394.90831 803.964835,398.477197 807.402493,402.414622 C808.802009,404.047666 810.123945,405.762983 811.362765,407.553389 C816.8125,415.315071 819.845069,424.882523 819.992611,434.779692 C820,435.029551 820,435.254424 820,435.479297 Z" id="Shape" fill="url(#linearGradient-1)"></path>
                    <path d="M820,435.953901 C820,436.446197 820,436.938493 820,437.439134 C819.623152,452.942301 812.019679,468.403747 798.068896,479.284333 C783.379194,490.732312 763.679625,496.756686 743.455423,500.603273 C740.292851,501.204042 737.115501,501.746402 733.94554,502.272075 C732.327309,502.522395 730.716466,502.772715 729.113013,503.006348 C718.029234,504.675149 706.886341,505.951782 695.706503,507.019815 C680.706456,508.454985 665.632516,509.447922 650.543798,510.182194 C631.169353,511.141755 611.757961,511.684116 592.368737,512.226476 C554.469603,513.277821 516.540911,514.329166 478.575274,515.055095 L465.104788,515.305415 L448.671238,515.555735 L439.168745,515.680896 C379.316339,516.39848 319.552603,516.031344 259.892315,513.277821 C255.92186,513.099816 251.958793,512.905122 248.003115,512.693741 C239.136092,512.25429 230.269069,511.745305 221.402046,511.166787 C203.631054,510.032002 185.719667,508.596833 168.000399,506.469111 C163.300877,505.912844 158.621059,505.298168 153.960946,504.625085 C150.783596,504.185634 147.616098,503.704463 144.458452,503.181572 C140.9412,502.625305 137.438726,502.018973 133.95103,501.362578 C108.088879,496.589806 83.1208198,489.680967 60.0961164,479.150829 C53.922901,476.356271 47.8826902,473.200748 42,469.697068 L42,322.84253 C45.2807986,318.545366 48.5394296,314.248202 51.6724444,309.900974 C55.4409293,304.677625 59.0616304,299.29574 62.386764,293.772007 L133.914084,293.772007 L133.914084,244 L259.899705,244 L259.899705,353.423319 L465.104788,353.423319 L465.104788,266.645637 L701.854306,266.645637 C699.449452,271.073945 697.37576,275.720967 695.654779,280.53841 L695.654779,281.005675 L695.381379,281.005675 C693.574519,286.166678 692.413109,291.586738 691.930629,297.10961 C691.21043,305.026096 692.491438,313.01099 695.625222,320.139072 L695.625222,320.48952 L695.691725,320.6564 C702.548889,336.009375 717.06125,346.889961 733.864259,356.535634 C736.960328,358.321252 740.145067,360.056805 743.374142,361.775671 C761.411145,371.387968 780.844704,380.332744 795.711746,392.147859 L796.155097,392.498308 C800.069564,395.56446 803.73209,399.021659 807.098481,402.828189 C807.209319,402.945006 807.305379,403.061822 807.401438,403.178638 C808.801071,404.814696 810.123118,406.53318 811.362042,408.326891 C816.745289,416.009989 819.773975,425.459044 819.992611,435.253004 C820,435.503324 820,435.728612 820,435.953901 Z" id="Shape" fill="#32CCBC"></path>
                    <path d="M820,435.953901 C820,436.446197 820,436.938493 820,437.439134 C819.623152,452.942301 812.019679,468.403747 798.068896,479.284333 C783.379194,490.732312 763.679625,496.756686 743.455423,500.603273 C740.292851,501.204042 737.115501,501.746402 733.94554,502.272075 C732.327309,502.522395 730.716466,502.772715 729.113013,503.006348 C718.029234,504.675149 706.886341,505.951782 695.706503,507.019815 C680.706456,508.454985 665.632516,509.447922 650.543798,510.182194 C631.169353,511.141755 611.757961,511.684116 592.368737,512.226476 C554.469603,513.277821 516.540911,514.329166 478.575274,515.055095 L465.104788,515.305415 L448.671238,515.555735 L439.168745,515.680896 C379.316339,516.39848 319.552603,516.031344 259.892315,513.277821 C255.92186,513.099816 251.958793,512.905122 248.003115,512.693741 C239.136092,512.25429 230.269069,511.745305 221.402046,511.166787 C203.631054,510.032002 185.719667,508.596833 168.000399,506.469111 C163.300877,505.912844 158.621059,505.298168 153.960946,504.625085 C150.783596,504.185634 147.616098,503.704463 144.458452,503.181572 C140.9412,502.625305 137.438726,502.018973 133.95103,501.362578 C108.088879,496.589806 83.1208198,489.680967 60.0961164,479.150829 C53.922901,476.356271 47.8826902,473.200748 42,469.697068 L42,322.84253 C45.2807986,318.545366 48.5394296,314.248202 51.6724444,309.900974 C55.4409293,304.677625 59.0616304,299.29574 62.386764,293.772007 L133.914084,293.772007 L133.914084,244 L259.899705,244 L259.899705,353.423319 L465.104788,353.423319 L465.104788,266.645637 L701.854306,266.645637 C699.449452,271.073945 697.37576,275.720967 695.654779,280.53841 L695.654779,281.005675 L695.381379,281.005675 C693.574519,286.166678 692.413109,291.586738 691.930629,297.10961 C691.21043,305.026096 692.491438,313.01099 695.625222,320.139072 L695.625222,320.48952 L695.691725,320.6564 C702.548889,336.009375 717.06125,346.889961 733.864259,356.535634 C736.960328,358.321252 740.145067,360.056805 743.374142,361.775671 C761.411145,371.387968 780.844704,380.332744 795.711746,392.147859 L796.155097,392.498308 C800.069564,395.56446 803.73209,399.021659 807.098481,402.828189 C807.209319,402.945006 807.305379,403.061822 807.401438,403.178638 C808.801071,404.814696 810.123118,406.53318 811.362042,408.326891 C816.745289,416.009989 819.773975,425.459044 819.992611,435.253004 C820,435.503324 820,435.728612 820,435.953901 Z" id="Shape" fill="#000000" opacity="0.3"></path>
                    <rect id="Rectangle-path" fill="#000000" opacity="0.4" x="66" y="314" width="21" height="16"></rect>
                    <rect id="Rectangle-path" fill="#000000" opacity="0.4" x="100" y="314" width="21" height="16"></rect>
                    <rect id="Rectangle-path" fill="#000000" opacity="0.4" x="182" y="263" width="21" height="16"></rect>
                    <rect id="Rectangle-path" fill="#32CCBC" x="182" y="298" width="21" height="16"></rect>
                    <rect id="Rectangle-path" fill="#000000" opacity="0.4" x="182" y="334" width="21" height="16"></rect>
                    <rect id="Rectangle-path" fill="#000000" opacity="0.4" x="182" y="371" width="21" height="16"></rect>
                    <rect id="Rectangle-path" fill="#000000" opacity="0.4" x="182" y="407" width="21" height="16"></rect>
                    <rect id="Rectangle-path" fill="#000000" opacity="0.4" x="182" y="442" width="21" height="16"></rect>
                    <rect id="Rectangle-path" fill="#000000" opacity="0.4" x="182" y="479" width="21" height="16"></rect>
                    <rect id="Rectangle-path" fill="#000000" opacity="0.4" x="66" y="356" width="21" height="16"></rect>
                    <rect id="Rectangle-path" fill="#000000" opacity="0.4" x="100" y="356" width="21" height="16"></rect>
                    <rect id="Rectangle-path" fill="#000000" opacity="0.4" x="66" y="398" width="21" height="16"></rect>
                    <rect id="Rectangle-path" fill="#000000" opacity="0.4" x="100" y="398" width="21" height="16"></rect>
                    <rect id="Rectangle-path" fill="#000000" opacity="0.4" x="66" y="440" width="21" height="16"></rect>
                    <rect id="Rectangle-path" fill="#000000" opacity="0.4" x="100" y="440" width="21" height="16"></rect>
                    <rect id="Rectangle-path" fill="#000000" opacity="0.4" x="302" y="372" width="105" height="14"></rect>
                    <rect id="Rectangle-path" fill="#000000" opacity="0.4" x="302" y="418" width="105" height="14"></rect>
                    <rect id="Rectangle-path" fill="#000000" opacity="0.4" x="302" y="464" width="105" height="14"></rect>
                    <path d="M153,0.500165399 L153,504 C149.990669,503.560966 146.990669,503.080251 144,502.557856 L144,0 C147.002333,0.0666887198 149.997667,0.250082699 153,0.500165399 Z" id="Shape" fill-opacity="0.276636096" fill="#8591B0"></path>
                    <path d="M448,83.3067489 L448,514.875151 L439,515 L439,82 C441.995334,82.482748 444.995334,82.918331 448,83.3067489 Z" id="Shape" fill="#3F3D56"></path>
                    <path d="M808,402 L0,402 C0.293341765,398.625555 0.844910569,395.28141 1.64935695,392 L796.802124,392 C800.824898,394.957188 804.57403,398.305262 808,402 Z" id="Shape" fill-opacity="0.276636096" fill="#8591B0"></path>
                    <polygon id="Shape" fill="#E7EFFD" points="250 192.294776 247.705224 192.294776 247.705224 190 247.294776 190 247.294776 192.294776 245 192.294776 245 192.705224 247.294776 192.705224 247.294776 195 247.705224 195 247.705224 192.705224 250 192.705224"></polygon>
                    <circle id="Oval" fill="#E7EFFD" cx="289" cy="272" r="1"></circle>
                    <path d="M286,499 C286,499 322.07929,502.542994 332,509 L286,499 Z" id="Shape" fill="#000000" opacity="0.1"></path>
                    <path d="M288,489 C288.603611,489.231922 305.397748,491.800904 304.992794,493.665201 C304.587839,495.529497 288,489 288,489 Z" id="Shape" fill="#000000" opacity="0.1"></path>
                    <path d="M308,398 C308.566551,399.144524 325.82843,401.49473 326.954361,405.225354 C328.080291,408.955978 308,398 308,398 Z" id="Shape" fill="#000000" opacity="0.1"></path>
                    <path d="M302,415 C302,415 304.28666,406.689128 309.692129,408.178736 C315.097598,409.668344 302,415 302,415 Z" id="Shape" fill="#000000" opacity="0.1"></path>
                    <path d="M300,427 C300,427 304.126584,416.213628 309.760269,417.045788 C315.393954,417.877947 300,427 300,427 Z" id="Shape" fill="#000000" opacity="0.1"></path>
                    <path d="M342,347 C342,347 357.789971,360.348926 370,350.178703 C370,350.178703 349.358362,352.25177 342,347 Z" id="Shape" fill="#000000" opacity="0.1"></path>
                    <path d="M422,350 C422,350 437.786765,363.353414 450,353.173572 C450,353.173572 429.360294,355.256737 422,350 Z" id="Shape" fill="#000000" opacity="0.1"></path>
                    <path d="M211.692158,429.709934 C210.929547,430.890751 210.319348,432.187516 209.879787,433.561496 C209.768371,433.896414 209.656955,434.28157 209.545538,434.64998 C209.345053,434.539238 209.132903,434.457647 208.91418,434.407165 C207.988046,434.141453 207.029617,434.04812 206.07678,434.130857 C206.07678,433.712209 206.113919,433.293561 206.128774,432.816302 C206.247618,428.077207 205.749959,421.487688 201.746402,424.275883 C197.906256,426.971976 200.647096,431.443137 203.127964,434.323435 C203.343368,434.574624 203.551345,434.800694 203.759322,435.026764 C201.530998,436.860442 201.070477,441.072041 200.691662,445.48459 C200.312847,449.89714 196.977788,454.694846 194.79403,457.457923 C194.578625,457.734231 194.370648,457.985419 194.170099,458.219862 C192.373021,456.589545 190.039507,455.912094 187.76738,456.361065 L187.47027,455.138613 C185.68761,447.879257 181.981164,435.303071 177.257116,432.531622 L177.881046,431.644088 C179.886538,428.68006 182.144574,424.284256 178.809515,423.16228 C175.474456,422.040303 175.169918,426.971976 175.355612,430.697943 C175.355612,431.158456 175.415034,431.602223 175.452173,432.012498 C174.102004,432.083352 172.837019,432.776653 171.953703,433.929906 C171.79772,433.712209 171.626882,433.486139 171.441188,433.243323 C168.737488,429.634578 163.768324,423.932592 162.267919,428.219547 C160.871502,432.238568 165.239018,437.429803 168.314106,440.494306 L168.507228,440.678512 C166.442314,450.12321 175.444745,457.809587 180.302492,461.175517 C180.517897,461.334603 180.725874,461.476944 180.926423,461.610911 C174.24145,470.494621 170.104194,487.156811 170.104194,487.156811 L188.866686,491 C188.866686,491 201.29331,478.917819 199.703772,467.555713 L199.830043,467.555713 C212.241811,464.750771 215.064356,449.830157 213.133141,440.971565 L213.348546,440.87109 C215.608649,439.826712 217.589592,438.13896 219.097623,435.972908 C222.544098,430.54723 215.257477,424.393105 211.692158,429.709934 Z" id="Shape" fill="#32CCBC"></path>
                    <path d="M211.692158,429.709934 C210.929547,430.890751 210.319348,432.187516 209.879787,433.561496 C209.768371,433.896414 209.656955,434.28157 209.545538,434.64998 C209.345053,434.539238 209.132903,434.457647 208.91418,434.407165 C207.988046,434.141453 207.029617,434.04812 206.07678,434.130857 C206.07678,433.712209 206.113919,433.293561 206.128774,432.816302 C206.247618,428.077207 205.749959,421.487688 201.746402,424.275883 C197.906256,426.971976 200.647096,431.443137 203.127964,434.323435 C203.343368,434.574624 203.551345,434.800694 203.759322,435.026764 C201.530998,436.860442 201.070477,441.072041 200.691662,445.48459 C200.312847,449.89714 196.977788,454.694846 194.79403,457.457923 C194.578625,457.734231 194.370648,457.985419 194.170099,458.219862 C192.373021,456.589545 190.039507,455.912094 187.76738,456.361065 L187.47027,455.138613 C185.68761,447.879257 181.981164,435.303071 177.257116,432.531622 L177.881046,431.644088 C179.886538,428.68006 182.144574,424.284256 178.809515,423.16228 C175.474456,422.040303 175.169918,426.971976 175.355612,430.697943 C175.355612,431.158456 175.415034,431.602223 175.452173,432.012498 C174.102004,432.083352 172.837019,432.776653 171.953703,433.929906 C171.79772,433.712209 171.626882,433.486139 171.441188,433.243323 C168.737488,429.634578 163.768324,423.932592 162.267919,428.219547 C160.871502,432.238568 165.239018,437.429803 168.314106,440.494306 L168.507228,440.678512 C166.442314,450.12321 175.444745,457.809587 180.302492,461.175517 C180.517897,461.334603 180.725874,461.476944 180.926423,461.610911 C174.24145,470.494621 170.104194,487.156811 170.104194,487.156811 L188.866686,491 C188.866686,491 201.29331,478.917819 199.703772,467.555713 L199.830043,467.555713 C212.241811,464.750771 215.064356,449.830157 213.133141,440.971565 L213.348546,440.87109 C215.608649,439.826712 217.589592,438.13896 219.097623,435.972908 C222.544098,430.54723 215.257477,424.393105 211.692158,429.709934 Z" id="Shape" fill="#000000" opacity="0.1"></path>
                    <path d="M174,434.914993 L171.858758,442 C171.858758,442 170.668372,441.048772 169.165873,439.539928 C166.160875,436.571441 161.907424,431.454492 163.257496,427.518377 C164.709186,423.287053 169.579605,428.871417 172.228939,432.438521 C173.288672,433.848962 174,434.914993 174,434.914993 Z" id="Shape" fill="#32CCBC"></path>
                    <path d="M177.973033,432.043986 C177.199837,433.072129 176.37454,434.058797 175.500481,435 C175.281,433.685368 175.128596,432.360099 175.043878,431.029496 C174.837114,427.16394 175.233411,422.030271 179.049928,423.158454 C182.866445,424.286637 180.299127,428.948043 177.973033,432.043986 Z" id="Shape" fill="#32CCBC"></path>
                    <path d="M206.984767,433.554368 C206.902231,436.02513 206.679383,438 206.679383,438 C205.608458,437.117187 204.593819,436.161035 203.642045,435.137744 C200.88533,432.12759 197.864499,427.481861 202.115122,424.697903 C206.563832,421.783448 207.108572,428.630243 206.984767,433.554368 Z" id="Shape" fill="#32CCBC"></path>
                    <path d="M219.100775,435.298529 C217.615817,437.470765 215.665183,439.163335 213.43966,440.210695 C212.82164,440.521694 212.186362,440.785372 211.537993,441 L209,436.90233 C209.26875,435.548731 209.620708,434.218696 210.053231,432.922217 C210.483122,431.54282 211.0842,430.241887 211.837871,429.059659 C215.34864,423.70246 222.51646,429.874155 219.100775,435.298529 Z" id="Shape" fill="#32CCBC"></path>
                    <path d="M172.168168,433 C173.264264,434.329897 174,435.319588 174,435.319588 L171.785285,442 C171.785285,442 170.554054,441.103093 169,439.680412 C169.34582,437.541736 170.202323,435.525107 171.492492,433.811856 C171.717718,433.533505 171.942943,433.262887 172.168168,433 Z" id="Shape" fill="#000000" opacity="0.1"></path>
                    <path d="M177,431.76652 C176.472069,432.543356 175.908564,433.288854 175.311765,434 C175.161905,433.006701 175.057845,432.005366 175,431 C175.721664,431.01399 176.421213,431.282099 177,431.76652 Z" id="Shape" fill="#000000" opacity="0.1"></path>
                    <path d="M189,460.30097 L183.67548,463 C182.701966,462.440583 181.753983,461.824208 180.835252,461.153296 C175.234699,457.192491 163.975482,447.223629 171.522789,435.466556 C179.070097,423.709483 185.367994,444.791996 187.845022,455.103458 C188.600479,458.18687 189,460.30097 189,460.30097 Z" id="Shape" fill="#32CCBC"></path>
                    <path d="M204,433.780822 C204.790813,432.702308 205.864397,432.065021 207,432 C206.925926,434.778865 206.725926,437 206.725926,437 C205.764801,436.007101 204.854191,434.931718 204,433.780822 Z" id="Shape" fill="#000000" opacity="0.1"></path>
                    <path d="M214,440.218295 C213.303979,440.5263 212.58852,440.787439 211.85832,441 L209,436.941788 C209.302669,435.601223 209.699049,434.283995 210.186161,433 C212.031301,434.089397 213.390445,436.800416 214,440.218295 Z" id="Shape" fill="#000000" opacity="0.1"></path>
                    <path d="M200.036345,468.24162 C199.736964,468.310222 199.422614,468.378824 199.115749,468.430275 C180.711317,471.63741 193.045804,460.258084 193.045804,460.258084 C193.045804,460.258084 193.876586,459.400562 194.999264,457.959924 C197.244619,455.14725 200.560261,450.24222 200.941972,445.69735 C201.51828,438.837169 202.184402,432.448625 209.227334,434.335175 C216.135545,436.187424 217.45282,464.245565 200.036345,468.24162 Z" id="Shape" fill="#32CCBC"></path>
                    <rect id="Rectangle-path" fill="#D4DFEC" x="165" y="518" width="35" height="10"></rect>
                    <rect id="Rectangle-path" fill="#D4DFEC" x="159" y="485" width="45" height="36"></rect>
                    <rect id="Rectangle-path" fill="#000000" opacity="0.1" x="165" y="518" width="35" height="10"></rect>
                    <rect id="Rectangle-path" fill="#000000" opacity="0.1" x="159" y="485" width="45" height="36"></rect>
                    <rect id="Rectangle-path" fill="#D4DFEC" x="167" y="518" width="35" height="10"></rect>
                    <path d="M187.868327,455 C188.580071,458.12381 189,460.265608 189,460.265608 L183.782918,463 C182.829048,462.433253 181.900193,461.808803 181,461.129101 C183.042705,458.030688 185.348754,455.719577 187.868327,455 Z" id="Shape" fill="#000000" opacity="0.1"></path>
                    <path d="M200,466.313066 C199.701605,466.375205 199.388291,466.437344 199.082436,466.483948 C180.738613,469.388942 193.03248,459.081653 193.03248,459.081653 C193.03248,459.081653 193.860526,458.304917 194.979507,457 C198.403588,459.850622 199.806043,463.066309 200,466.313066 Z" id="Shape" fill="#000000" opacity="0.1"></path>
                    <path d="M171,487.197645 C171,487.197645 180.983764,445.649956 194.976986,458.448128 C208.970207,471.2463 189.285442,491 189.285442,491 L171,487.197645 Z" id="Shape" fill="#32CCBC"></path>
                    <circle id="Oval" fill="#000000" opacity="0.1" cx="175" cy="441" r="1"></circle>
                    <circle id="Oval" fill="#000000" opacity="0.1" cx="175" cy="447" r="1"></circle>
                    <circle id="Oval" fill="#000000" opacity="0.1" cx="208" cy="442" r="1"></circle>
                    <circle id="Oval" fill="#000000" opacity="0.1" cx="182" cy="473" r="1"></circle>
                    <circle id="Oval" fill="#000000" opacity="0.1" cx="206" cy="452" r="1"></circle>
                    <circle id="Oval" fill="#000000" opacity="0.1" cx="194" cy="466" r="1"></circle>
                    <circle id="Oval" fill="#000000" opacity="0.1" cx="180" cy="444" r="1"></circle>
                    <circle id="Oval" fill="#000000" opacity="0.1" cx="206" cy="447" r="1"></circle>
                    <circle id="Oval" fill="#000000" opacity="0.1" cx="201" cy="456" r="1"></circle>
                    <circle id="Oval" fill="#000000" opacity="0.1" cx="190" cy="472" r="1"></circle>
                    <circle id="Oval" fill="#000000" opacity="0.1" cx="186" cy="466" r="1"></circle>
                    <circle id="Oval" fill="#000000" opacity="0.1" cx="181" cy="451" r="1"></circle>
                    <rect id="Rectangle-path" fill="#000000" opacity="0.1" x="167" y="518" width="35" height="3"></rect>
                    <rect id="Rectangle-path" fill="#D4DFEC" x="162" y="485" width="45" height="36"></rect>
                    <circle id="Oval" fill="#000000" opacity="0.1" cx="191" cy="478" r="1"></circle>
                    <circle id="Oval" fill="#000000" opacity="0.1" cx="184" cy="480" r="1"></circle>
                </g>
                <g id="undraw_eating_together_tjhx-(1)" transform="translate(29.000000, 501.000000)">
                    <ellipse id="Oval" fill="#000000" fill-rule="nonzero" opacity="0.1" cx="24.5" cy="132.5" rx="17.5" ry="6.5"></ellipse>
                    <ellipse id="Oval" fill="#000000" fill-rule="nonzero" opacity="0.1" cx="304.5" cy="158.5" rx="17.5" ry="6.5"></ellipse>
                    <path d="M304.238912,159 C304.238912,159 308.714483,143.023625 303.396013,131.264325 C301.130985,126.347073 300.447838,120.791842 301.44914,115.432692 C301.943511,112.891849 302.658865,110.403879 303.586225,108" id="Shape" stroke="#535461" stroke-width="2"></path>
                    <path d="M300.003861,100.488368 C300.003861,102.412454 303.501931,108 303.501931,108 C303.501931,108 307,102.416302 307,100.488368 C307,98.5617956 305.432997,97 303.5,97 C301.567003,97 300,98.5617956 300,100.488368 L300.003861,100.488368 Z" id="Shape" fill="#32CCBC" fill-rule="nonzero"></path>
                    <path d="M294.588019,111.496254 C295.694528,113.146842 302,116 302,116 C302,116 301.886095,109.275821 300.779586,107.625233 C300.0638,106.557458 298.812721,105.9397 297.497618,106.004661 C296.182516,106.069623 295.003185,106.807435 294.403869,107.940172 C293.804552,109.072908 293.876301,110.428479 294.592087,111.496254 L294.588019,111.496254 Z" id="Shape" fill="#32CCBC" fill-rule="nonzero"></path>
                    <path d="M293.88074,129.53503 C295.568006,130.392267 302,129.801726 302,129.801726 C302,129.801726 298.648116,124.227778 296.96085,123.370541 C295.274345,122.512038 293.217656,123.196051 292.367107,124.898328 C291.516559,126.600605 292.194235,128.676527 293.88074,129.53503 Z" id="Shape" fill="#32CCBC" fill-rule="nonzero"></path>
                    <path d="M297.483782,143.327831 C299.099762,144.48906 306,145 306,145 C306,145 303.46291,138.837749 301.83885,137.688133 C300.213418,136.535879 297.92083,136.864282 296.718211,138.421642 C295.515592,139.979002 295.85835,142.175577 297.483782,143.327831 Z" id="Shape" fill="#32CCBC" fill-rule="nonzero"></path>
                    <path d="M308.928029,116.180367 C307.527359,117.566356 301,119 301,119 C301,119 302.599652,112.403647 304.000322,111.017658 C305.400935,109.632592 307.63946,109.665485 309.000209,111.091128 C310.360957,112.51677 310.328642,114.7953 308.928029,116.180367 Z" id="Shape" fill="#32CCBC" fill-rule="nonzero"></path>
                    <path d="M311.11926,132.533761 C309.431994,133.393338 303,132.801185 303,132.801185 C303,132.801185 306.351884,127.212027 308.03915,126.371552 C309.725655,125.510706 311.782344,126.196586 312.632893,127.903508 C313.483441,129.61043 312.805765,131.692017 311.11926,132.552863 L311.11926,132.533761 Z" id="Shape" fill="#32CCBC" fill-rule="nonzero"></path>
                    <path d="M313.516218,148.327831 C311.900238,149.48906 305,150 305,150 C305,150 307.53709,143.837749 309.16115,142.688133 C310.786582,141.535879 313.07917,141.864282 314.281789,143.421642 C315.484408,144.979002 315.14165,147.175577 313.516218,148.327831 Z" id="Shape" fill="#32CCBC" fill-rule="nonzero"></path>
                    <path d="M24.1154658,132 C24.1154658,132 33.9782681,97.8696762 22.272669,72.7185422 C17.3585441,62.1683859 15.7460968,50.3293318 17.9996838,38.88204 C19.0861046,33.4527938 20.657773,28.1365545 22.6949766,23" id="Shape" stroke="#535461" stroke-width="2"></path>
                    <path d="M16.003878,7.60918033 C16.003878,11.8111475 23.503878,24 23.503878,24 C23.503878,24 31,11.8032787 31,7.60918033 C31,3.40674607 27.6421356,0 23.5,0 C19.3578644,0 16,3.40674607 16,7.60918033 L16.003878,7.60918033 Z" id="Shape" fill="#32CCBC" fill-rule="nonzero"></path>
                    <path d="M4.09569231,30.4766354 C6.32290496,33.9807352 19,40 19,40 C19,40 18.7699953,25.7811417 16.5427826,22.2926157 C14.2768076,18.9126907 9.76912222,17.9872429 6.38850748,20.2078979 C3.00789274,22.4285529 1.99006632,26.9835937 4.09569231,30.4688485 L4.09569231,30.4766354 Z" id="Shape" fill="#32CCBC" fill-rule="nonzero"></path>
                    <path d="M4.13688329,70.0023215 C7.84880081,71.8434157 22,70.5726397 22,70.5726397 C22,70.5726397 14.6072921,58.6227518 10.9148291,56.7931405 C8.51415357,55.6020623 5.64990329,55.7613828 3.40101365,57.2110876 C1.15212401,58.6607923 -0.139745172,61.1806366 0.0120407348,63.8214195 C0.163826641,66.4622024 1.73620774,68.8227262 4.13688329,70.0138044 L4.13688329,70.0023215 Z" id="Shape" fill="#32CCBC" fill-rule="nonzero"></path>
                    <path d="M10.9679894,100.446746 C14.2192109,102.893944 28,104 28,104 C28,104 22.9282457,90.8968934 19.6732392,88.4612572 C16.4227641,86.0135681 11.8389968,86.7123671 9.4351084,90.0220684 C7.03122002,93.3317697 7.7175142,97.9990567 10.9679894,100.446746 Z" id="Shape" fill="#32CCBC" fill-rule="nonzero"></path>
                    <path d="M33.7247017,41.050704 C30.7701072,43.9723384 17,47 17,47 C17,47 20.3711691,33.075113 23.3257635,30.1534785 C26.2814962,27.2256222 31.0089264,27.2915526 33.8847743,30.3007383 C36.7606223,33.309924 36.695863,38.1228476 33.7401304,41.050704 L33.7247017,41.050704 Z" id="Shape" fill="#32CCBC" fill-rule="nonzero"></path>
                    <path d="M41.8631166,76.0023215 C38.1511991,77.8434157 24,76.5726397 24,76.5726397 C24,76.5726397 31.3927078,64.6227518 35.0851708,62.7931406 C37.4858464,61.6020623 40.3500967,61.7613828 42.5989863,63.2110875 C44.847876,64.6607923 46.1397452,67.1806366 45.9879593,69.8214195 C45.8361733,72.4622025 44.2637922,74.8227263 41.8631166,76.0138044 L41.8631166,76.0023215 Z" id="Shape" fill="#32CCBC" fill-rule="nonzero"></path>
                    <path d="M45.0320108,110.446746 C41.7807892,112.893944 28,114 28,114 C28,114 33.0717543,100.896893 36.3267608,98.4612571 C39.577236,96.0135681 44.1610032,96.7123672 46.5648916,100.022068 C48.9687799,103.33177 48.2824858,107.999057 45.0320108,110.446746 Z" id="Shape" fill="#32CCBC" fill-rule="nonzero"></path>
                    <path d="M145.89755,48.9725094 L124.512461,46.1084944 C123.645239,45.9934578 122.977554,45.6523148 123.000578,45.3548063 C123.038951,45.0572978 123.768031,44.9184606 124.65444,45.0493643 L145.993482,48.2426219 C146.580584,48.3298911 147.025707,48.5599643 146.998846,48.76227 C146.971985,48.9526755 146.480815,49.0518449 145.89755,48.9725094 Z" id="Shape" fill="#32CCBC" fill-rule="nonzero"></path>
                    <path d="M145.976285,48.2538326 L124.631223,46.0242773 C123.764437,45.935558 123.027479,46.0975672 123.00075,46.3868693 C122.974021,46.6761715 123.665158,46.9809031 124.528125,47.0580503 L145.911371,48.9867313 C146.499411,49.0407344 146.980534,48.9250135 146.999626,48.7282881 C147.0149,48.5199905 146.560506,48.3155503 145.976285,48.2538326 Z" id="Shape" fill="#32CCBC" fill-rule="nonzero"></path>
                    <path d="M178.106287,64.9725094 L199.487539,62.1084944 C200.354761,61.9934578 201.022446,61.6523148 200.999422,61.3548063 C200.961049,61.0572978 200.231969,60.9184606 199.34556,61.0493643 L178.006518,64.2426219 C177.419416,64.3298911 176.974293,64.5599643 177.001154,64.76227 C177.028015,64.9526755 177.519185,65.0518449 178.106287,64.9725094 Z" id="Shape" fill="#32CCBC" fill-rule="nonzero"></path>
                    <path d="M178.023715,65.2538326 L199.368777,63.0242773 C200.235563,62.935558 200.972521,63.0975672 200.99925,63.3868693 C201.025979,63.6761715 200.334842,63.9809031 199.471875,64.0580503 L178.088629,65.9867313 C177.500589,66.0407344 177.019466,65.9250135 177.000374,65.7282881 C176.9851,65.5199905 177.439494,65.3155503 178.023715,65.2538326 Z" id="Shape" fill="#32CCBC" fill-rule="nonzero"></path>
                    <rect id="Rectangle-path" fill="#40414D" fill-rule="nonzero" x="103" y="88" width="6" height="76"></rect>
                    <rect id="Rectangle-path" fill="#40414D" fill-rule="nonzero" x="216" y="88" width="6" height="76"></rect>
                    <path d="M100.480447,82 L221.519553,82 C226.203175,82 230,85.9525423 230,90.8282504 L230,92 L92,92 L92,90.8282504 C92,85.9525423 95.7968254,82 100.480447,82 Z" id="Shape" fill="#DFE6F5" fill-rule="nonzero"></path>
                    <path d="M99.4804469,82 L220.519553,82 C225.203175,82 229,85.9525423 229,90.8282504 L229,92 L91,92 L91,90.8282504 C91,85.9525423 94.7968254,82 99.4804469,82 Z" id="Shape" fill="#000000" fill-rule="nonzero" opacity="0.1"></path>
                    <path d="M100.480447,80 L221.519553,80 C226.203175,80 230,83.9525423 230,88.8282504 L230,90 L92,90 L92,88.8282504 C92,83.9525423 95.7968254,80 100.480447,80 Z" id="Shape" fill="#DFE6F5" fill-rule="nonzero"></path>
                    <circle id="Oval" stroke="#FFAB50" fill="#FFD77C" fill-rule="nonzero" cx="160.5" cy="63.5" r="10.5"></circle>
                    <circle id="Oval" stroke="#FFAB50" fill="#FFD77C" fill-rule="nonzero" cx="160.5" cy="63.5" r="8.5"></circle>
                    <circle id="Oval" stroke="#FFAB50" fill="#FFD77C" fill-rule="nonzero" cx="160.5" cy="63.5" r="6.5"></circle>
                    <circle id="Oval" stroke="#FFAB50" fill="#FFD77C" fill-rule="nonzero" cx="160.5" cy="63.5" r="3.5"></circle>
                    <circle id="Oval" stroke="#FFAB50" fill="#FFD77C" fill-rule="nonzero" cx="154.5" cy="69.5" r="10.5"></circle>
                    <circle id="Oval" stroke="#FFAB50" fill="#FFD77C" fill-rule="nonzero" cx="154.5" cy="69.5" r="8.5"></circle>
                    <circle id="Oval" stroke="#FFAB50" fill="#FFD77C" fill-rule="nonzero" cx="155.5" cy="69.5" r="6.5"></circle>
                    <circle id="Oval" stroke="#FFAB50" fill="#FFD77C" fill-rule="nonzero" cx="154.5" cy="69.5" r="3.5"></circle>
                    <circle id="Oval" stroke="#FFAB50" fill="#FFD77C" fill-rule="nonzero" cx="166.5" cy="69.5" r="10.5"></circle>
                    <circle id="Oval" stroke="#FFAB50" fill="#FFD77C" fill-rule="nonzero" cx="166.5" cy="69.5" r="8.5"></circle>
                    <circle id="Oval" stroke="#FFAB50" fill="#FFD77C" fill-rule="nonzero" cx="166.5" cy="69.5" r="6.5"></circle>
                    <circle id="Oval" stroke="#FFAB50" fill="#FFD77C" fill-rule="nonzero" cx="166.5" cy="69.5" r="3.5"></circle>
                    <path d="M139,66 L183,66 L183,68.1129744 C183,72.3264756 181.363244,76.3674027 178.449801,79.3467979 C175.536357,82.3261932 171.58488,84 167.464648,84 L154.535352,84 C145.955414,84 139,76.8871364 139,68.1129744 L139,66 Z" id="Shape" fill="#32CCBC" fill-rule="nonzero"></path>
                    <path d="M179.069231,66 C178.833444,75.7601434 171.104431,83.5459452 161.65,83.5472181 L153,83.5472181 C154.261849,83.8448175 155.551818,83.9966763 156.846154,83.9999982 L165.561538,83.9999982 C170.185799,84.0021056 174.621359,82.106613 177.891927,78.7307301 C181.162494,75.3548472 183,70.775273 183,66 L179.069231,66 Z" id="Shape" fill="#000000" fill-rule="nonzero" opacity="0.1"></path>
                    <rect id="Rectangle-path" fill="#40414D" fill-rule="nonzero" transform="translate(163.000000, 149.500000) rotate(90.000000) translate(-163.000000, -149.500000) " x="160" y="92" width="6" height="115"></rect>
                    <rect id="Rectangle-path" fill="#40414D" fill-rule="nonzero" x="59" y="128" width="5" height="42"></rect>
                    <rect id="Rectangle-path" fill="#40414D" fill-rule="nonzero" x="95" y="128" width="5" height="42"></rect>
                    <path d="M103,121 C103,123.759939 93.4949616,126 81.7689748,126 C70.0429879,126 61,123.763761 61,121 C61,118.236239 70.0429879,116 81.7689748,116 C93.4949616,116 103,118.251529 103,121 Z" id="Shape" fill="#F6C6CD" fill-rule="nonzero"></path>
                    <path d="M55,121 L103,121 L103,125.584112 C103,128.02294 101.192209,130 98.9621855,130 L61.9219676,130 C58.0990705,130 55,126.610754 55,122.429907 L55,121 Z" id="Shape" fill="#40414D" fill-rule="nonzero"></path>
                    <path d="M52.5282113,71.0000112 L53.4789916,71.0000112 C54.8713061,71.0000112 56,72.2234084 56,73.7325453 L56,129 L54.5594238,129 C52.0413236,129 50,126.787399 50,124.058017 L50,73.7325453 C49.9999973,73.0064775 50.2665913,72.3102609 50.740931,71.7975864 C51.2152708,71.2849118 51.8583512,70.9979367 52.5282113,71.0000112 Z" id="Shape" fill="#40414D" fill-rule="nonzero" transform="translate(53.000000, 100.000000) rotate(-12.720000) translate(-53.000000, -100.000000) "></path>
                    <rect id="Rectangle-path" fill="#40414D" fill-rule="nonzero" transform="translate(261.500000, 150.000000) rotate(-180.000000) translate(-261.500000, -150.000000) " x="259" y="129" width="5" height="42"></rect>
                    <rect id="Rectangle-path" fill="#40414D" fill-rule="nonzero" transform="translate(224.500000, 150.000000) rotate(-180.000000) translate(-224.500000, -150.000000) " x="222" y="129" width="5" height="42"></rect>
                    <path d="M219,122.005727 C219,124.762505 228.505038,127 240.231025,127 C251.957012,127 261,124.766323 261,122.005727 C261,119.245132 251.953129,117 240.231025,117 C228.508921,117 219,119.24895 219,122.005727 Z" id="Shape" fill="#F6C6CD" fill-rule="nonzero"></path>
                    <path d="M225.921968,122 L262.962186,122 C265.192209,122 267,123.97706 267,126.415888 L267,131 L219,131 L219,129.570093 C219,125.389246 222.09907,122 225.921968,122 Z" id="Shape" fill="#40414D" fill-rule="nonzero" transform="translate(243.000000, 126.500000) rotate(-180.000000) translate(-243.000000, -126.500000) "></path>
                    <path d="M269.557692,72 L271,72 L271,127.267833 C271,128.776767 269.869949,130 268.475962,130 L267.524038,130 C266.130051,130 265,128.776767 265,127.267833 L265,76.941319 C264.999997,74.2153495 267.039382,72.0043064 269.557692,72 Z" id="Shape" fill="#40414D" fill-rule="nonzero" transform="translate(268.000000, 101.000000) rotate(-167.280000) translate(-268.000000, -101.000000) "></path>
                    <path d="M262.638265,105.627268 L264,105.193098 C264,105.193098 261.672247,89.5160099 261.695525,75.4660851 C261.695525,75.0749402 261.695525,74.6564151 261.695525,74.2535359 C261.722682,73.3773713 261.753719,72.5090296 261.796394,71.6602452 C261.850708,70.5728623 261.862347,69.5363283 261.854588,68.5310859 C261.982614,55.0013838 256.694736,49.2867568 256.694736,49.2867568 C256.694736,49.2867568 250.487396,40.3608301 246.766871,38.6241467 C246.444865,37.60717 246.076304,36.300746 245.750419,34.7831038 C245.870686,34.7009634 245.987074,34.6188229 246.099582,34.5327711 C247.63614,33.3836246 249.106314,32.1468948 250.502914,30.8286288 C252.411671,29.0254508 254.242837,26.8272165 254.141967,24.3473578 C254.152454,24.1059058 254.144673,23.8639992 254.11869,23.6237397 C253.765647,20.6314812 250.681375,18.3784866 249.436027,15.5426861 C248.388539,13.1606136 248.702785,10.5086512 247.787203,8.09137568 C246.87162,5.67410018 243.67484,3.42501699 241.261736,4.69623793 C240.37331,5.16561181 239.837927,5.994839 239.096926,6.62458229 C237.258001,8.1891619 234.293996,8.33388552 231.780023,7.62200179 C229.266051,6.91011807 228.52117,4.0078229 225.006263,4 C225.318361,4.10550947 225.616666,4.24866351 225.894689,4.42634794 C225.601084,4.37647715 225.303998,4.35031773 225.006263,4.34811896 C226.466852,4.81404565 227.518723,6.10290222 227.690938,7.63764759 C227.685477,7.73200432 227.675117,7.82600787 227.659901,7.91927192 C226.25549,8.68200448 224.408807,8.24783364 222.725066,8.22045349 C221.041324,8.19307335 219.124808,9.04968069 219.29163,10.4382451 C219.263347,10.5960327 219.263347,10.7576543 219.29163,10.9154419 C219.512767,11.9676217 220.909419,12.7616458 221.08012,13.7355966 C221.08012,13.7629768 221.08012,13.7864455 221.08012,13.8138256 C217.964239,15.3836224 214.59337,16.3747014 211.128978,16.7395895 C211.01647,16.7395895 211.066904,16.8764902 211.229847,17.0759741 L211.128978,17.0759741 C210.496605,17.1424687 214.919335,20.6666843 215.423681,20.8974598 C217.270365,21.7423328 219.477851,22.3642532 221.433163,23.0135537 L221.603865,23.068314 C220.94506,24.6113516 220.605776,26.2737895 220.606811,27.9537138 C220.606811,33.9773453 224.901514,39.0387603 230.717016,40.4703507 C231.803301,41.7493945 232.9439,43.1536047 233.983629,44.549992 L233.909917,44.549992 C233.909917,44.549992 227.225387,53.5150332 227.438765,66.9039232 C227.419803,68.5819946 227.507922,70.2595582 227.702577,71.9262237 C223.403993,71.6798024 214.166695,70.5376593 207.140761,65.3510779 C197.662929,58.3613185 187.091052,60.4578552 189.294658,64.6509285 C191.498264,68.8440019 202.783984,72.3369258 204.603511,72.6889563 C204.774213,72.7202478 205.169931,72.8141226 205.736351,72.9549348 C203.493949,73.3812827 201.957632,74.1283695 202.050742,75.1336119 C202.233083,77.0541334 211.893256,83.1716396 217.724277,83.5197586 C221.576708,83.7505341 226.212815,84.9474375 229.871266,85.9996173 C230.224309,94.037645 228.296154,96.4470976 228.296154,96.4470976 C228.296154,96.4470976 228.870333,96.8030395 229.820832,97.3076164 L229.413475,98.4810511 C227.046926,99.8578812 224.129476,101.293383 221.475838,101.872277 C218.094304,102.572766 214.807256,103.675697 211.683759,105.157895 L198.559113,111.553114 C196.176221,112.667763 194.533183,114.944014 194.213975,117.572834 C193.926885,120.283468 194.737719,123.670783 199.129413,126.357948 C199.400984,128.560094 200.735562,131.129916 204.23883,133.484608 C211.028108,138.037535 228.870333,151.676758 231.298955,153.538608 C231.34551,156.867251 230.910996,163.544094 226.837429,164.58454 C221.731891,165.890964 225.840375,170.842858 229.968256,170.647286 C230.947809,171.020888 232.013882,171.099699 233.03701,170.87415 C237.413185,169.825881 253.451401,164.224686 254.545445,155.846362 C254.590873,155.483147 254.611613,155.117225 254.607518,154.751157 C254.671138,153.322851 254.317725,151.907112 253.591066,150.679338 C253.762216,151.057897 253.90109,151.45046 254.006182,151.852773 C252.679363,148.801843 249.447666,146.885233 246.933693,145.805673 C246.933693,145.778293 246.933693,145.747001 246.933693,145.719621 C246.545735,145.567074 246.157776,145.441908 245.83965,145.328476 C245.846076,145.101765 245.829174,144.874992 245.789215,144.651795 L220.637847,127.179353 C220.637847,127.179353 231.574405,118.093056 242.875645,119.493355 C254.176884,120.893654 255.977012,118.824497 255.977012,118.824497 C255.977012,118.824497 261.773117,113.266328 262.355055,106.867198 L262.719736,106.769412 C262.719736,106.769412 262.692579,106.366532 262.638265,105.627268 Z" id="Shape" fill="url(#linearGradient-2)" fill-rule="nonzero"></path>
                    <path d="M231.275664,150.250657 C231.275664,150.250657 232.291785,161.633955 227.207344,163.015404 C222.122903,164.396854 226.869915,169.914846 230.9344,168.869003 C234.998885,167.82316 249.918613,162.312972 250.934734,154.039887 C251.950855,145.766801 240.765853,143 240.765853,143 L231.275664,150.250657 Z" id="Shape" fill="#B8616E" fill-rule="nonzero"></path>
                    <path d="M231.275664,150.250657 C231.275664,150.250657 232.291785,161.633955 227.207344,163.015404 C222.122903,164.396854 226.869915,169.914846 230.9344,168.869003 C234.998885,167.82316 249.918613,162.312972 250.934734,154.039887 C251.950855,145.766801 240.765853,143 240.765853,143 L231.275664,150.250657 Z" id="Shape" fill="#000000" fill-rule="nonzero" opacity="0.05"></path>
                    <path d="M233.275664,151.250657 C233.275664,151.250657 234.291785,162.633955 229.207344,164.015404 C224.122903,165.396854 228.869915,170.914846 232.9344,169.869003 C236.998885,168.82316 251.918613,163.312972 252.934734,155.039887 C253.950855,146.766801 242.765853,144 242.765853,144 L233.275664,151.250657 Z" id="Shape" fill="#B8616E" fill-rule="nonzero"></path>
                    <path d="M244.833002,144 L235,151.652473 C235,151.652473 235.043738,152.171703 235.071571,153 C238.785288,151.945055 246.87674,149.142857 247,144.758242 C246.292969,144.46075 245.569333,144.207547 244.833002,144 Z" id="Shape" fill="#000000" fill-rule="nonzero" opacity="0.1"></path>
                    <rect id="Rectangle-path" fill="#F8BDC5" fill-rule="nonzero" x="234" y="45" width="4" height="3"></rect>
                    <path d="M234.504027,95 C234.504027,95 227.98484,100.180706 222.630209,101.409363 C219.446506,102.10616 216.360181,103.198321 213.441444,104.660999 L201.126565,110.992103 C198.853997,112.14833 197.317948,114.393098 197.048688,116.95148 C196.696613,120.473108 198.097174,125.106005 206.454114,127.8607 L232.790081,150 L241,143.081958 L212.953956,121.294821 L234.504027,107.803073 L234.504027,95 Z" id="Shape" fill="#758AC8" fill-rule="nonzero"></path>
                    <path d="M234.504027,95 C234.504027,95 227.98484,100.180706 222.630209,101.409363 C219.446506,102.10616 216.360181,103.198321 213.441444,104.660999 L201.126565,110.992103 C198.853997,112.14833 197.317948,114.393098 197.048688,116.95148 C196.696613,120.473108 198.097174,125.106005 206.454114,127.8607 L232.790081,150 L241,143.081958 L212.953956,121.294821 L234.504027,107.803073 L234.504027,95 Z" id="Shape" fill="#000000" fill-rule="nonzero" opacity="0.1"></path>
                    <path d="M229.665808,72.0625955 C229.665808,72.0625955 217.311208,72.4061723 208.627862,65.5034025 C199.944515,58.6006326 190.264039,60.6699019 192.265854,64.8123446 C194.267669,68.9547874 204.620454,72.4061723 206.289892,72.7497491 C207.959331,73.0933259 232,80 232,80 L229.665808,72.0625955 Z" id="Shape" fill="#F8BDC5" fill-rule="nonzero"></path>
                    <path d="M229.665808,72.0625955 C229.665808,72.0625955 217.311208,72.4061723 208.627862,65.5034025 C199.944515,58.6006326 190.264039,60.6699019 192.265854,64.8123446 C194.267669,68.9547874 204.620454,72.4061723 206.289892,72.7497491 C207.959331,73.0933259 232,80 232,80 L229.665808,72.0625955 Z" id="Shape" fill="#000000" fill-rule="nonzero" opacity="0.05"></path>
                    <path d="M232.272956,92 L228.199042,104.478342 C228.199042,104.478342 205.287598,118.861954 203.417668,120.767224 C201.966264,122.2491 200.02338,128.047237 206.811956,132.896658 C213.600532,137.74608 232.269116,153 232.269116,153 C232.269116,153 246.525893,149.863753 245.508375,143.98329 L222.086252,126.655527 C222.086252,126.655527 232.269116,117.638817 242.793712,119.030527 C253.318309,120.422237 255.015453,118.336632 255.015453,118.336632 C255.015453,118.336632 263.16328,110.009897 260.444778,102.051671 C257.726276,94.0934447 232.272956,92 232.272956,92 Z" id="Shape" fill="#758AC8" fill-rule="nonzero"></path>
                    <path d="M227,35.5292079 C227,35.5292079 238.526074,48.5111299 237.847393,52.3687967 C237.168712,56.2264636 247,41.1410813 247,41.1410813 C247,41.1410813 243.932515,33.4217788 244.626534,25 L227,35.5292079 Z" id="Shape" fill="#F8BDC5" fill-rule="nonzero"></path>
                    <path d="M236.857941,47.7348387 C237.648509,46.8865995 238.481052,46.0798015 239.352338,45.3175759 C241.096273,43.8642809 242.69614,42.2411266 244.129088,40.471297 C246.515536,37.3370826 255.375078,50.8612175 255.375078,50.8612175 C255.375078,50.8612175 260.82651,57.0943863 260.147973,71.9897399 C259.469435,86.8850936 261,106.799108 261,106.799108 L258.9374,107.382855 C255.415086,108.577302 251.545044,108.018595 248.489463,105.874515 C245.767602,103.962644 242.32094,101.956747 239.699317,101.776529 C234.587153,101.431766 229.983893,98.4856044 229.983893,98.4856044 C229.983893,98.4856044 232.200706,93.1182624 228.792596,75.7978104 C225.384487,58.4773584 234.070539,46.1677315 234.070539,46.1677315 C234.070539,46.1677315 234.756788,49.9366243 236.857941,47.7348387 Z" id="Shape" fill="#000000" fill-rule="nonzero" opacity="0.1"></path>
                    <path d="M262,105.277736 L259.967175,105.971137 L258.758987,106.382477 C255.254827,107.577477 251.404388,107.018764 248.364733,104.874232 C245.660693,102.966401 242.227904,100.956714 239.619752,100.776508 C234.541526,100.427849 228.788248,96.6200214 228.788248,96.6200214 C228.788248,96.6200214 232.178846,92.1187931 228.788248,74.7994454 C225.39765,57.4800978 234.042908,45.1869259 234.042908,45.1869259 C234.042908,45.1869259 234.72563,48.9359907 236.815988,46.730428 C237.600839,45.8831645 238.427847,45.0777029 239.293733,44.3172368 C241.028707,42.8640345 242.620354,41.2409837 244.04594,39.4712669 C246.420125,36.3372524 255.234146,49.860525 255.234146,49.860525 C255.234146,49.860525 260.657569,56.0932963 259.982517,70.9877003 C259.909643,72.5547075 259.878958,74.168725 259.875123,75.80233 C259.825261,89.7408595 262,105.277736 262,105.277736 Z" id="Shape" fill="#464647" fill-rule="nonzero"></path>
                    <path d="M243.028349,71.1040493 L243.366396,78.8109718 C243.366396,78.8109718 225.365375,79.8610152 221.631489,76.0095352 C217.897602,72.1580551 231.811323,87.3381169 234.884481,88.2692875 C237.769408,89.1449841 245.217974,89.9176576 249.124725,89.9969061 C251.404968,90.072614 253.513794,88.7534861 254.502751,86.6328047 C254.95813,85.6114729 255.105354,84.4725247 254.92531,83.3638016 C254.245374,78.8109718 254.92531,69 254.92531,69 L243.028349,71.1040493 Z" id="Shape" fill="#000000" fill-rule="nonzero" opacity="0.1"></path>
                    <path d="M242.111935,70.1040493 L242.447622,77.8109718 C242.447622,77.8109718 224.572284,78.8610152 220.864467,75.0095352 C217.15665,71.1580551 203.74061,72.0099772 204.003819,75.0095352 C204.171663,76.9352752 213.109332,83.0651514 218.499399,83.4178075 C223.889466,83.7704636 230.973226,86.3381169 234.024927,87.2692875 C236.889711,88.1449841 244.286271,88.9176576 248.165746,88.9969061 C250.430069,89.072614 252.524171,87.7534861 253.506223,85.6328047 C253.958423,84.6114729 254.104618,83.4725247 253.925832,82.3638016 C253.250643,77.8109718 253.925832,68 253.925832,68 L242.111935,70.1040493 Z" id="Shape" fill="#F8BDC5" fill-rule="nonzero"></path>
                    <path d="M246.789307,48.0077547 C246.789307,48.0077547 239.08618,49.0606353 240.090277,61.0038773 C241.094373,72.9471194 242.435695,74 242.435695,74 C242.435695,74 253.825561,72.9471194 255.163094,72.5935104 C256.500626,72.2399015 255.833755,59.2477519 255.833755,59.2477519 C255.833755,59.2477519 255.49653,47.6581189 246.789307,48.0077547 Z" id="Shape" fill="#000000" fill-rule="nonzero" opacity="0.1"></path>
                    <path d="M246.789307,47.008102 C246.789307,47.008102 239.08618,48.0609685 240.090277,60.004051 C241.094373,71.9471334 242.435695,73 242.435695,73 C242.435695,73 253.825561,71.9471334 255.163094,71.5935292 C256.500626,71.239925 255.833755,58.2479491 255.833755,58.2479491 C255.833755,58.2479491 255.49653,46.6505247 246.789307,47.008102 Z" id="Shape" fill="#40414D" fill-rule="nonzero"></path>
                    <path d="M243.183261,32.1355498 C242.669565,29.3789908 243.722826,28.5283955 244,25 L227,35.4434206 C227,35.4434206 228.947609,37.7037989 231.161304,40.6060617 C232.150618,40.8726817 233.16759,41.0049949 234.188043,40.9998559 C238.641304,41.0195456 241.076739,35.9238494 243.183261,32.1355498 Z" id="Shape" fill="#000000" fill-rule="nonzero" opacity="0.1"></path>
                    <ellipse id="Oval" fill="#F8BDC5" fill-rule="nonzero" cx="234.5" cy="28" rx="12.5" ry="13"></ellipse>
                    <path d="M237.548323,24.7502698 C235.634645,26.0109253 235.607854,28.8612753 236.840262,30.8355094 C238.072671,32.8097435 240.196854,34.1140066 242.240662,35.3429476 C242.833902,35.6997368 243.48838,36.0684191 244.15434,35.9891326 C244.666339,35.8857786 245.140642,35.6373958 245.524533,35.2715897 C246.954783,34.1156984 248.319581,32.8754543 249.61215,31.5570167 C251.472245,29.6620691 253.25962,27.3270813 252.968741,24.6828762 C252.639588,21.6818818 249.776726,19.4222163 248.620864,16.5797949 C247.648716,14.2011995 247.939595,11.5332085 247.089922,9.10307692 C246.240249,6.67294537 243.262566,4.4251728 241.035045,5.69772129 C240.212163,6.1655117 239.714607,7.00198439 239.025683,7.63231215 C237.318682,9.1942564 234.566813,9.3488651 232.232126,8.6352865 C229.897438,7.92170791 229.204687,5.00792865 225.947607,5 C227.566578,5.5906845 228.661202,7.33895206 228.412424,8.93261092 C227.107296,9.69772574 225.39264,9.26164994 223.819597,9.23389966 C222.246553,9.20614938 220.374976,10.1179442 220.646719,11.5847447 C220.884015,12.7740423 222.54126,13.6580869 222.296309,14.8473846 C219.421208,16.4161863 216.287063,17.4113259 213.057071,17.7809855 C212.471486,17.848379 216.574412,21.3805931 217.041349,21.6144883 C218.752177,22.4628539 220.807467,23.085253 222.617807,23.7354024 C227.53596,25.4915986 232.57276,26.1179621 237.548323,24.7502698 Z" id="Shape" fill="#000000" fill-rule="nonzero" opacity="0.1"></path>
                    <path d="M237.548323,24.7502698 C235.634645,26.0109253 235.607854,28.8612753 236.840262,30.8355094 C238.072671,32.8097435 240.196854,34.1140066 242.240662,35.3429476 C242.833902,35.6997368 243.48838,36.0684191 244.15434,35.9891326 C244.666339,35.8857786 245.140642,35.6373958 245.524533,35.2715897 C246.954783,34.1156984 248.319581,32.8754543 249.61215,31.5570167 C251.472245,29.6620691 253.25962,27.3270813 252.968741,24.6828762 C252.639588,21.6818818 249.776726,19.4222163 248.620864,16.5797949 C247.648716,14.2011995 247.939595,11.5332085 247.089922,9.10307692 C246.240249,6.67294537 243.262566,4.4251728 241.035045,5.69772129 C240.212163,6.1655117 239.714607,7.00198439 239.025683,7.63231215 C237.318682,9.1942564 234.566813,9.3488651 232.232126,8.6352865 C229.897438,7.92170791 229.204687,5.00792865 225.947607,5 C227.566578,5.5906845 228.661202,7.33895206 228.412424,8.93261092 C227.107296,9.69772574 225.39264,9.26164994 223.819597,9.23389966 C222.246553,9.20614938 220.374976,10.1179442 220.646719,11.5847447 C220.884015,12.7740423 222.54126,13.6580869 222.296309,14.8473846 C219.421208,16.4161863 216.287063,17.4113259 213.057071,17.7809855 C212.471486,17.848379 216.574412,21.3805931 217.041349,21.6144883 C218.752177,22.4628539 220.807467,23.085253 222.617807,23.7354024 C227.53596,25.495563 232.57276,26.1100334 237.548323,24.7502698 Z" id="Shape" fill="#916168" fill-rule="nonzero"></path>
                    <path d="M252.035889,149 C252.583057,150.296422 252.773681,151.722202 252.587018,153.122196 C251.565696,161.524981 236.573453,167.124197 232.484309,168.169596 C230.329897,168.723973 227.982782,167.429105 227,165.872887 C227.632064,167.702334 230.353021,169.504062 232.827319,168.870488 C236.916463,167.821129 251.908706,162.217953 252.930028,153.823088 C253.153212,152.15819 252.839135,150.46402 252.035889,149 Z" id="Shape" fill="#FFFFFF" fill-rule="nonzero" opacity="0.1"></path>
                    <path d="M143.94113,157.822761 C143.638121,157.130067 142.065546,155.779705 134.482663,155.487839 C129.289328,155.289371 127.52114,152.506923 127.041696,149.790632 C128.748516,149.564923 130.083287,149.2536 130.52054,148.82164 C130.52054,148.82164 130.497527,148.69711 130.459171,148.475293 L130.52054,148.428594 C130.188887,146.469321 130.01571,144.48581 130.002741,142.497895 C129.992777,140.796817 130.170315,139.099943 130.532047,137.438899 C130.743228,136.340801 130.832003,135.222086 130.7967,134.103853 C130.838891,127.488243 128.549067,115.860336 128.549067,115.860336 L128.234552,106.197654 C128.170216,103.741818 126.7888,101.517801 124.632971,100.399266 C123.879715,100.003778 123.045489,99.7931769 122.197396,99.7844035 C122.197396,99.7844035 110.176782,97.8619851 99.3566953,96.8151621 C98.5895853,96.1886249 95.8855225,94.4996986 89.6872735,95.4686909 L86.1202119,84.8759319 C86.0913936,84.7477145 86.0708933,84.6177178 86.0588431,84.4867783 C86.1854163,83.1403071 87.0714283,81.1128173 91.2023158,80.9843966 L92.0653146,81.7627036 C92.0653146,81.7627036 92.2187366,81.4552724 92.4757184,80.9843966 C97.6000134,80.9260236 125.515147,80.63805 126.953478,80.9843966 C128.537561,81.3735501 142.414581,78.2369727 142.813478,77.8478192 C148.206262,72.5125243 126.953478,75.1003953 126.953478,75.1003953 C124.863104,75.4467419 118.1087,75.0342392 111.189367,74.4621835 C114.614514,69.2514177 117.836376,51.5643899 117.836376,51.5643899 C117.836376,51.5643899 130.110136,45.2873435 126.558417,41.757721 C123.006697,38.2280985 112.286335,49.6030561 112.286335,49.6030561 C112.286335,49.6030561 107.925314,62.550194 105.942335,66.4728615 C105.175225,68.0294757 104.181817,68.3485815 103.295805,68.1695709 C103.698538,67.842682 103.959355,67.6481052 103.959355,67.6481052 C103.959355,67.6481052 95.2373145,60.5849687 94.4433556,57.8414363 C94.295493,57.3919473 94.1000154,56.9600556 93.860352,56.5533381 C93.4422771,54.0666471 92.709687,51.6188714 90.9223206,49.9883181 C90.6221241,49.6613219 90.2906375,49.3654079 89.9327487,49.1049396 C89.4494694,48.7547014 88.9009857,48.4511617 88.4445553,48.0697912 C88.7015371,46.8711984 89.00071,45.6259071 89.3113896,44.4195311 C95.7857982,43.6412241 100.81804,38.1930747 100.81804,31.5774647 C100.817046,30.5798107 100.699889,29.585769 100.469005,28.6160064 C102.43716,28.7474789 104.329311,27.8230363 105.45522,26.1799053 C106.763143,24.2030054 106.720952,21.5100629 105.623984,19.4242 C105.170542,18.5773322 104.576232,17.8163608 103.867302,17.1748926 C102.737082,16.0199376 101.358643,15.1461715 99.8399747,14.6220455 C98.524381,14.1589528 97.0707075,13.8826538 96.0274378,12.9759261 C95.5612185,12.3573196 95.1370488,11.7072273 94.7578708,11.0301584 C94.3200687,10.3653777 93.8049535,9.75650911 93.2236507,9.21670301 C91.3058757,7.21256234 88.5979773,5.97894565 85.8402167,5.43413072 C82.4802748,4.76867818 79.009102,5.00606183 75.5916268,5.24344549 C74.3143887,5.3329508 72.8146886,5.56255138 72.239356,6.69109661 C71.8059389,7.5394513 72.0897696,8.55514201 72.0322363,9.50078508 C71.8519655,12.5089418 68.4613392,14.1706274 65.5118011,14.8983445 C62.5622631,15.6260616 59.0450637,16.2564903 57.6220746,18.8949512 C56.3294942,21.2765708 57.2385196,24.16409 57.652759,26.8375747 C58.3426873,31.5318129 57.3153438,36.3199283 54.7645897,40.2983953 C53.4681738,42.310319 51.7958739,44.1004252 50.7717821,46.2602273 C49.6372577,48.6679287 49.3738454,51.4038709 50.0276853,53.9888164 C50.2194628,54.7437742 50.4956225,55.5142982 50.3575427,56.2848222 C50.2005874,56.9201902 49.8924089,57.5067932 49.4600239,57.9932062 C45.8944601,62.4603292 40.6532636,65.2150948 35,65.5933746 C35.2348461,66.3834329 35.6937304,67.0858667 36.3194292,67.6130814 C37.1143352,68.4105872 38.0413235,69.0599932 39.058012,69.5316083 C41.7364369,70.8944631 44.5529279,71.9579085 47.4578668,72.7032095 C49.4139973,73.2052176 51.4583455,73.5632388 53.448996,73.2207837 C55.4396465,72.8783286 57.3804349,71.7225426 58.1974071,69.8935211 C58.6730153,68.8350235 58.7420552,67.6364306 59.1639657,66.5584753 C60.0039512,64.4025648 62.0866549,63.0055036 63.4943018,61.1570244 C63.0202918,65.9203827 62.7962351,70.7059427 62.8230805,75.4934403 C62.8230805,76.9916814 62.8230805,78.3420441 62.8230805,79.5951185 C62.8230805,85.000461 62.4395255,88.7285518 59.1371169,95.4803655 C58.7435465,96.1901086 58.5710474,97.0041412 58.6423309,97.8152867 C58.4962568,98.7068464 58.8242399,99.6105031 59.5053297,100.193015 C59.2751579,101.539733 59.1634871,102.904552 59.1716368,104.271344 C59.1256102,109.190244 60.7633901,115.79418 69.4470756,117.46754 L84.9081781,116.689233 C84.9081781,116.689233 106.71328,112.37352 112.658383,115.521772 C113.669409,115.739948 114.393204,116.644524 114.395887,117.693249 C114.377491,118.020445 114.327387,118.345008 114.246301,118.662241 C114.080672,119.681776 114.017701,120.715761 114.058359,121.748229 C114.03151,128.363839 115.435321,143.377382 115.435321,143.377382 L115.435321,149.743933 C114.445749,151.253849 113.226045,153.48759 113.383302,155.13371 C113.383302,155.168734 113.383302,155.207649 113.383302,155.242673 C113.383302,155.277697 113.383302,155.339961 113.406315,155.38666 C113.429329,155.433358 113.406315,155.472273 113.433164,155.51508 C113.460013,155.557887 113.456178,155.596802 113.467684,155.639609 C113.479191,155.682416 113.498369,155.733006 113.517546,155.775813 C113.536724,155.81862 113.544395,155.845861 113.559737,155.880885 C113.57508,155.915908 113.6096,155.982064 113.636448,156.028763 L113.682475,156.110485 C113.728606,156.185392 113.779873,156.256913 113.835897,156.32452 C115.818876,158.659441 125.726102,163.177513 128.901938,162.994611 C132.273386,162.800034 143.569081,163.383765 143.967979,158.285853 C144.018558,158.133797 144.008931,157.967751 143.94113,157.822761 Z" id="Shape" fill="url(#linearGradient-3)" fill-rule="nonzero"></path>
                    <path d="M116.191583,149.637214 C116.191583,149.637214 111.53165,155.699236 113.473289,158.124045 C115.414927,160.548854 125.123119,165.184281 128.229741,164.994338 C131.530526,164.79227 142.597865,165.398472 142.986193,160.144719 C142.986193,160.144719 143.762848,157.71991 133.666328,157.315776 C123.569809,156.911641 126.67643,146 126.67643,146 L116.191583,149.637214 Z" id="Shape" fill="#594C76" fill-rule="nonzero"></path>
                    <path d="M61.7442144,100.078079 C61.7442144,100.078079 57.0928746,116.205342 71.0468938,118.958777 L86.1637479,118.172082 C86.1637479,118.172082 107.482388,113.845255 113.296563,116.992038 C113.296563,116.992038 115.622233,117.385386 114.84701,120.532169 C114.071786,123.678952 116.009844,144.919738 116.009844,144.919738 L116.009844,152 C116.009844,152 129.18864,152 130.739087,150.426608 C130.739087,150.426608 129.576252,144.133042 130.739087,139.01952 C131.901922,133.905997 128.801029,117.778734 128.801029,117.778734 L128.494815,108.070908 C128.448569,105.628479 127.105488,103.402016 124.983054,102.249359 C124.249475,101.854722 123.433357,101.644301 122.603119,101.635736 C122.603119,101.635736 96.2455267,97.3089096 86.9428473,98.0956054 C77.6401679,98.8823012 61.7442144,100.078079 61.7442144,100.078079 Z" id="Shape" fill="#000000" fill-rule="nonzero" opacity="0.1"></path>
                    <path d="M61.7442144,99.0780787 C61.7442144,99.0780787 57.0928746,115.205342 71.0468938,117.958777 L86.1637479,117.172082 C86.1637479,117.172082 107.482388,112.845255 113.296563,115.992038 C113.296563,115.992038 115.622233,116.385386 114.84701,119.532169 C114.071786,122.678952 116.009844,143.919738 116.009844,143.919738 L116.009844,151 C116.009844,151 129.18864,151 130.739087,149.426608 C130.739087,149.426608 129.576252,143.133042 130.739087,138.01952 C131.901922,132.905997 128.801029,116.778734 128.801029,116.778734 L128.494815,107.070908 C128.448569,104.628479 127.105488,102.402016 124.983054,101.249359 C124.249475,100.854722 123.433357,100.644301 122.603119,100.635736 C122.603119,100.635736 96.2455267,96.3089096 86.9428473,97.0956054 C77.6401679,97.8823012 61.7442144,99.0780787 61.7442144,99.0780787 Z" id="Shape" fill="#8B9CD1" fill-rule="nonzero"></path>
                    <path d="M101.108296,67.4060617 C101.108296,67.4060617 104.216592,71.3308546 106.159278,67.4060617 C108.101963,63.4812687 112.37587,50.529452 112.37587,50.529452 C112.37587,50.529452 122.86637,39.1475525 126.363203,42.6798661 C129.860036,46.2121798 117.815388,52.4918485 117.815388,52.4918485 C117.815388,52.4918485 113.541481,76.4330855 109.656111,76.8255648 C105.770741,77.2180441 99.9426851,76.8255648 99.9426851,76.8255648 L98,72.5082925 L101.108296,67.4060617 Z" id="Shape" fill="#F8BDC5" fill-rule="nonzero"></path>
                    <path d="M101.108296,67.4060617 C101.108296,67.4060617 104.216592,71.3308546 106.159278,67.4060617 C108.101963,63.4812687 112.37587,50.529452 112.37587,50.529452 C112.37587,50.529452 122.86637,39.1475525 126.363203,42.6798661 C129.860036,46.2121798 117.815388,52.4918485 117.815388,52.4918485 C117.815388,52.4918485 113.541481,76.4330855 109.656111,76.8255648 C105.770741,77.2180441 99.9426851,76.8255648 99.9426851,76.8255648 L98,72.5082925 L101.108296,67.4060617 Z" id="Shape" fill="#000000" fill-rule="nonzero" opacity="0.05"></path>
                    <path d="M86.9677419,48 C86.9677419,48 93.9354839,56.1781468 94.7096774,58.9041957 C95.483871,61.6302446 104,68.6400847 104,68.6400847 C104,68.6400847 97.8064516,73.3133114 98.9677419,75.6499248 C100.129032,77.9865381 90.8387097,67.8612136 90.8387097,67.8612136 L80,51.8943556 L86.9677419,48 Z" id="Shape" fill="#EB6475" fill-rule="nonzero"></path>
                    <path d="M86.9677419,48 C86.9677419,48 93.9354839,56.1781468 94.7096774,58.9041957 C95.483871,61.6302446 104,68.6400847 104,68.6400847 C104,68.6400847 97.8064516,73.3133114 98.9677419,75.6499248 C100.129032,77.9865381 90.8387097,67.8612136 90.8387097,67.8612136 L80,51.8943556 L86.9677419,48 Z" id="Shape" fill="#000000" fill-rule="nonzero" opacity="0.1"></path>
                    <path d="M91,38.5189144 C91,38.5189144 87.6753149,50.0163805 87.6753149,54.3774884 C87.6753149,58.7385963 73.6377557,53.1880954 74.0071651,50.8093092 C74.3765746,48.4305231 82.1341731,39.7083074 82.5035826,36.1401283 C82.872992,32.5719491 91,38.5189144 91,38.5189144 Z" id="Shape" fill="#F8BDC5" fill-rule="nonzero"></path>
                    <path d="M80.2570846,47.2399233 C80.2570846,47.2399233 66.708025,43.7143837 64.772445,63.6924416 C62.8368651,83.6704996 66.320909,86.0208593 60.5141692,98.1643847 C54.7074293,110.30791 100,99.7312912 100,99.7312912 C100,99.7312912 97.6773041,96.9892049 90.3221003,98.1643847 L86.8380564,87.5877658 C86.8380564,87.5877658 85.6767084,82.8870463 92.2576802,82.8870463 C98.838652,82.8870463 95.7417241,69.1766144 95.7417241,69.1766144 C95.7417241,69.1766144 92.2576802,57.4248156 90.3221003,56.2496357 C88.3865203,55.0744558 84.9024764,48.0233766 80.2570846,47.2399233 Z" id="Shape" fill="#000000" fill-rule="nonzero" opacity="0.1"></path>
                    <path d="M80.2570846,46.2399233 C80.2570846,46.2399233 66.708025,42.7143837 64.772445,62.6924416 C62.8368651,82.6704996 66.320909,85.0208593 60.5141692,97.1643847 C54.7074293,109.30791 100,98.7312912 100,98.7312912 C100,98.7312912 97.6773041,95.9892049 90.3221003,97.1643847 L86.8380564,86.5877658 C86.8380564,86.5877658 85.6767084,81.8870463 92.2576802,81.8870463 C98.838652,81.8870463 95.7417241,68.1766144 95.7417241,68.1766144 C95.7417241,68.1766144 92.2576802,56.4248156 90.3221003,55.2496357 C88.3865203,54.0744558 84.9024764,47.0233766 80.2570846,46.2399233 Z" id="Shape" fill="#EB6475" fill-rule="nonzero"></path>
                    <path d="M92.9287424,74 C92.9287424,74 121.088382,77.4145389 125.717364,76.5609041 C125.717364,76.5609041 146.393483,73.7439096 141.147303,79.5486256 C140.761555,79.975443 127.260358,83.3899818 125.717364,82.9631645 C124.17437,82.5363471 91.3857485,82.9631645 91.3857485,82.9631645 L91,78.6949909 L92.9287424,74 Z" id="Shape" fill="#F8BDC5" fill-rule="nonzero"></path>
                    <path d="M71.1584311,65.1721274 L91.8583668,84 C91.8583668,84 95.764015,76.1550531 96.9357095,76.1550531 C98.107404,76.1550531 82.8753758,53.0124596 82.8753758,53.0124596 C82.8753758,53.0124596 78.9697276,48.3054915 76.6263387,50.6589755 C74.2829497,53.0124596 67.2527829,51.4434702 71.1584311,65.1721274 Z" id="Shape" fill="#000000" fill-rule="nonzero" opacity="0.1"></path>
                    <path d="M71.1584311,63.1721274 L91.8583668,82 C91.8583668,82 95.764015,74.1550531 96.9357095,74.1550531 C98.107404,74.1550531 82.8753758,51.0124596 82.8753758,51.0124596 C82.8753758,51.0124596 78.9697276,46.3054915 76.6263387,48.6589755 C74.2829497,51.0124596 67.2527829,49.4434702 71.1584311,63.1721274 Z" id="Shape" fill="#EB6475" fill-rule="nonzero"></path>
                    <ellipse id="Oval" fill="#F8BDC5" fill-rule="nonzero" cx="87.5" cy="33" rx="12.5" ry="13"></ellipse>
                    <path d="M98.9668941,29.9250212 C101.124811,30.7922006 103.768259,29.7523701 105.039889,27.7786542 C106.311518,25.8049382 106.272984,23.1170746 105.201732,21.0217181 C104.130481,18.9263616 102.149821,17.4038929 99.9649306,16.6112674 C98.6393531,16.132553 97.1634922,15.8578808 96.1461885,14.8690608 C95.5026669,14.2451626 95.121178,13.4015265 94.6395001,12.6402922 C92.8399516,9.78370129 89.6300503,8.09642921 86.3662011,7.43329204 C83.1023519,6.77015488 79.7267534,7.00558819 76.4051029,7.2410215 C75.1643007,7.33127094 73.7077068,7.55885648 73.1451071,8.68893638 C72.725084,9.53649631 72.998677,10.5527834 72.9447291,11.4984406 C72.771325,14.5080631 69.4766484,16.1757157 66.5981415,16.8977112 C63.7196346,17.6197067 60.3825703,18.2985394 58.9799244,20.9510881 C57.7237085,23.3328885 58.621556,26.2208704 59.0107518,28.8969624 C59.6762969,33.5714417 58.6815227,38.3343257 56.2054599,42.3284329 C54.9453906,44.3413878 53.3230995,46.1306809 52.325063,48.2927435 C51.2210367,50.7088272 50.9652934,53.437696 51.6006195,56.022804 C51.7894372,56.7801145 52.0553234,57.5491966 51.924307,58.3182788 C51.7732883,58.9503733 51.4745198,59.5359526 51.0534334,60.0251703 C47.6382293,64.4749331 42.5320533,67.2436544 37,67.6453619 C37.4392902,69.3287101 39.0384607,70.3920838 40.5605628,71.1768616 C43.157838,72.5371631 45.8950279,73.6004741 48.7221125,74.3473635 C50.62185,74.8496212 52.6102163,75.2066951 54.5446346,74.8653168 C56.4790529,74.5239385 58.3633767,73.3663914 59.1687421,71.5378593 C59.6311529,70.4784094 59.7005145,69.2816234 60.1089773,68.1986301 C61.0299454,65.7697431 63.4845758,64.3022088 64.8024464,62.0695162 C66.0625157,59.9349209 66.5519004,59.683792 66.8717345,57.21959 C67.1915686,54.755388 67.896745,52.0949915 69.8851113,50.6470767 C71.9659596,49.1285318 74.8945611,49.4188995 77.2066148,50.5842944 C79.5186686,51.7496893 80.9482885,51.2945183 82.8788534,53.0053337 C86.2655635,56.0011816 90.0559493,58.4879851 94.1347017,60.3900919 C93.7493594,56.9684611 93.1289584,53.1505176 90.4007349,51.1140194 C89.6300503,50.52936 88.6551343,50.0820367 88.2466715,49.1873901 C87.595443,47.7630186 88.7090823,46.0247359 88.2042839,44.5375822 C87.6994855,43.0504284 85.7804808,42.501084 84.9288744,41.1512664 C84.2044309,40.0054909 84.4009554,38.4477072 85.0791579,37.2705406 C85.7573603,36.093374 86.8286119,35.2222708 87.89601,34.3982542 C88.8439521,33.6684109 89.8047388,32.9555711 90.7783704,32.2597349 C91.6581732,31.6912262 92.4481316,30.9900188 93.1212515,30.180074 C93.5065938,29.6425012 93.7609197,28.4653347 94.2965455,28.0847175 C95.6452435,27.1351365 97.7183851,29.4266874 98.9668941,29.9250212 Z" id="Shape" fill="#000000" fill-rule="nonzero" opacity="0.1"></path>
                    <path d="M98.9668941,29.9250212 C101.124811,30.7922006 103.768259,29.7523701 105.039889,27.7786542 C106.311518,25.8049382 106.272984,23.1170746 105.201732,21.0217181 C104.130481,18.9263616 102.149821,17.4038929 99.9649306,16.6112674 C98.6393531,16.132553 97.1634922,15.8578808 96.1461885,14.8690608 C95.5026669,14.2451626 95.121178,13.4015265 94.6395001,12.6402922 C92.8399516,9.78370129 89.6300503,8.09642921 86.3662011,7.43329204 C83.1023519,6.77015488 79.7267534,7.00558819 76.4051029,7.2410215 C75.1643007,7.33127094 73.7077068,7.55885648 73.1451071,8.68893638 C72.725084,9.53649631 72.998677,10.5527834 72.9447291,11.4984406 C72.771325,14.5080631 69.4766484,16.1757157 66.5981415,16.8977112 C63.7196346,17.6197067 60.3825703,18.2985394 58.9799244,20.9510881 C57.7237085,23.3328885 58.621556,26.2208704 59.0107518,28.8969624 C59.6762969,33.5714417 58.6815227,38.3343257 56.2054599,42.3284329 C54.9453906,44.3413878 53.3230995,46.1306809 52.325063,48.2927435 C51.2210367,50.7088272 50.9652934,53.437696 51.6006195,56.022804 C51.7894372,56.7801145 52.0553234,57.5491966 51.924307,58.3182788 C51.7732883,58.9503733 51.4745198,59.5359526 51.0534334,60.0251703 C47.6382293,64.4749331 42.5320533,67.2436544 37,67.6453619 C37.4392902,69.3287101 39.0384607,70.3920838 40.5605628,71.1768616 C43.157838,72.5371631 45.8950279,73.6004741 48.7221125,74.3473635 C50.62185,74.8496212 52.6102163,75.2066951 54.5446346,74.8653168 C56.4790529,74.5239385 58.3633767,73.3663914 59.1687421,71.5378593 C59.6311529,70.4784094 59.7005145,69.2816234 60.1089773,68.1986301 C61.0299454,65.7697431 63.4845758,64.3022088 64.8024464,62.0695162 C66.0625157,59.9349209 66.5519004,59.683792 66.8717345,57.21959 C67.1915686,54.755388 67.896745,52.0949915 69.8851113,50.6470767 C71.9659596,49.1285318 74.8945611,49.4188995 77.2066148,50.5842944 C79.5186686,51.7496893 80.9482885,51.2945183 82.8788534,53.0053337 C86.2655635,56.0011816 90.0559493,58.4879851 94.1347017,60.3900919 C93.7493594,56.9684611 93.1289584,53.1505176 90.4007349,51.1140194 C89.6300503,50.52936 88.6551343,50.0820367 88.2466715,49.1873901 C87.595443,47.7630186 88.7090823,46.0247359 88.2042839,44.5375822 C87.6994855,43.0504284 85.7804808,42.501084 84.9288744,41.1512664 C84.2044309,40.0054909 84.4009554,38.4477072 85.0791579,37.2705406 C85.7573603,36.093374 86.8286119,35.2222708 87.89601,34.3982542 C88.8439521,33.6684109 89.8047388,32.9555711 90.7783704,32.2597349 C91.6581732,31.6912262 92.4481316,30.9900188 93.1212515,30.180074 C93.5065938,29.6425012 93.7609197,28.4653347 94.2965455,28.0847175 C95.6452435,27.1351365 97.7183851,29.4266874 98.9668941,29.9250212 Z" id="Shape" fill="#916168" fill-rule="nonzero"></path>
                    <g id="Group" opacity="0.1" transform="translate(113.000000, 145.000000)" fill="#FFFFFF" fill-rule="nonzero">
                        <path d="M13.3115385,3.218125 C13.3404427,2.16449031 13.4875727,1.11782386 13.75,0.0989583333 L13.5576923,0.16625 C13.3657437,1.17097307 13.2831829,2.19458131 13.3115385,3.218125 Z" id="Shape"></path>
                        <path d="M15.2884615,17.9114583 C12.2115385,18.0975 2.59615385,13.5572917 0.673076923,11.1822917 C0.420525819,10.8606655 0.265380495,10.4697484 0.226923077,10.058125 C0.112913447,10.7327199 0.274325497,11.4258409 0.673076923,11.9739583 C2.59615385,14.3489583 12.2115385,18.8891667 15.2884615,18.703125 C18.5576923,18.5052083 29.5192308,19.0989583 29.9038462,13.953125 C29.9325534,13.8110227 29.9135702,13.6631009 29.85,13.5335417 C28.9692308,18.275625 18.4769231,17.7175 15.2884615,17.9114583 Z" id="Shape"></path>
                    </g>
                    <rect id="Rectangle-path" stroke="#FFAB50" stroke-width="0.25" fill="#FFD77C" fill-rule="nonzero" x="143" y="47" width="1" height="16"></rect>
                    <rect id="Rectangle-path" stroke="#FFAB50" stroke-width="0.25" fill="#FFD77C" fill-rule="nonzero" x="144" y="47" width="1" height="16"></rect>
                    <rect id="Rectangle-path" stroke="#FFAB50" stroke-width="0.25" fill="#FFD77C" fill-rule="nonzero" x="144" y="47" width="1" height="16"></rect>
                    <rect id="Rectangle-path" stroke="#FFAB50" stroke-width="0.25" fill="#FFD77C" fill-rule="nonzero" x="144" y="47" width="1" height="16"></rect>
                    <rect id="Rectangle-path" stroke="#FFAB50" stroke-width="0.25" fill="#FFD77C" fill-rule="nonzero" x="145" y="47" width="1" height="16"></rect>
                    <rect id="Rectangle-path" stroke="#FFAB50" stroke-width="0.25" fill="#FFD77C" fill-rule="nonzero" x="145" y="47" width="1" height="16"></rect>
                    <rect id="Rectangle-path" stroke="#FFAB50" stroke-width="0.25" fill="#FFD77C" fill-rule="nonzero" x="146" y="47" width="1" height="16"></rect>
                </g>
            </g>
        </g>
    </g>
</svg>