<?xml version="1.0" encoding="UTF-8"?>
<svg width="820px" height="731px" viewBox="0 0 820 731" version="1.1" xmlns="http://www.w3.org/2000/svg" xmlns:xlink="http://www.w3.org/1999/xlink">
    <!-- Generator: Sketch 51.2 (57519) - http://www.bohemiancoding.com/sketch -->
    <title>dinner-image</title>
    <desc>Created with Sketch.</desc>
    <defs>
        <linearGradient x1="50.0019248%" y1="100.003446%" x2="50.0019248%" y2="7.46780926e-06%" id="linearGradient-1">
            <stop stop-color="#808080" stop-opacity="0.4" offset="20%"></stop>
            <stop stop-color="#808080" stop-opacity="0.5" offset="46%"></stop>
            <stop stop-color="#000000" stop-opacity="0.6" offset="100%"></stop>
        </linearGradient>
        <linearGradient x1="50.0074192%" y1="99.968887%" x2="50.0074192%" y2="-0.00948624884%" id="linearGradient-2">
            <stop stop-color="#808080" stop-opacity="0.25" offset="0%"></stop>
            <stop stop-color="#808080" stop-opacity="0.12" offset="54%"></stop>
            <stop stop-color="#808080" stop-opacity="0.1" offset="100%"></stop>
        </linearGradient>
        <linearGradient x1="49.9895271%" y1="100.011301%" x2="49.9895271%" y2="1.33137805e-14%" id="linearGradient-3">
            <stop stop-color="#808080" stop-opacity="0.25" offset="0%"></stop>
            <stop stop-color="#808080" stop-opacity="0.12" offset="54%"></stop>
            <stop stop-color="#808080" stop-opacity="0.1" offset="100%"></stop>
        </linearGradient>
        <linearGradient x1="50.0064244%" y1="99.9694963%" x2="50.0064244%" y2="-0.0281823568%" id="linearGradient-4">
            <stop stop-color="#808080" stop-opacity="0.25" offset="0%"></stop>
            <stop stop-color="#808080" stop-opacity="0.12" offset="54%"></stop>
            <stop stop-color="#808080" stop-opacity="0.1" offset="100%"></stop>
        </linearGradient>
    </defs>
    <g id="Page-1" stroke="none" stroke-width="1" fill="none" fill-rule="evenodd">
        <g id="Desktop" transform="translate(-172.000000, -58.000000)">
            <g id="dinner-image" transform="translate(172.000000, 58.000000)">
                <g id="undraw_working_late_pukg-(1)" fill-rule="nonzero">
                    <path d="M818,450.212102 C818,487.113329 637.455085,623 411.973529,623 C186.491973,623 9,478.189503 9,441.288275 C9,404.387048 186.491973,489.350523 411.973529,489.350523 C637.455085,489.350523 818,413.277607 818,450.212102 Z" id="Shape" fill-opacity="0.276636096" fill="#8591B0"></path>
                    <path d="M820,435.479297 C820,435.970686 820,436.462076 820,436.961794 C819.504966,452.319794 811.916907,467.594508 798.070732,478.380088 C783.38226,489.806973 763.684339,495.820246 743.46183,499.659746 C740.299523,500.259408 737.122439,500.800769 733.952744,501.325473 C732.334648,501.575332 730.72394,501.825191 729.120621,502.058393 C684.10208,508.7213 638.137802,509.995581 592.387793,511.21989 C544.532042,512.552471 496.631959,513.868395 448.724488,514.551343 L439.22279,514.676273 C366.534064,515.559108 293.874892,514.817859 221.452155,510.170482 C198.976133,508.737957 176.278454,506.839029 153.994534,503.640833 C150.81745,503.202192 147.650218,502.721907 144.492837,502.19998 C114.938567,497.427673 86.263537,490.106804 60.1375627,478.221844 C53.9702089,475.44667 47.9376102,472.305149 42.0651268,468.810488 C25.6551186,458.991029 11.8163319,446.573037 4.9671299,431.331637 C0.982879897,422.395875 -0.657523486,412.36442 0.238446762,402.414622 C0.531485037,398.79757 1.08248319,395.212998 1.88609729,391.695671 C3.94606016,382.99281 7.0877687,374.662163 11.2178579,366.951301 C21.8869492,346.612778 37.9127519,328.381399 51.729373,309.283843 C81.2245341,268.581811 100.434809,217.152499 73.215327,175.434374 C65.4056112,163.44947 54.1158803,152.947064 47.7543237,140.41247 C44.351191,133.641234 42.2280184,126.149382 41.5183728,118.408221 C41.1730157,114.849325 41.0421842,111.268124 41.1267788,107.689269 C41.4285935,99.3319557 42.3554522,91.0182508 43.8974915,82.836627 C48.330632,57.251065 56.613216,29.6666309 82.1924364,13.7089692 C99.6516212,2.81511657 121.905986,-0.566308617 144.470671,0.0749961605 C147.637904,0.158282495 150.805136,0.324855165 153.972369,0.574714169 C162.624381,1.21601895 171.224674,2.3986849 179.529423,3.90616756 C230.835635,13.1426221 278.188964,32.4400658 325.992995,49.8635671 C362.389078,63.1227516 400.085549,75.5240868 439.200625,81.4374166 C442.362932,81.9121487 445.525238,82.3535663 448.702322,82.7366834 C457.871534,83.8693775 467.122021,84.6189546 476.446393,84.927114 C522.853985,86.426268 576.997407,75.0993265 607.815121,45.6825931 C637.583659,17.2486384 693.411675,14.9582642 733.930578,31.9403478 L734.536441,32.1985355 C737.585456,33.5089071 740.540883,34.9192224 743.402722,36.4294813 C773.259923,52.2538849 793.260775,79.3552582 796.083207,107.714255 C796.436386,111.23651 796.520433,114.786459 796.334419,118.324934 C796.33836,118.360888 796.33836,118.397252 796.334419,118.433206 C794.398614,153.321852 769.100159,182.621985 743.41011,211.972089 C740.233026,215.595045 737.048554,219.218 733.901024,222.865942 C725.56672,232.510499 717.491016,242.230014 710.486654,252.232703 C707.288115,256.766492 704.346547,261.523263 701.679482,266.474666 C699.228262,271.041583 697.134322,275.840326 695.421365,280.816573 C693.614656,285.968067 692.453343,291.37814 691.970904,296.890836 C691.250765,304.792735 692.531666,312.762916 695.665188,319.877864 L695.731685,320.044437 C702.588275,335.369123 717.099422,346.229661 733.901024,355.857561 C736.996834,357.639888 740.181306,359.372244 743.41011,361.087943 C761.630318,370.782472 781.261741,379.785725 796.186647,391.753971 C800.210084,394.90831 803.964835,398.477197 807.402493,402.414622 C808.802009,404.047666 810.123945,405.762983 811.362765,407.553389 C816.8125,415.315071 819.845069,424.882523 819.992611,434.779692 C820,435.029551 820,435.254424 820,435.479297 Z" id="Shape" fill="#32CCBC"></path>
                    <path d="M820,435.479297 C820,435.970686 820,436.462076 820,436.961794 C819.504966,452.319794 811.916907,467.594508 798.070732,478.380088 C783.38226,489.806973 763.684339,495.820246 743.46183,499.659746 C740.299523,500.259408 737.122439,500.800769 733.952744,501.325473 C732.334648,501.575332 730.72394,501.825191 729.120621,502.058393 C684.10208,508.7213 638.137802,509.995581 592.387793,511.21989 C544.532042,512.552471 496.631959,513.868395 448.724488,514.551343 L439.22279,514.676273 C366.534064,515.559108 293.874892,514.817859 221.452155,510.170482 C198.976133,508.737957 176.278454,506.839029 153.994534,503.640833 C150.81745,503.202192 147.650218,502.721907 144.492837,502.19998 C114.938567,497.427673 86.263537,490.106804 60.1375627,478.221844 C53.9702089,475.44667 47.9376102,472.305149 42.0651268,468.810488 C25.6551186,458.991029 11.8163319,446.573037 4.9671299,431.331637 C0.982879897,422.395875 -0.657523486,412.36442 0.238446762,402.414622 C0.531485037,398.79757 1.08248319,395.212998 1.88609729,391.695671 C3.94606016,382.99281 7.0877687,374.662163 11.2178579,366.951301 C21.8869492,346.612778 37.9127519,328.381399 51.729373,309.283843 C81.2245341,268.581811 100.434809,217.152499 73.215327,175.434374 C65.4056112,163.44947 54.1158803,152.947064 47.7543237,140.41247 C44.351191,133.641234 42.2280184,126.149382 41.5183728,118.408221 C41.1730157,114.849325 41.0421842,111.268124 41.1267788,107.689269 C41.4285935,99.3319557 42.3554522,91.0182508 43.8974915,82.836627 C48.330632,57.251065 56.613216,29.6666309 82.1924364,13.7089692 C99.6516212,2.81511657 121.905986,-0.566308617 144.470671,0.0749961605 C147.637904,0.158282495 150.805136,0.324855165 153.972369,0.574714169 C162.624381,1.21601895 171.224674,2.3986849 179.529423,3.90616756 C230.835635,13.1426221 278.188964,32.4400658 325.992995,49.8635671 C362.389078,63.1227516 400.085549,75.5240868 439.200625,81.4374166 C442.362932,81.9121487 445.525238,82.3535663 448.702322,82.7366834 C457.871534,83.8693775 467.122021,84.6189546 476.446393,84.927114 C522.853985,86.426268 576.997407,75.0993265 607.815121,45.6825931 C637.583659,17.2486384 693.411675,14.9582642 733.930578,31.9403478 L734.536441,32.1985355 C737.585456,33.5089071 740.540883,34.9192224 743.402722,36.4294813 C773.259923,52.2538849 793.260775,79.3552582 796.083207,107.714255 C796.436386,111.23651 796.520433,114.786459 796.334419,118.324934 C796.33836,118.360888 796.33836,118.397252 796.334419,118.433206 C794.398614,153.321852 769.100159,182.621985 743.41011,211.972089 C740.233026,215.595045 737.048554,219.218 733.901024,222.865942 C725.56672,232.510499 717.491016,242.230014 710.486654,252.232703 C707.288115,256.766492 704.346547,261.523263 701.679482,266.474666 C699.228262,271.041583 697.134322,275.840326 695.421365,280.816573 C693.614656,285.968067 692.453343,291.37814 691.970904,296.890836 C691.250765,304.792735 692.531666,312.762916 695.665188,319.877864 L695.731685,320.044437 C702.588275,335.369123 717.099422,346.229661 733.901024,355.857561 C736.996834,357.639888 740.181306,359.372244 743.41011,361.087943 C761.630318,370.782472 781.261741,379.785725 796.186647,391.753971 C800.210084,394.90831 803.964835,398.477197 807.402493,402.414622 C808.802009,404.047666 810.123945,405.762983 811.362765,407.553389 C816.8125,415.315071 819.845069,424.882523 819.992611,434.779692 C820,435.029551 820,435.254424 820,435.479297 Z" id="Shape" fill="url(#linearGradient-1)"></path>
                    <path d="M743,36.4908829 L743,212.09357 C739.993007,215.726269 736.979021,219.350637 734,223 L734,32 L743,36.4908829 Z" id="Shape" fill="#3F3D56"></path>
                    <path d="M796.903714,117.89899 C796.90738,117.93255 796.90738,117.96644 796.903714,118 L41.4167148,118 C41.0713843,114.679785 40.9404438,111.338808 41.0247919,108 L796.652292,108 C797.005877,111.285999 797.089994,114.597852 796.903714,117.89899 Z" id="Shape" fill="#3F3D56"></path>
                    <circle id="Oval" fill="#E7EFFD" cx="178" cy="59" r="3"></circle>
                    <circle id="Oval" fill="#E7EFFD" cx="89" cy="54" r="3"></circle>
                    <circle id="Oval" fill="#E7EFFD" cx="209" cy="60" r="1"></circle>
                    <circle id="Oval" fill="#E7EFFD" cx="120" cy="56" r="1"></circle>
                    <circle id="Oval" fill="#E7EFFD" cx="119" cy="150" r="1"></circle>
                    <circle id="Oval" fill="#E7EFFD" cx="667" cy="79" r="1"></circle>
                    <circle id="Oval" fill="#E7EFFD" cx="265" cy="80" r="1"></circle>
                    <circle id="Oval" fill="#E7EFFD" cx="608" cy="78" r="1"></circle>
                    <circle id="Oval" fill="#E7EFFD" cx="759" cy="82" r="1"></circle>
                    <path d="M820,435.953901 C820,436.446197 820,436.938493 820,437.439134 C819.623152,452.942301 812.019679,468.403747 798.068896,479.284333 C783.379194,490.732312 763.679625,496.756686 743.455423,500.603273 C740.292851,501.204042 737.115501,501.746402 733.94554,502.272075 C732.327309,502.522395 730.716466,502.772715 729.113013,503.006348 C718.029234,504.675149 706.886341,505.951782 695.706503,507.019815 C680.706456,508.454985 665.632516,509.447922 650.543798,510.182194 C631.169353,511.141755 611.757961,511.684116 592.368737,512.226476 C554.469603,513.277821 516.540911,514.329166 478.575274,515.055095 L465.104788,515.305415 L448.671238,515.555735 L439.168745,515.680896 C379.316339,516.39848 319.552603,516.031344 259.892315,513.277821 C255.92186,513.099816 251.958793,512.905122 248.003115,512.693741 C239.136092,512.25429 230.269069,511.745305 221.402046,511.166787 C203.631054,510.032002 185.719667,508.596833 168.000399,506.469111 C163.300877,505.912844 158.621059,505.298168 153.960946,504.625085 C150.783596,504.185634 147.616098,503.704463 144.458452,503.181572 C140.9412,502.625305 137.438726,502.018973 133.95103,501.362578 C108.088879,496.589806 83.1208198,489.680967 60.0961164,479.150829 C53.922901,476.356271 47.8826902,473.200748 42,469.697068 L42,322.84253 C45.2807986,318.545366 48.5394296,314.248202 51.6724444,309.900974 C55.4409293,304.677625 59.0616304,299.29574 62.386764,293.772007 L133.914084,293.772007 L133.914084,244 L259.899705,244 L259.899705,353.423319 L465.104788,353.423319 L465.104788,266.645637 L701.854306,266.645637 C699.449452,271.073945 697.37576,275.720967 695.654779,280.53841 L695.654779,281.005675 L695.381379,281.005675 C693.574519,286.166678 692.413109,291.586738 691.930629,297.10961 C691.21043,305.026096 692.491438,313.01099 695.625222,320.139072 L695.625222,320.48952 L695.691725,320.6564 C702.548889,336.009375 717.06125,346.889961 733.864259,356.535634 C736.960328,358.321252 740.145067,360.056805 743.374142,361.775671 C761.411145,371.387968 780.844704,380.332744 795.711746,392.147859 L796.155097,392.498308 C800.069564,395.56446 803.73209,399.021659 807.098481,402.828189 C807.209319,402.945006 807.305379,403.061822 807.401438,403.178638 C808.801071,404.814696 810.123118,406.53318 811.362042,408.326891 C816.745289,416.009989 819.773975,425.459044 819.992611,435.253004 C820,435.503324 820,435.728612 820,435.953901 Z" id="Shape" fill="#32CCBC"></path>
                    <path d="M820,435.953901 C820,436.446197 820,436.938493 820,437.439134 C819.623152,452.942301 812.019679,468.403747 798.068896,479.284333 C783.379194,490.732312 763.679625,496.756686 743.455423,500.603273 C740.292851,501.204042 737.115501,501.746402 733.94554,502.272075 C732.327309,502.522395 730.716466,502.772715 729.113013,503.006348 C718.029234,504.675149 706.886341,505.951782 695.706503,507.019815 C680.706456,508.454985 665.632516,509.447922 650.543798,510.182194 C631.169353,511.141755 611.757961,511.684116 592.368737,512.226476 C554.469603,513.277821 516.540911,514.329166 478.575274,515.055095 L465.104788,515.305415 L448.671238,515.555735 L439.168745,515.680896 C379.316339,516.39848 319.552603,516.031344 259.892315,513.277821 C255.92186,513.099816 251.958793,512.905122 248.003115,512.693741 C239.136092,512.25429 230.269069,511.745305 221.402046,511.166787 C203.631054,510.032002 185.719667,508.596833 168.000399,506.469111 C163.300877,505.912844 158.621059,505.298168 153.960946,504.625085 C150.783596,504.185634 147.616098,503.704463 144.458452,503.181572 C140.9412,502.625305 137.438726,502.018973 133.95103,501.362578 C108.088879,496.589806 83.1208198,489.680967 60.0961164,479.150829 C53.922901,476.356271 47.8826902,473.200748 42,469.697068 L42,322.84253 C45.2807986,318.545366 48.5394296,314.248202 51.6724444,309.900974 C55.4409293,304.677625 59.0616304,299.29574 62.386764,293.772007 L133.914084,293.772007 L133.914084,244 L259.899705,244 L259.899705,353.423319 L465.104788,353.423319 L465.104788,266.645637 L701.854306,266.645637 C699.449452,271.073945 697.37576,275.720967 695.654779,280.53841 L695.654779,281.005675 L695.381379,281.005675 C693.574519,286.166678 692.413109,291.586738 691.930629,297.10961 C691.21043,305.026096 692.491438,313.01099 695.625222,320.139072 L695.625222,320.48952 L695.691725,320.6564 C702.548889,336.009375 717.06125,346.889961 733.864259,356.535634 C736.960328,358.321252 740.145067,360.056805 743.374142,361.775671 C761.411145,371.387968 780.844704,380.332744 795.711746,392.147859 L796.155097,392.498308 C800.069564,395.56446 803.73209,399.021659 807.098481,402.828189 C807.209319,402.945006 807.305379,403.061822 807.401438,403.178638 C808.801071,404.814696 810.123118,406.53318 811.362042,408.326891 C816.745289,416.009989 819.773975,425.459044 819.992611,435.253004 C820,435.503324 820,435.728612 820,435.953901 Z" id="Shape" fill="#000000" opacity="0.3"></path>
                    <rect id="Rectangle-path" fill="#000000" opacity="0.4" x="66" y="314" width="21" height="16"></rect>
                    <rect id="Rectangle-path" fill="#000000" opacity="0.4" x="100" y="314" width="21" height="16"></rect>
                    <rect id="Rectangle-path" fill="#000000" opacity="0.4" x="487" y="281" width="21" height="16"></rect>
                    <rect id="Rectangle-path" fill="#000000" opacity="0.4" x="544" y="281" width="21" height="16"></rect>
                    <rect id="Rectangle-path" fill="#000000" opacity="0.4" x="606" y="281" width="21" height="16"></rect>
                    <rect id="Rectangle-path" fill="#000000" opacity="0.4" x="487" y="331" width="21" height="16"></rect>
                    <rect id="Rectangle-path" fill="#000000" opacity="0.4" x="544" y="331" width="21" height="16"></rect>
                    <rect id="Rectangle-path" fill="#32CCBC" x="606" y="331" width="21" height="16"></rect>
                    <rect id="Rectangle-path" fill="#000000" opacity="0.4" x="487" y="379" width="21" height="16"></rect>
                    <rect id="Rectangle-path" fill="#000000" opacity="0.4" x="544" y="379" width="21" height="16"></rect>
                    <rect id="Rectangle-path" fill="#000000" opacity="0.4" x="606" y="379" width="21" height="16"></rect>
                    <rect id="Rectangle-path" fill="#000000" opacity="0.4" x="487" y="428" width="21" height="16"></rect>
                    <rect id="Rectangle-path" fill="#000000" opacity="0.4" x="544" y="428" width="21" height="16"></rect>
                    <rect id="Rectangle-path" fill="#000000" opacity="0.4" x="606" y="428" width="21" height="16"></rect>
                    <rect id="Rectangle-path" fill="#000000" opacity="0.4" x="487" y="478" width="21" height="16"></rect>
                    <rect id="Rectangle-path" fill="#000000" opacity="0.4" x="544" y="478" width="21" height="16"></rect>
                    <rect id="Rectangle-path" fill="#000000" opacity="0.4" x="606" y="478" width="21" height="16"></rect>
                    <path d="M695,281 C693.19847,286.127694 692.040487,291.512773 691.55943,297 L680,297 L680,281 L695,281 Z" id="Shape" fill="#000000" opacity="0.4"></path>
                    <rect id="Rectangle-path" fill="#32CCBC" x="680" y="331" width="21" height="16"></rect>
                    <rect id="Rectangle-path" fill="#000000" opacity="0.4" x="680" y="379" width="21" height="16"></rect>
                    <rect id="Rectangle-path" fill="#000000" opacity="0.4" x="680" y="428" width="21" height="16"></rect>
                    <rect id="Rectangle-path" fill="#000000" opacity="0.4" x="680" y="478" width="21" height="16"></rect>
                    <rect id="Rectangle-path" fill="#000000" opacity="0.4" x="182" y="263" width="21" height="16"></rect>
                    <rect id="Rectangle-path" fill="#32CCBC" x="182" y="298" width="21" height="16"></rect>
                    <rect id="Rectangle-path" fill="#000000" opacity="0.4" x="182" y="334" width="21" height="16"></rect>
                    <rect id="Rectangle-path" fill="#000000" opacity="0.4" x="182" y="371" width="21" height="16"></rect>
                    <rect id="Rectangle-path" fill="#000000" opacity="0.4" x="182" y="407" width="21" height="16"></rect>
                    <rect id="Rectangle-path" fill="#000000" opacity="0.4" x="182" y="442" width="21" height="16"></rect>
                    <rect id="Rectangle-path" fill="#000000" opacity="0.4" x="182" y="479" width="21" height="16"></rect>
                    <rect id="Rectangle-path" fill="#000000" opacity="0.4" x="66" y="356" width="21" height="16"></rect>
                    <rect id="Rectangle-path" fill="#000000" opacity="0.4" x="100" y="356" width="21" height="16"></rect>
                    <rect id="Rectangle-path" fill="#000000" opacity="0.4" x="66" y="398" width="21" height="16"></rect>
                    <rect id="Rectangle-path" fill="#000000" opacity="0.4" x="100" y="398" width="21" height="16"></rect>
                    <rect id="Rectangle-path" fill="#000000" opacity="0.4" x="66" y="440" width="21" height="16"></rect>
                    <rect id="Rectangle-path" fill="#000000" opacity="0.4" x="100" y="440" width="21" height="16"></rect>
                    <rect id="Rectangle-path" fill="#000000" opacity="0.4" x="302" y="372" width="105" height="14"></rect>
                    <rect id="Rectangle-path" fill="#000000" opacity="0.4" x="302" y="418" width="105" height="14"></rect>
                    <rect id="Rectangle-path" fill="#000000" opacity="0.4" x="302" y="464" width="105" height="14"></rect>
                    <path d="M153,0.500165399 L153,504 C149.990669,503.560966 146.990669,503.080251 144,502.557856 L144,0 C147.002333,0.0666887198 149.997667,0.250082699 153,0.500165399 Z" id="Shape" fill-opacity="0.276636096" fill="#8591B0"></path>
                    <path d="M448,83.3067489 L448,514.875151 L439,515 L439,82 C441.995334,82.482748 444.995334,82.918331 448,83.3067489 Z" id="Shape" fill-opacity="0.276636096" fill="#8591B0"></path>
                    <path d="M808,402 L0,402 C0.293341765,398.625555 0.844910569,395.28141 1.64935695,392 L796.802124,392 C800.824898,394.957188 804.57403,398.305262 808,402 Z" id="Shape" fill-opacity="0.276636096" fill="#8591B0"></path>
                    <path d="M734,356 C736.93007,357.776188 739.944056,359.502576 743,361.212364 L743,499.340011 C740.006993,499.937607 737,500.477104 734,501 L734,356 Z" id="Shape" fill="#3F3D56"></path>
                    <polygon id="Shape" fill="#E7EFFD" points="250 192.294776 247.705224 192.294776 247.705224 190 247.294776 190 247.294776 192.294776 245 192.294776 245 192.705224 247.294776 192.705224 247.294776 195 247.705224 195 247.705224 192.705224 250 192.705224"></polygon>
                    <polygon id="Shape" fill="#E7EFFD" points="628 149.294776 625.705224 149.294776 625.705224 147 625.285448 147 625.285448 149.294776 623 149.294776 623 149.705224 625.285448 149.705224 625.285448 152 625.705224 152 625.705224 149.705224 628 149.705224"></polygon>
                    <polygon id="Shape" fill="#E7EFFD" points="293 140.294776 290.705224 140.294776 290.705224 138 290.285448 138 290.285448 140.294776 288 140.294776 288 140.714552 290.285448 140.714552 290.285448 143 290.705224 143 290.705224 140.714552 293 140.714552"></polygon>
                    <circle id="Oval" fill="#E7EFFD" cx="289" cy="272" r="1"></circle>
                    <circle id="Oval" fill="#E7EFFD" cx="561" cy="152" r="1"></circle>
                    <circle id="Oval" fill="#E7EFFD" cx="680" cy="215" r="1"></circle>
                    <circle id="Oval" fill="#E7EFFD" cx="493" cy="227" r="1"></circle>
                    <path d="M459,376.012195 C459,375.010889 459,374.001307 459,373 C459.692723,373.678571 459.591204,374.74608 459,376.00392 L459,376.012195 Z M459.20304,397.138937 C459.722582,398.082317 460.224209,398.942944 460.582515,399.621516 C461.96199,402.104094 459.465797,403.262631 459.644949,407.375436 C459.686752,408.29399 459.746469,409.576655 459.806187,411 C459.54343,405.066638 459.328446,400.184233 459.20304,397.130662 L459.20304,397.138937 Z" id="Shape" fill="url(#linearGradient-2)"></path>
                    <path d="M286,499 C286,499 322.07929,502.542994 332,509 L286,499 Z" id="Shape" fill="#000000" opacity="0.1"></path>
                    <path d="M514,472 C514,472 485.263216,480.092784 474,492 L514,472 Z" id="Shape" fill="#000000" opacity="0.1"></path>
                    <path d="M288,489 C288.603611,489.231922 305.397748,491.800904 304.992794,493.665201 C304.587839,495.529497 288,489 288,489 Z" id="Shape" fill="#000000" opacity="0.1"></path>
                    <path d="M308,398 C308.566551,399.144524 325.82843,401.49473 326.954361,405.225354 C328.080291,408.955978 308,398 308,398 Z" id="Shape" fill="#000000" opacity="0.1"></path>
                    <path d="M302,415 C302,415 304.28666,406.689128 309.692129,408.178736 C315.097598,409.668344 302,415 302,415 Z" id="Shape" fill="#000000" opacity="0.1"></path>
                    <path d="M300,427 C300,427 304.126584,416.213628 309.760269,417.045788 C315.393954,417.877947 300,427 300,427 Z" id="Shape" fill="#000000" opacity="0.1"></path>
                    <path d="M481,371 C481,371 490.675944,368.75 490.992841,371 C491.309739,373.25 481,371 481,371 Z" id="Shape" fill="#000000" opacity="0.1"></path>
                    <path d="M469,379.460719 C469,379.460719 483.11571,376.64441 484.876428,378.832879 C486.637145,381.021349 469,379.460719 469,379.460719 Z" id="Shape" fill="#000000" opacity="0.1"></path>
                    <path d="M466,388.23532 C466,388.23532 487.546929,384.526048 488.942219,389.962538 C490.337508,395.399028 466,388.23532 466,388.23532 Z" id="Shape" fill="#000000" opacity="0.1"></path>
                    <path d="M469,398 C469.757109,398.220246 488.619937,399.770441 488.994887,403.980534 C489.369836,408.190626 469,398 469,398 Z" id="Shape" fill="#000000" opacity="0.1"></path>
                    <path d="M342,347 C342,347 357.789971,360.348926 370,350.178703 C370,350.178703 349.358362,352.25177 342,347 Z" id="Shape" fill="#000000" opacity="0.1"></path>
                    <path d="M422,350 C422,350 437.786765,363.353414 450,353.173572 C450,353.173572 429.360294,355.256737 422,350 Z" id="Shape" fill="#000000" opacity="0.1"></path>
                    <path d="M611.47785,468 C611.47785,468 606.506886,494.820237 628.630972,498 L630,495.023742 C630,495.023742 612.868842,476.369135 611.47785,468 Z" id="Shape" fill="#32CCBC"></path>
                    <path d="M637,494.633333 L631.926043,495.875 L631.418647,496 C631.418647,496 617.827692,483.316667 618.001656,455 C619.82049,459.172197 621.993522,463.12753 624.489072,466.808333 C629.860218,475 635.985209,485.941667 637,494.633333 Z" id="Shape" fill="#32CCBC"></path>
                    <path d="M637.512332,497.405519 C636.672273,498.01312 635.632185,498.164051 634.6815,497.816313 C621.201347,494.278458 625.732176,445 625.732176,445 C626.481073,445.394026 627.297372,451.706833 630.405296,459.755033 C635.857269,473.998671 641.848448,493.83413 637.512332,497.405519 Z" id="Shape" fill="#32CCBC"></path>
                    <path d="M667.995506,468 C667.995506,468 668.865646,494.820237 646.390737,498 L645,495.023742 C645,495.023742 666.604769,476.369135 667.995506,468 Z" id="Shape" fill="#32CCBC"></path>
                    <path d="M661.998884,455 C662.164705,483.333333 643.80375,496 643.80375,496 L643.276136,495.875 L638,494.633333 C639.04769,485.941667 645.431815,475 651.02452,466.808333 C654.188145,462.346926 657.87924,458.375335 661.998884,455 Z" id="Shape" fill="#32CCBC"></path>
                    <path d="M643.178844,494.84982 C642.392027,495.956093 641.396217,496.840233 640.267571,497.434622 C639.923857,497.612881 639.565407,497.750653 639.197678,497.845841 C635.966166,498.685062 634.830769,496.033122 635.020002,491.467758 C635.325686,483.335702 639.758098,469.236783 643.75382,458.738123 C646.621424,451.134777 651.301295,445.377718 652,445.000034 C651.956331,444.958108 651.75982,483.386056 643.178844,494.84982 Z" id="Shape" fill="#32CCBC"></path>
                    <path d="M639.024268,427 C639.024268,427 624.654858,486.287364 637.020395,495.231078 C649.385932,504.174792 642.197661,432.251735 639.024268,427 Z" id="Shape" fill="#32CCBC"></path>
                    <path d="M611.47785,468 C611.47785,468 606.506886,494.820237 628.630972,498 L630,495.023742 C630,495.023742 612.868842,476.369135 611.47785,468 Z" id="Shape" fill="#000000" opacity="0.1"></path>
                    <path d="M637,494.633333 L631.926043,495.875 L631.418647,496 C631.418647,496 617.827692,483.316667 618.001656,455 C619.82049,459.172197 621.993522,463.12753 624.489072,466.808333 C629.860218,475 635.985209,485.941667 637,494.633333 Z" id="Shape" fill="#000000" opacity="0.1"></path>
                    <path d="M637.512332,497.405519 C636.672273,498.01312 635.632185,498.164051 634.6815,497.816313 C621.201347,494.278458 625.732176,445 625.732176,445 C626.481073,445.394026 627.297372,451.706833 630.405296,459.755033 C635.857269,473.998671 641.848448,493.83413 637.512332,497.405519 Z" id="Shape" fill="#000000" opacity="0.1"></path>
                    <path d="M667.995506,468 C667.995506,468 668.865646,494.820237 646.390737,498 L645,495.023742 C645,495.023742 666.604769,476.369135 667.995506,468 Z" id="Shape" fill="#000000" opacity="0.1"></path>
                    <path d="M661.998884,455 C662.164705,483.333333 643.80375,496 643.80375,496 L643.276136,495.875 L638,494.633333 C639.04769,485.941667 645.431815,475 651.02452,466.808333 C654.188145,462.346926 657.87924,458.375335 661.998884,455 Z" id="Shape" fill="#000000" opacity="0.1"></path>
                    <path d="M643.178844,494.84982 C642.392027,495.956093 641.396217,496.840233 640.267571,497.434622 C639.923857,497.612881 639.565407,497.750653 639.197678,497.845841 C635.966166,498.685062 634.830769,496.033122 635.020002,491.467758 C635.325686,483.335702 639.758098,469.236783 643.75382,458.738123 C646.621424,451.134777 651.301295,445.377718 652,445.000034 C651.956331,444.958108 651.75982,483.386056 643.178844,494.84982 Z" id="Shape" fill="#000000" opacity="0.1"></path>
                    <path d="M639.024268,427 C639.024268,427 624.654858,486.287364 637.020395,495.231078 C649.385932,504.174792 642.197661,432.251735 639.024268,427 Z" id="Shape" fill="#000000" opacity="0.1"></path>
                    <path d="M611.123788,468 C611.123788,468 608.29544,494.820237 629.677748,498 L631,495.023742 C631,495.023742 612.467253,476.369135 611.123788,468 Z" id="Shape" fill="#32CCBC"></path>
                    <path d="M639,494.633333 L633.93662,495.875 L633.423048,496 C633.423048,496 617.827837,483.316667 618.001439,455 C618.001439,455 621.994276,459.933333 626.507918,466.808333 C631.875101,475 637.987324,485.941667 639,494.633333 Z" id="Shape" fill="#32CCBC"></path>
                    <path d="M637,493.761181 L632.136074,495 C627.501448,490.136181 625.667053,477.440367 625,466 C630.155761,474.172878 636.027215,485.08945 637,493.761181 Z" id="Shape" fill="#000000" opacity="0.1"></path>
                    <path d="M641.469574,497.405519 C640.605069,498.01312 639.534714,498.164051 638.556363,497.816313 C624.645394,494.278458 627.180967,445 627.180967,445 C627.951658,445.394026 630.957352,451.706833 634.117184,459.755033 C639.766348,473.998671 645.931874,493.83413 641.469574,497.405519 Z" id="Shape" fill="#32CCBC"></path>
                    <path d="M666.876212,468 C666.876212,468 669.70456,494.820237 648.322252,498 L647,495.023742 C647,495.023742 665.55396,476.369135 666.876212,468 Z" id="Shape" fill="#32CCBC"></path>
                    <path d="M660.99879,455 C661.157926,483.333333 645.569779,496 645.569779,496 L645.063435,495.875 L640,494.633333 C641.012687,485.941667 647.13221,475 652.499452,466.808333 C656.998676,459.916667 660.99879,455 660.99879,455 Z" id="Shape" fill="#32CCBC"></path>
                    <path d="M652,466 C651.373913,476.675459 649.73913,488.448394 645.773913,493.910837 C645.497365,494.302262 645.194942,494.666488 644.869565,495 L640,493.761181 C640.93913,485.08945 646.838261,474.172878 652,466 Z" id="Shape" fill="#000000" opacity="0.1"></path>
                    <path d="M645.674827,494.849818 C644.841037,495.956092 643.785779,496.840232 642.589754,497.434622 C642.222875,497.612935 641.840463,497.750699 641.448277,497.84584 C638.023845,498.685062 636.820667,496.033121 637.021196,491.467754 C637.352842,483.335693 642.042153,469.236764 646.276416,458.738098 C649.315213,451.134747 652.107205,445.377684 652.847622,445.000034 C652.809059,444.958073 654.768081,483.386046 645.674827,494.849818 Z" id="Shape" fill="#32CCBC"></path>
                    <path d="M639.574532,496 C638.842157,495.995596 638.128495,495.733974 637.529413,495.250278 C631.437111,490.892006 631.315122,474.538187 632.764645,459 C637.988668,472.997551 643.729353,492.490314 639.574532,496 Z" id="Shape" fill="#000000" opacity="0.1"></path>
                    <path d="M645.267292,493.451461 C644.530457,495.189843 643.579939,496.112586 642.319951,495.989005 C641.682313,495.89397 641.072464,495.637556 640.53681,495.239276 C638.911746,493.988964 637.675509,492.203527 637,490.131234 C637.316839,482.147858 641.796798,468.306711 645.842024,458 C647.242011,472.327235 647.720954,487.560735 645.267292,493.451461 Z" id="Shape" fill="#000000" opacity="0.1"></path>
                    <path d="M638.604626,427 C638.604626,427 625.994218,486.287364 638.604626,495.231078 C651.215034,504.174792 641.840861,432.251735 638.604626,427 Z" id="Shape" fill="#32CCBC"></path>
                    <polygon id="Shape" fill="#D4DFEC" points="664 493 611 493 611 502.808482 619.086613 502.808482 619.284922 503.9658 622.523975 523 653.335366 523 656.574418 503.9658 656.772727 502.808482 664 502.808482"></polygon>
                    <polygon id="Shape" fill="#000000" opacity="0.1" points="664 493 611 493 611 502.808482 619.086613 502.808482 619.284922 503.9658 622.523975 523 653.335366 523 656.574418 503.9658 656.772727 502.808482 664 502.808482"></polygon>
                    <polygon id="Shape" fill="#D4DFEC" points="660 499 659.090055 504.146341 655.773642 523 624.226358 523 620.909945 504.146341 620 499"></polygon>
                    <polygon id="Shape" fill="#000000" opacity="0.1" points="660 499 659.090055 505 620.909945 505 620 499"></polygon>
                    <rect id="Rectangle-path" fill="#D4DFEC" x="613" y="493" width="53" height="10"></rect>
                    <path d="M211.692158,429.709934 C210.929547,430.890751 210.319348,432.187516 209.879787,433.561496 C209.768371,433.896414 209.656955,434.28157 209.545538,434.64998 C209.345053,434.539238 209.132903,434.457647 208.91418,434.407165 C207.988046,434.141453 207.029617,434.04812 206.07678,434.130857 C206.07678,433.712209 206.113919,433.293561 206.128774,432.816302 C206.247618,428.077207 205.749959,421.487688 201.746402,424.275883 C197.906256,426.971976 200.647096,431.443137 203.127964,434.323435 C203.343368,434.574624 203.551345,434.800694 203.759322,435.026764 C201.530998,436.860442 201.070477,441.072041 200.691662,445.48459 C200.312847,449.89714 196.977788,454.694846 194.79403,457.457923 C194.578625,457.734231 194.370648,457.985419 194.170099,458.219862 C192.373021,456.589545 190.039507,455.912094 187.76738,456.361065 L187.47027,455.138613 C185.68761,447.879257 181.981164,435.303071 177.257116,432.531622 L177.881046,431.644088 C179.886538,428.68006 182.144574,424.284256 178.809515,423.16228 C175.474456,422.040303 175.169918,426.971976 175.355612,430.697943 C175.355612,431.158456 175.415034,431.602223 175.452173,432.012498 C174.102004,432.083352 172.837019,432.776653 171.953703,433.929906 C171.79772,433.712209 171.626882,433.486139 171.441188,433.243323 C168.737488,429.634578 163.768324,423.932592 162.267919,428.219547 C160.871502,432.238568 165.239018,437.429803 168.314106,440.494306 L168.507228,440.678512 C166.442314,450.12321 175.444745,457.809587 180.302492,461.175517 C180.517897,461.334603 180.725874,461.476944 180.926423,461.610911 C174.24145,470.494621 170.104194,487.156811 170.104194,487.156811 L188.866686,491 C188.866686,491 201.29331,478.917819 199.703772,467.555713 L199.830043,467.555713 C212.241811,464.750771 215.064356,449.830157 213.133141,440.971565 L213.348546,440.87109 C215.608649,439.826712 217.589592,438.13896 219.097623,435.972908 C222.544098,430.54723 215.257477,424.393105 211.692158,429.709934 Z" id="Shape" fill="#32CCBC"></path>
                    <path d="M211.692158,429.709934 C210.929547,430.890751 210.319348,432.187516 209.879787,433.561496 C209.768371,433.896414 209.656955,434.28157 209.545538,434.64998 C209.345053,434.539238 209.132903,434.457647 208.91418,434.407165 C207.988046,434.141453 207.029617,434.04812 206.07678,434.130857 C206.07678,433.712209 206.113919,433.293561 206.128774,432.816302 C206.247618,428.077207 205.749959,421.487688 201.746402,424.275883 C197.906256,426.971976 200.647096,431.443137 203.127964,434.323435 C203.343368,434.574624 203.551345,434.800694 203.759322,435.026764 C201.530998,436.860442 201.070477,441.072041 200.691662,445.48459 C200.312847,449.89714 196.977788,454.694846 194.79403,457.457923 C194.578625,457.734231 194.370648,457.985419 194.170099,458.219862 C192.373021,456.589545 190.039507,455.912094 187.76738,456.361065 L187.47027,455.138613 C185.68761,447.879257 181.981164,435.303071 177.257116,432.531622 L177.881046,431.644088 C179.886538,428.68006 182.144574,424.284256 178.809515,423.16228 C175.474456,422.040303 175.169918,426.971976 175.355612,430.697943 C175.355612,431.158456 175.415034,431.602223 175.452173,432.012498 C174.102004,432.083352 172.837019,432.776653 171.953703,433.929906 C171.79772,433.712209 171.626882,433.486139 171.441188,433.243323 C168.737488,429.634578 163.768324,423.932592 162.267919,428.219547 C160.871502,432.238568 165.239018,437.429803 168.314106,440.494306 L168.507228,440.678512 C166.442314,450.12321 175.444745,457.809587 180.302492,461.175517 C180.517897,461.334603 180.725874,461.476944 180.926423,461.610911 C174.24145,470.494621 170.104194,487.156811 170.104194,487.156811 L188.866686,491 C188.866686,491 201.29331,478.917819 199.703772,467.555713 L199.830043,467.555713 C212.241811,464.750771 215.064356,449.830157 213.133141,440.971565 L213.348546,440.87109 C215.608649,439.826712 217.589592,438.13896 219.097623,435.972908 C222.544098,430.54723 215.257477,424.393105 211.692158,429.709934 Z" id="Shape" fill="#000000" opacity="0.1"></path>
                    <path d="M174,434.914993 L171.858758,442 C171.858758,442 170.668372,441.048772 169.165873,439.539928 C166.160875,436.571441 161.907424,431.454492 163.257496,427.518377 C164.709186,423.287053 169.579605,428.871417 172.228939,432.438521 C173.288672,433.848962 174,434.914993 174,434.914993 Z" id="Shape" fill="#32CCBC"></path>
                    <path d="M177.973033,432.043986 C177.199837,433.072129 176.37454,434.058797 175.500481,435 C175.281,433.685368 175.128596,432.360099 175.043878,431.029496 C174.837114,427.16394 175.233411,422.030271 179.049928,423.158454 C182.866445,424.286637 180.299127,428.948043 177.973033,432.043986 Z" id="Shape" fill="#32CCBC"></path>
                    <path d="M206.984767,433.554368 C206.902231,436.02513 206.679383,438 206.679383,438 C205.608458,437.117187 204.593819,436.161035 203.642045,435.137744 C200.88533,432.12759 197.864499,427.481861 202.115122,424.697903 C206.563832,421.783448 207.108572,428.630243 206.984767,433.554368 Z" id="Shape" fill="#32CCBC"></path>
                    <path d="M219.100775,435.298529 C217.615817,437.470765 215.665183,439.163335 213.43966,440.210695 C212.82164,440.521694 212.186362,440.785372 211.537993,441 L209,436.90233 C209.26875,435.548731 209.620708,434.218696 210.053231,432.922217 C210.483122,431.54282 211.0842,430.241887 211.837871,429.059659 C215.34864,423.70246 222.51646,429.874155 219.100775,435.298529 Z" id="Shape" fill="#32CCBC"></path>
                    <path d="M172.168168,433 C173.264264,434.329897 174,435.319588 174,435.319588 L171.785285,442 C171.785285,442 170.554054,441.103093 169,439.680412 C169.34582,437.541736 170.202323,435.525107 171.492492,433.811856 C171.717718,433.533505 171.942943,433.262887 172.168168,433 Z" id="Shape" fill="#000000" opacity="0.1"></path>
                    <path d="M177,431.76652 C176.472069,432.543356 175.908564,433.288854 175.311765,434 C175.161905,433.006701 175.057845,432.005366 175,431 C175.721664,431.01399 176.421213,431.282099 177,431.76652 Z" id="Shape" fill="#000000" opacity="0.1"></path>
                    <path d="M189,460.30097 L183.67548,463 C182.701966,462.440583 181.753983,461.824208 180.835252,461.153296 C175.234699,457.192491 163.975482,447.223629 171.522789,435.466556 C179.070097,423.709483 185.367994,444.791996 187.845022,455.103458 C188.600479,458.18687 189,460.30097 189,460.30097 Z" id="Shape" fill="#32CCBC"></path>
                    <path d="M204,433.780822 C204.790813,432.702308 205.864397,432.065021 207,432 C206.925926,434.778865 206.725926,437 206.725926,437 C205.764801,436.007101 204.854191,434.931718 204,433.780822 Z" id="Shape" fill="#000000" opacity="0.1"></path>
                    <path d="M214,440.218295 C213.303979,440.5263 212.58852,440.787439 211.85832,441 L209,436.941788 C209.302669,435.601223 209.699049,434.283995 210.186161,433 C212.031301,434.089397 213.390445,436.800416 214,440.218295 Z" id="Shape" fill="#000000" opacity="0.1"></path>
                    <path d="M200.036345,468.24162 C199.736964,468.310222 199.422614,468.378824 199.115749,468.430275 C180.711317,471.63741 193.045804,460.258084 193.045804,460.258084 C193.045804,460.258084 193.876586,459.400562 194.999264,457.959924 C197.244619,455.14725 200.560261,450.24222 200.941972,445.69735 C201.51828,438.837169 202.184402,432.448625 209.227334,434.335175 C216.135545,436.187424 217.45282,464.245565 200.036345,468.24162 Z" id="Shape" fill="#32CCBC"></path>
                    <rect id="Rectangle-path" fill="#D4DFEC" x="165" y="518" width="35" height="10"></rect>
                    <rect id="Rectangle-path" fill="#D4DFEC" x="159" y="485" width="45" height="36"></rect>
                    <rect id="Rectangle-path" fill="#000000" opacity="0.1" x="165" y="518" width="35" height="10"></rect>
                    <rect id="Rectangle-path" fill="#000000" opacity="0.1" x="159" y="485" width="45" height="36"></rect>
                    <rect id="Rectangle-path" fill="#D4DFEC" x="167" y="518" width="35" height="10"></rect>
                    <path d="M187.868327,455 C188.580071,458.12381 189,460.265608 189,460.265608 L183.782918,463 C182.829048,462.433253 181.900193,461.808803 181,461.129101 C183.042705,458.030688 185.348754,455.719577 187.868327,455 Z" id="Shape" fill="#000000" opacity="0.1"></path>
                    <path d="M200,466.313066 C199.701605,466.375205 199.388291,466.437344 199.082436,466.483948 C180.738613,469.388942 193.03248,459.081653 193.03248,459.081653 C193.03248,459.081653 193.860526,458.304917 194.979507,457 C198.403588,459.850622 199.806043,463.066309 200,466.313066 Z" id="Shape" fill="#000000" opacity="0.1"></path>
                    <path d="M171,487.197645 C171,487.197645 180.983764,445.649956 194.976986,458.448128 C208.970207,471.2463 189.285442,491 189.285442,491 L171,487.197645 Z" id="Shape" fill="#32CCBC"></path>
                    <circle id="Oval" fill="#000000" opacity="0.1" cx="175" cy="441" r="1"></circle>
                    <circle id="Oval" fill="#000000" opacity="0.1" cx="175" cy="447" r="1"></circle>
                    <circle id="Oval" fill="#000000" opacity="0.1" cx="208" cy="442" r="1"></circle>
                    <circle id="Oval" fill="#000000" opacity="0.1" cx="182" cy="473" r="1"></circle>
                    <circle id="Oval" fill="#000000" opacity="0.1" cx="206" cy="452" r="1"></circle>
                    <circle id="Oval" fill="#000000" opacity="0.1" cx="194" cy="466" r="1"></circle>
                    <circle id="Oval" fill="#000000" opacity="0.1" cx="180" cy="444" r="1"></circle>
                    <circle id="Oval" fill="#000000" opacity="0.1" cx="206" cy="447" r="1"></circle>
                    <circle id="Oval" fill="#000000" opacity="0.1" cx="201" cy="456" r="1"></circle>
                    <circle id="Oval" fill="#000000" opacity="0.1" cx="190" cy="472" r="1"></circle>
                    <circle id="Oval" fill="#000000" opacity="0.1" cx="186" cy="466" r="1"></circle>
                    <circle id="Oval" fill="#000000" opacity="0.1" cx="181" cy="451" r="1"></circle>
                    <rect id="Rectangle-path" fill="#000000" opacity="0.1" x="167" y="518" width="35" height="3"></rect>
                    <rect id="Rectangle-path" fill="#D4DFEC" x="162" y="485" width="45" height="36"></rect>
                    <circle id="Oval" fill="#000000" opacity="0.1" cx="191" cy="478" r="1"></circle>
                    <circle id="Oval" fill="#000000" opacity="0.1" cx="184" cy="480" r="1"></circle>
                </g>
                <g id="undraw_eating_together_tjhx-(1)" transform="translate(68.000000, 458.000000)">
                    <ellipse id="Oval" fill="#000000" fill-rule="nonzero" opacity="0.1" cx="35" cy="211.5" rx="25" ry="10.5"></ellipse>
                    <ellipse id="Oval" fill="#000000" fill-rule="nonzero" opacity="0.1" cx="437" cy="253.5" rx="25" ry="10.5"></ellipse>
                    <path d="M436.534477,253 C436.534477,253 442.800276,227.625757 435.354419,208.949221 C432.183379,201.139469 431.226973,192.316455 432.628796,183.804863 C433.320916,179.769408 434.322411,175.817926 435.620715,172" id="Shape" stroke="#535461" stroke-width="2"></path>
                    <path d="M430.005516,160.708239 C430.005516,163.856743 435.002758,173 435.002758,173 C435.002758,173 440,163.86304 440,160.708239 C440,157.555665 437.761424,155 435,155 C432.238576,155 430,157.555665 430,160.708239 L430.005516,160.708239 Z" id="Shape" fill="#32CCBC" fill-rule="nonzero"></path>
                    <path d="M422.808527,177.794006 C424.329976,180.434946 433,185 433,185 C433,185 432.84338,174.241313 431.321931,171.600373 C430.337725,169.891933 428.617491,168.90352 426.809225,169.007458 C425.000959,169.111396 423.379379,170.291896 422.555319,172.104275 C421.73126,173.916653 421.829914,176.085567 422.81412,177.794006 L422.808527,177.794006 Z" id="Shape" fill="#32CCBC" fill-rule="nonzero"></path>
                    <path d="M421.633036,206.269333 C423.995208,207.61642 433,206.688426 433,206.688426 C433,206.688426 428.307362,197.929365 425.94519,196.582278 C423.584083,195.233202 420.704719,196.308081 419.51395,198.983087 C418.323182,201.658093 419.271929,204.920256 421.633036,206.269333 Z" id="Shape" fill="#32CCBC" fill-rule="nonzero"></path>
                    <path d="M427.077294,229.282726 C429.339667,231.169722 439,232 439,232 C439,232 435.448074,221.986341 433.17439,220.118215 C430.898785,218.245803 427.689162,218.779459 426.005496,221.310168 C424.321829,223.840878 424.80169,227.410313 427.077294,229.282726 Z" id="Shape" fill="#32CCBC" fill-rule="nonzero"></path>
                    <path d="M443.451598,185.613904 C441.428407,187.769886 432,190 432,190 C432,190 434.310608,179.739007 436.333799,177.583024 C438.356905,175.428476 441.590331,175.479644 443.555857,177.69731 C445.521383,179.914976 445.474704,183.459356 443.451598,185.613904 Z" id="Shape" fill="#32CCBC" fill-rule="nonzero"></path>
                    <path d="M446.366964,211.267339 C444.004792,212.618102 435,211.687576 435,211.687576 C435,211.687576 439.692638,202.904613 442.054811,201.583867 C444.415917,200.23111 447.295281,201.308922 448.48605,203.991227 C449.676818,206.673533 448.728071,209.944598 446.366964,211.297356 L446.366964,211.267339 Z" id="Shape" fill="#32CCBC" fill-rule="nonzero"></path>
                    <path d="M449.922706,237.282726 C447.660333,239.169722 438,240 438,240 C438,240 441.551926,229.986342 443.82561,228.118216 C446.101215,226.245803 449.310838,226.779459 450.994504,229.310168 C452.678171,231.840878 452.19831,235.410313 449.922706,237.282726 Z" id="Shape" fill="#32CCBC" fill-rule="nonzero"></path>
                    <path d="M34.3497685,211 C34.3497685,211 48.6956627,156.516731 31.6693367,116.367214 C24.5215186,99.5256802 22.1761408,80.6266398 25.4540855,62.3529813 C27.0343339,53.6861113 29.320397,45.1996375 32.2836023,37" id="Shape" stroke="#535461" stroke-width="2"></path>
                    <path d="M23.0056877,12.0478689 C23.0056877,18.7009836 34.0056877,38 34.0056877,38 C34.0056877,38 45,18.6885246 45,12.0478689 C45,5.39401462 40.0751322,0 34,0 C27.9248678,0 23,5.39401462 23,12.0478689 L23.0056877,12.0478689 Z" id="Shape" fill="#32CCBC" fill-rule="nonzero"></path>
                    <path d="M5.57505769,48.5812193 C8.77667587,54.2545237 27,64 27,64 C27,64 26.6693682,40.9789913 23.46775,35.3309015 C20.2104109,29.8586421 13.7306132,28.360298 8.8709795,31.9556442 C4.01134581,35.5509904 2.54822034,42.9258184 5.57505769,48.5686119 L5.57505769,48.5812193 Z" id="Shape" fill="#32CCBC" fill-rule="nonzero"></path>
                    <path d="M6.01728479,111.403714 C11.4164375,114.349465 32,112.316223 32,112.316223 C32,112.316223 21.2469704,93.1964029 15.8761151,90.2690248 C12.3842234,88.3632997 8.21804116,88.6182125 4.94692894,90.9377401 C1.67581673,93.2572677 -0.203265704,97.2890185 0.017513796,101.514271 C0.238293296,105.739524 2.52539308,109.516362 6.01728479,111.422087 L6.01728479,111.403714 Z" id="Shape" fill="#32CCBC" fill-rule="nonzero"></path>
                    <path d="M15.3035846,160.356596 C20.0178559,164.243322 40,166 40,166 C40,166 32.6459563,145.189184 27.9261969,141.32082 C23.2130079,137.433314 16.5665453,138.543171 13.0809072,143.799756 C9.59526903,149.05634 10.5903956,156.46909 15.3035846,160.356596 Z" id="Shape" fill="#32CCBC" fill-rule="nonzero"></path>
                    <path d="M47.7666813,65.6063747 C43.5680471,70.2194818 24,75 24,75 C24,75 28.7906087,53.0133363 32.9892429,48.4002293 C37.1894946,43.7772982 43.9074217,43.8813989 47.994153,48.6327447 C52.0808844,53.3840906 51.988858,60.9834436 47.7886063,65.6063747 L47.7666813,65.6063747 Z" id="Shape" fill="#32CCBC" fill-rule="nonzero"></path>
                    <path d="M59.9827151,121.403714 C54.5835624,124.349465 34,122.316223 34,122.316223 C34,122.316223 44.7530296,103.196403 50.1238848,100.269025 C53.6157765,98.3632997 57.7819588,98.6182125 61.053071,100.93774 C64.3241833,103.257268 66.2032657,107.289019 65.9824862,111.514271 C65.7617067,115.739524 63.4746068,119.516362 59.9827151,121.422087 L59.9827151,121.403714 Z" id="Shape" fill="#32CCBC" fill-rule="nonzero"></path>
                    <path d="M64.6964156,176.356596 C59.9821443,180.243322 40,182 40,182 C40,182 47.3540438,161.189184 52.0738032,157.32082 C56.7869922,153.433314 63.4334547,154.543171 66.9190928,159.799756 C70.4047309,165.05634 69.4096045,172.46909 64.6964156,176.356596 Z" id="Shape" fill="#32CCBC" fill-rule="nonzero"></path>
                    <path d="M208.438196,77.958764 L178.142653,73.6627417 C176.914088,73.4901868 175.968202,72.9784722 176.000819,72.5322095 C176.05518,72.0859468 177.088044,71.8776908 178.34379,72.0740464 L208.574099,76.8639328 C209.405827,76.9948366 210.036418,77.3399464 209.998365,77.643405 C209.960312,77.9290132 209.264488,78.0777674 208.438196,77.958764 Z" id="Shape" fill="#32CCBC" fill-rule="nonzero"></path>
                    <path d="M208.549737,76.7563876 L178.310899,73.0404622 C177.082953,72.8925967 176.038929,73.162612 176.001062,73.6447822 C175.963196,74.1269525 176.942307,74.6348385 178.164843,74.7634172 L208.457776,77.9778856 C209.290832,78.0678907 209.972423,77.8750226 209.99947,77.5471468 C210.021108,77.1999842 209.377383,76.8592506 208.549737,76.7563876 Z" id="Shape" fill="#32CCBC" fill-rule="nonzero"></path>
                    <path d="M255.56724,102.958764 L285.857347,98.6627417 C287.085912,98.4901868 288.031798,97.9784722 287.999181,97.5322095 C287.94482,97.0859468 286.911956,96.8776908 285.65621,97.0740464 L255.425901,101.863933 C254.594173,101.994837 253.963582,102.339946 254.001635,102.643405 C254.039688,102.929013 254.735512,103.077767 255.56724,102.958764 Z" id="Shape" fill="#32CCBC" fill-rule="nonzero"></path>
                    <path d="M255.450263,104.756388 L285.689101,101.040462 C286.917047,100.892597 287.961071,101.162612 287.998938,101.644782 C288.036804,102.126952 287.057693,102.634838 285.835157,102.763417 L255.542224,105.977886 C254.709168,106.067891 254.027577,105.875023 254.00053,105.547147 C253.978892,105.199984 254.622617,104.859251 255.450263,104.756388 Z" id="Shape" fill="#32CCBC" fill-rule="nonzero"></path>
                    <rect id="Rectangle-path" fill="#40414D" fill-rule="nonzero" x="148" y="140" width="9" height="121"></rect>
                    <rect id="Rectangle-path" fill="#40414D" fill-rule="nonzero" x="310" y="140" width="9" height="121"></rect>
                    <path d="M144.167598,131 L317.832402,131 C324.552381,131 330,137.324068 330,145.125201 L330,147 L132,147 L132,145.125201 C132,137.324068 137.447619,131 144.167598,131 Z" id="Shape" fill="#DFE6F5" fill-rule="nonzero"></path>
                    <path d="M143.167598,131 L316.832402,131 C323.552381,131 329,137.324068 329,145.125201 L329,147 L131,147 L131,145.125201 C131,137.324068 136.447619,131 143.167598,131 Z" id="Shape" fill="#000000" fill-rule="nonzero" opacity="0.1"></path>
                    <path d="M144.167598,128 L317.832402,128 C324.552381,128 330,134.324068 330,142.125201 L330,144 L132,144 L132,142.125201 C132,134.324068 137.447619,128 144.167598,128 Z" id="Shape" fill="#DFE6F5" fill-rule="nonzero"></path>
                    <ellipse id="Oval" stroke="#FFAB50" fill="#FFD77C" fill-rule="nonzero" cx="230" cy="102" rx="15" ry="17"></ellipse>
                    <ellipse id="Oval" stroke="#FFAB50" fill="#FFD77C" fill-rule="nonzero" cx="230" cy="101.5" rx="12" ry="13.5"></ellipse>
                    <ellipse id="Oval" stroke="#FFAB50" fill="#FFD77C" fill-rule="nonzero" cx="230.5" cy="101.5" rx="9.5" ry="10.5"></ellipse>
                    <ellipse id="Oval" stroke="#FFAB50" fill="#FFD77C" fill-rule="nonzero" cx="230" cy="101.5" rx="5" ry="5.5"></ellipse>
                    <ellipse id="Oval" stroke="#FFAB50" fill="#FFD77C" fill-rule="nonzero" cx="222" cy="111" rx="15" ry="17"></ellipse>
                    <ellipse id="Oval" stroke="#FFAB50" fill="#FFD77C" fill-rule="nonzero" cx="221" cy="110.5" rx="12" ry="13.5"></ellipse>
                    <ellipse id="Oval" stroke="#FFAB50" fill="#FFD77C" fill-rule="nonzero" cx="223.5" cy="111.5" rx="9.5" ry="10.5"></ellipse>
                    <ellipse id="Oval" stroke="#FFAB50" fill="#FFD77C" fill-rule="nonzero" cx="222" cy="110.5" rx="5" ry="5.5"></ellipse>
                    <ellipse id="Oval" stroke="#FFAB50" fill="#FFD77C" fill-rule="nonzero" cx="239" cy="111" rx="15" ry="17"></ellipse>
                    <ellipse id="Oval" stroke="#FFAB50" fill="#FFD77C" fill-rule="nonzero" cx="239" cy="110.5" rx="12" ry="13.5"></ellipse>
                    <ellipse id="Oval" stroke="#FFAB50" fill="#FFD77C" fill-rule="nonzero" cx="239.5" cy="111.5" rx="9.5" ry="10.5"></ellipse>
                    <ellipse id="Oval" stroke="#FFAB50" fill="#FFD77C" fill-rule="nonzero" cx="239" cy="110.5" rx="5" ry="5.5"></ellipse>
                    <path d="M199,105 L262,105 L262,108.404237 C262,115.192655 259.656464,121.703038 255.484942,126.503174 C251.313421,131.303311 245.655623,134 239.756201,134 L221.243799,134 C208.958888,134 199,122.540386 199,108.404237 L199,105 Z" id="Shape" fill="#32CCBC" fill-rule="nonzero"></path>
                    <path d="M257.365897,105 C257.027936,120.724675 245.949684,133.268467 232.398333,133.270518 L220,133.270518 C221.80865,133.749984 223.657606,133.994645 225.512821,133.999997 L238.004872,133.999997 C244.632978,134.003392 250.990615,130.949543 255.678428,125.510621 C260.366241,120.071698 263.000001,112.693495 263,105 L257.365897,105 Z" id="Shape" fill="#000000" fill-rule="nonzero" opacity="0.1"></path>
                    <rect id="Rectangle-path" fill="#40414D" fill-rule="nonzero" transform="translate(234.500000, 239.000000) rotate(90.000000) translate(-234.500000, -239.000000) " x="230" y="147" width="9" height="184"></rect>
                    <rect id="Rectangle-path" fill="#40414D" fill-rule="nonzero" x="85" y="204" width="7" height="67"></rect>
                    <rect id="Rectangle-path" fill="#40414D" fill-rule="nonzero" x="136" y="204" width="7" height="67"></rect>
                    <path d="M148,193 C148,197.415902 134.421374,201 117.669964,201 C100.918554,201 88,197.422018 88,193 C88,188.577982 100.918554,185 117.669964,185 C134.421374,185 148,188.602446 148,193 Z" id="Shape" fill="#F6C6CD" fill-rule="nonzero"></path>
                    <path d="M79,193 L148,193 L148,200.130841 C148,203.924573 145.4013,207 142.195642,207 L88.9503285,207 C83.4549138,207 79,201.727839 79,195.224299 L79,193 Z" id="Shape" fill="#40414D" fill-rule="nonzero"></path>
                    <path d="M75.7923169,113.000018 L77.2184874,113.000018 C79.3069591,113.000018 81,114.961672 81,117.381495 L81,206 L78.8391357,206 C75.0619853,206 72,202.452208 72,198.075786 L72,117.381495 C71.9999959,116.217283 72.3998869,115.100936 73.1113966,114.278888 C73.8229062,113.456841 74.7875268,112.996692 75.7923169,113.000018 Z" id="Shape" fill="#40414D" fill-rule="nonzero" transform="translate(76.500000, 159.500000) rotate(-12.720000) translate(-76.500000, -159.500000) "></path>
                    <rect id="Rectangle-path" fill="#40414D" fill-rule="nonzero" transform="translate(375.500000, 239.500000) rotate(-180.000000) translate(-375.500000, -239.500000) " x="372" y="206" width="7" height="67"></rect>
                    <rect id="Rectangle-path" fill="#40414D" fill-rule="nonzero" transform="translate(322.500000, 239.500000) rotate(-180.000000) translate(-322.500000, -239.500000) " x="319" y="206" width="7" height="67"></rect>
                    <path d="M314,195.009164 C314,199.420008 327.578626,203 344.330036,203 C361.081446,203 374,199.426117 374,195.009164 C374,190.592211 361.075899,187 344.330036,187 C327.584173,187 314,190.59832 314,195.009164 Z" id="Shape" fill="#F6C6CD" fill-rule="nonzero"></path>
                    <path d="M323.950328,195 L377.195642,195 C380.4013,195 383,198.075427 383,201.869159 L383,209 L314,209 L314,206.775701 C314,200.272161 318.454914,195 323.950328,195 Z" id="Shape" fill="#40414D" fill-rule="nonzero" transform="translate(348.500000, 202.000000) rotate(-180.000000) translate(-348.500000, -202.000000) "></path>
                    <path d="M386.836538,115 L389,115 L389,203.619112 C389,206.03861 387.304924,208 385.213942,208 L383.786058,208 C381.695076,208 380,206.03861 380,203.619112 L380,122.923149 C379.999995,118.552198 383.059073,115.006905 386.836538,115 Z" id="Shape" fill="#40414D" fill-rule="nonzero" transform="translate(384.500000, 161.500000) rotate(-167.280000) translate(-384.500000, -161.500000) "></path>
                    <path d="M377.039101,168.48192 L379,167.787767 C379,167.787767 375.648036,142.723202 375.681556,120.260148 C375.681556,119.634785 375.681556,118.965646 375.681556,118.321521 C375.720662,116.920707 375.765355,115.532401 375.826808,114.175362 C375.90502,112.436852 375.92178,110.779639 375.910607,109.172455 C376.094965,87.5411346 368.48042,78.4045752 368.48042,78.4045752 C368.48042,78.4045752 359.54185,64.1337823 354.184294,61.3571687 C353.720606,59.7312239 353.189878,57.6425101 352.720603,55.2161001 C352.893788,55.0847738 353.061386,54.9534474 353.223398,54.8158675 C355.436041,52.9786094 357.553091,51.0013228 359.564196,48.893676 C362.312807,46.0107507 364.949685,42.4962084 364.804433,38.5314044 C364.819534,38.1453704 364.808329,37.7586095 364.770913,37.3744821 C364.262532,32.590452 359.82118,28.9883588 358.02788,24.4544741 C356.519496,20.646011 356.972011,16.4060471 355.653572,12.5413012 C354.335133,8.67655538 349.731769,5.08071579 346.2569,7.11314686 C344.977567,7.86358295 344.206615,9.18935337 343.139573,10.1961885 C340.491522,12.6976421 336.223355,12.9290265 332.603234,11.7908651 C328.983113,10.6527037 327.910484,6.01250727 322.849019,6 C323.298439,6.1686888 323.727998,6.39756382 324.128352,6.68164611 C323.70556,6.60191257 323.277757,6.56008883 322.849019,6.55657343 C324.952267,7.30149813 326.466961,9.3621251 326.714951,11.8158797 C326.707086,11.9667374 326.692168,12.1170306 326.670258,12.2661413 C324.647906,13.4856 321.988682,12.7914466 319.564094,12.7476712 C317.139507,12.7038957 314.379724,14.0734416 314.619948,16.2934817 C314.579219,16.5457528 314.579219,16.8041539 314.619948,17.056425 C314.938384,18.7386526 316.949563,20.0081403 317.195373,21.5652952 C317.195373,21.6090706 317.195373,21.6465924 317.195373,21.6903679 C312.708505,24.2001627 307.854452,25.7847023 302.865728,26.3680861 C302.703716,26.3680861 302.776342,26.5869633 303.01098,26.9058987 L302.865728,26.9058987 C301.955111,27.0122105 308.323842,32.6467347 309.050101,33.0156992 C311.709326,34.3664841 314.888105,35.3608119 317.703755,36.3989152 L317.949565,36.4864661 C317.000887,38.9534783 316.512317,41.611388 316.513807,44.297255 C316.513807,53.9278515 322.698181,62.0200539 331.072504,64.308884 C332.636753,66.3538223 334.279216,68.598877 335.776426,70.8314243 L335.670281,70.8314243 C335.670281,70.8314243 326.044558,85.1647536 326.351821,106.570943 C326.324516,109.253848 326.451408,111.93594 326.73171,114.600609 C320.541751,114.20663 307.240041,112.380569 297.122697,104.08825 C283.474617,92.9130062 268.251115,96.2649541 271.424307,102.96885 C274.597499,109.672746 290.848938,115.257241 293.469056,115.820068 C293.714867,115.870097 294.2847,116.020184 295.100345,116.245315 C291.871286,116.926961 289.65899,118.121405 289.793069,119.728589 C290.055639,122.799123 303.966289,132.579807 312.362959,133.136381 C317.910459,133.505345 324.586454,135.418957 329.854623,137.101185 C330.363005,149.952403 327.586461,153.804641 327.586461,153.804641 C327.586461,153.804641 328.413279,154.373722 329.781998,155.180441 L329.195404,157.056531 C325.787574,159.25781 321.586446,161.552894 317.765207,162.478432 C312.895798,163.598375 308.162448,165.361743 303.664613,167.731484 L284.765123,177.956176 C281.333758,179.73828 278.967784,183.377556 278.508124,187.580519 C278.094715,191.914287 279.262316,197.329934 285.586354,201.626181 C285.977417,205.146977 287.899209,209.255614 292.943915,213.020302 C302.720476,220.299532 328.413279,242.105954 331.910495,245.082684 C331.977534,250.404526 331.351834,261.07948 325.485897,262.742946 C318.133923,264.83166 324.050139,272.748761 329.994289,272.436079 C331.404844,273.033395 332.939991,273.1594 334.413294,272.79879 C340.714986,271.122816 363.810017,262.167612 365.38544,248.772328 C365.450857,248.191619 365.480722,247.606581 365.474826,247.02131 C365.566438,244.737732 365.057524,242.474245 364.011135,240.511277 C364.257591,241.116518 364.457569,241.744148 364.608902,242.387368 C362.698283,237.509533 358.044639,234.445252 354.424518,232.719249 C354.424518,232.675474 354.424518,232.625445 354.424518,232.581669 C353.865858,232.337778 353.307197,232.137661 352.849095,231.956306 C352.858349,231.593839 352.834011,231.231275 352.77647,230.874427 L316.5585,202.939444 C316.5585,202.939444 332.307144,188.412252 348.580928,190.651053 C364.854713,192.889854 367.446898,189.581682 367.446898,189.581682 C367.446898,189.581682 375.793288,180.695268 376.631279,170.464322 L377.15642,170.307981 C377.15642,170.307981 377.117314,169.663857 377.039101,168.48192 Z" id="Shape" fill="url(#linearGradient-3)" fill-rule="nonzero"></path>
                    <path d="M331.930752,239.7126 C331.930752,239.7126 333.376771,258.101004 326.14122,260.332576 C318.90567,262.564148 325.661033,271.477828 331.445108,269.788389 C337.229183,268.09895 358.461103,259.197879 359.907121,245.833663 C361.35314,232.469448 345.436021,228 345.436021,228 L331.930752,239.7126 Z" id="Shape" fill="#B8616E" fill-rule="nonzero"></path>
                    <path d="M331.930752,239.7126 C331.930752,239.7126 333.376771,258.101004 326.14122,260.332576 C318.90567,262.564148 325.661033,271.477828 331.445108,269.788389 C337.229183,268.09895 358.461103,259.197879 359.907121,245.833663 C361.35314,232.469448 345.436021,228 345.436021,228 L331.930752,239.7126 Z" id="Shape" fill="#000000" fill-rule="nonzero" opacity="0.05"></path>
                    <path d="M334.930752,241.7126 C334.930752,241.7126 336.376771,260.101004 329.14122,262.332576 C321.90567,264.564148 328.661033,273.477828 334.445108,271.788389 C340.229183,270.09895 361.461103,261.197879 362.907121,247.833663 C364.35314,234.469448 348.436021,230 348.436021,230 L334.930752,241.7126 Z" id="Shape" fill="#B8616E" fill-rule="nonzero"></path>
                    <path d="M350.930086,230 L337,241.903846 C337,241.903846 337.061962,242.711538 337.101392,244 C342.362492,242.358974 353.825381,238 354,231.179487 C352.998373,230.716722 351.973222,230.322851 350.930086,230 Z" id="Shape" fill="#000000" fill-rule="nonzero" opacity="0.1"></path>
                    <rect id="Rectangle-path" fill="#F8BDC5" fill-rule="nonzero" x="336" y="72" width="6" height="5"></rect>
                    <path d="M336.698948,152 C336.698948,152 327.364658,160.289129 319.697799,162.25498 C315.139315,163.369856 310.720259,165.117313 306.541159,167.457598 L288.908491,177.587365 C285.654586,179.437328 283.455244,183.028958 283.069712,187.122368 C282.565605,192.756972 284.570954,200.169607 296.536572,204.57712 L334.244888,240 L346,228.931133 L305.843164,194.071713 L336.698948,172.484917 L336.698948,152 Z" id="Shape" fill="#758AC8" fill-rule="nonzero"></path>
                    <path d="M336.698948,152 C336.698948,152 327.364658,160.289129 319.697799,162.25498 C315.139315,163.369856 310.720259,165.117313 306.541159,167.457598 L288.908491,177.587365 C285.654586,179.437328 283.455244,183.028958 283.069712,187.122368 C282.565605,192.756972 284.570954,200.169607 296.536572,204.57712 L334.244888,240 L346,228.931133 L305.843164,194.071713 L336.698948,172.484917 L336.698948,152 Z" id="Shape" fill="#000000" fill-rule="nonzero" opacity="0.1"></path>
                    <path d="M328.673776,114.467256 C328.673776,114.467256 311.068471,115.009746 298.694703,104.110636 C286.320935,93.2115252 272.526255,96.4787924 275.378842,103.019492 C278.231429,109.560191 292.984147,115.009746 295.363097,115.552235 C297.742046,116.094725 332,127 332,127 L328.673776,114.467256 Z" id="Shape" fill="#F8BDC5" fill-rule="nonzero"></path>
                    <path d="M328.673776,114.467256 C328.673776,114.467256 311.068471,115.009746 298.694703,104.110636 C286.320935,93.2115252 272.526255,96.4787924 275.378842,103.019492 C278.231429,109.560191 292.984147,115.009746 295.363097,115.552235 C297.742046,116.094725 332,127 332,127 L328.673776,114.467256 Z" id="Shape" fill="#000000" fill-rule="nonzero" opacity="0.05"></path>
                    <path d="M333.61358,147 L327.744383,166.842609 C327.744383,166.842609 294.73637,189.71491 292.042403,192.744602 C289.951398,195.101028 287.152327,204.321015 296.932479,212.032391 C306.712631,219.743766 333.608048,244 333.608048,244 C333.608048,244 354.147474,239.012853 352.681557,229.661954 L318.937821,202.107969 C318.937821,202.107969 333.608048,187.769923 348.770603,189.982969 C363.933157,192.196015 366.378195,188.879563 366.378195,188.879563 C366.378195,188.879563 378.11659,175.638689 374.200104,162.983805 C370.283618,150.32892 333.61358,147 333.61358,147 Z" id="Shape" fill="#758AC8" fill-rule="nonzero"></path>
                    <path d="M326,56.9219413 C326,56.9219413 342.712807,77.7857445 341.728719,83.9855662 C340.744632,90.1853879 355,65.9410235 355,65.9410235 C355,65.9410235 350.552147,53.5350017 351.558474,40 L326,56.9219413 Z" id="Shape" fill="#F8BDC5" fill-rule="nonzero"></path>
                    <path d="M339.615855,76.3984914 C340.741816,75.0388139 341.927558,73.7455641 343.168481,72.5237613 C345.652267,70.1942149 347.930866,67.5923942 349.971732,64.7554613 C353.370611,59.7315001 365.988747,81.4098928 365.988747,81.4098928 C365.988747,81.4098928 373.752909,91.4012956 372.786507,115.277671 C371.820105,139.154047 374,171.075041 374,171.075041 L371.062357,172.010753 C366.045728,173.925382 360.53385,173.029806 356.181963,169.592972 C352.305373,166.528356 347.39649,163.313021 343.662664,163.024143 C336.381703,162.471507 329.825544,157.748984 329.825544,157.748984 C329.825544,157.748984 332.982823,149.14545 328.128849,121.381784 C323.274876,93.6181185 335.64592,73.8865108 335.64592,73.8865108 C335.64592,73.8865108 336.623304,79.9278242 339.615855,76.3984914 Z" id="Shape" fill="#000000" fill-rule="nonzero" opacity="0.1"></path>
                    <path d="M376,168.239313 L373.070341,169.350793 L371.329129,170.010146 C366.279015,171.925662 360.729854,171.030078 356.349174,167.592519 C352.452175,164.534378 347.50492,161.312968 343.746113,161.024109 C336.427493,160.465229 328.136005,154.361505 328.136005,154.361505 C328.136005,154.361505 333.022455,147.146301 328.136005,119.384405 C323.249555,91.6225096 335.708897,71.9172782 335.708897,71.9172782 C335.708897,71.9172782 336.69282,77.9268086 339.705394,74.3914214 C340.836504,73.0333078 342.028368,71.7422003 343.276262,70.5232179 C345.776666,68.1938199 348.07051,65.5921651 350.125031,62.7554131 C353.546651,57.7317722 366.24921,79.4087827 366.24921,79.4087827 C366.24921,79.4087827 374.06532,89.3995485 373.092452,113.274402 C372.987426,115.786222 372.943205,118.373397 372.937677,120.99197 C372.865818,143.334613 376,168.239313 376,168.239313 Z" id="Shape" fill="#464647" fill-rule="nonzero"></path>
                    <path d="M348.746738,113.406556 L349.233924,125.884431 C349.233924,125.884431 323.291276,127.584501 317.910086,121.348771 C312.528897,115.113042 332.581025,139.690285 337.009987,141.197894 C341.167676,142.615689 351.902374,143.866684 357.532692,143.994991 C360.818925,144.117565 363.858115,141.981835 365.283377,138.548351 C365.939658,136.894766 366.151833,135.050754 365.892359,133.255679 C364.912451,125.884431 365.892359,110 365.892359,110 L348.746738,113.406556 Z" id="Shape" fill="#000000" fill-rule="nonzero" opacity="0.1"></path>
                    <path d="M347.881186,112.406556 L348.364575,124.884431 C348.364575,124.884431 322.624088,126.584501 317.284832,120.348771 C311.945577,114.113042 292.626479,115.492344 293.0055,120.348771 C293.247195,123.466636 306.117438,133.391197 313.879134,133.962164 C321.64083,134.533131 331.841446,138.690285 336.235895,140.197894 C340.361184,141.615689 351.012231,142.866684 356.598675,142.994991 C359.859299,143.117565 362.874806,140.981835 364.288961,137.548351 C364.940129,135.894766 365.15065,134.050754 364.893198,132.255679 C363.920926,124.884431 364.893198,109 364.893198,109 L347.881186,112.406556 Z" id="Shape" fill="#F8BDC5" fill-rule="nonzero"></path>
                    <path d="M353.759628,77.0125268 C353.759628,77.0125268 342.686384,78.713334 344.129773,98.0062634 C345.573162,117.299193 347.501311,119 347.501311,119 C347.501311,119 363.874244,117.299193 365.796947,116.727978 C367.719651,116.156764 366.761022,95.1694454 366.761022,95.1694454 C366.761022,95.1694454 366.276262,76.4477305 353.759628,77.0125268 Z" id="Shape" fill="#000000" fill-rule="nonzero" opacity="0.1"></path>
                    <path d="M353.759628,75.0130878 C353.759628,75.0130878 342.686384,76.7138723 344.129773,96.0065439 C345.573162,115.299216 347.501311,117 347.501311,117 C347.501311,117 363.874244,115.299216 365.796947,114.728009 C367.719651,114.156802 366.761022,93.1697639 366.761022,93.1697639 C366.761022,93.1697639 366.276262,74.4354629 353.759628,75.0130878 Z" id="Shape" fill="#40414D" fill-rule="nonzero"></path>
                    <path d="M348.846957,51.5952684 C348.121739,47.1158601 349.608696,45.7336427 350,40 L326,56.9705584 C326,56.9705584 328.749565,60.6436733 331.874783,65.3598503 C333.271461,65.7931077 334.707185,66.0081167 336.147826,65.9997658 C342.434783,66.0317616 345.873043,57.7512553 348.846957,51.5952684 Z" id="Shape" fill="#000000" fill-rule="nonzero" opacity="0.1"></path>
                    <ellipse id="Oval" fill="#F8BDC5" fill-rule="nonzero" cx="337" cy="45" rx="18" ry="21"></ellipse>
                    <path d="M340.981361,39.2181683 C338.254369,41.2108174 338.216191,45.7162094 339.972374,48.836773 C341.728556,51.9573366 344.755516,54.0189137 347.667943,55.9614332 C348.51331,56.5253905 349.445941,57.1081464 350.394934,56.9828225 C351.124533,56.8194566 351.800415,56.4268515 352.34746,55.8486418 C354.385566,54.0215879 356.330403,52.061202 358.172313,49.9772199 C360.822949,46.9819802 363.369959,43.2911931 362.955456,39.1116431 C362.486413,34.3681357 358.406835,30.7964063 356.759732,26.3035467 C355.37442,22.5438315 355.788923,18.3266843 354.578139,14.4855087 C353.367355,10.644333 349.124156,7.09140217 345.949939,9.10284978 C344.777332,9.84226043 344.068315,11.1644269 343.086598,12.1607515 C340.654122,14.6296311 336.732708,14.8740126 333.405779,13.746098 C330.07885,12.6181835 329.091679,8.01253238 324.45034,8 C326.757374,8.9336626 328.317213,11.6970533 327.962704,14.2160624 C326.102896,15.4254375 323.659512,14.7361564 321.417925,14.692293 C319.176339,14.6484297 316.509341,16.0896538 316.896574,18.4081448 C317.234721,20.2880024 319.596295,21.6853632 319.24724,23.5652208 C315.150222,26.0449396 310.684064,27.6179023 306.081327,28.2022029 C305.246867,28.3087281 311.093537,33.8919052 311.758922,34.2616105 C314.196853,35.6025756 317.125641,36.5863677 319.705375,37.6140232 C326.713742,40.3899462 333.891183,41.3800045 340.981361,39.2181683 Z" id="Shape" fill="#000000" fill-rule="nonzero" opacity="0.1"></path>
                    <path d="M340.981361,39.2181683 C338.254369,41.2108174 338.216191,45.7162094 339.972374,48.836773 C341.728556,51.9573366 344.755516,54.0189137 347.667943,55.9614332 C348.51331,56.5253905 349.445941,57.1081464 350.394934,56.9828225 C351.124533,56.8194566 351.800415,56.4268515 352.34746,55.8486418 C354.385566,54.0215879 356.330403,52.061202 358.172313,49.9772199 C360.822949,46.9819802 363.369959,43.2911931 362.955456,39.1116431 C362.486413,34.3681357 358.406835,30.7964063 356.759732,26.3035467 C355.37442,22.5438315 355.788923,18.3266843 354.578139,14.4855087 C353.367355,10.644333 349.124156,7.09140217 345.949939,9.10284978 C344.777332,9.84226043 344.068315,11.1644269 343.086598,12.1607515 C340.654122,14.6296311 336.732708,14.8740126 333.405779,13.746098 C330.07885,12.6181835 329.091679,8.01253238 324.45034,8 C326.757374,8.9336626 328.317213,11.6970533 327.962704,14.2160624 C326.102896,15.4254375 323.659512,14.7361564 321.417925,14.692293 C319.176339,14.6484297 316.509341,16.0896538 316.896574,18.4081448 C317.234721,20.2880024 319.596295,21.6853632 319.24724,23.5652208 C315.150222,26.0449396 310.684064,27.6179023 306.081327,28.2022029 C305.246867,28.3087281 311.093537,33.8919052 311.758922,34.2616105 C314.196853,35.6025756 317.125641,36.5863677 319.705375,37.6140232 C326.713742,40.3962124 333.891183,41.3674722 340.981361,39.2181683 Z" id="Shape" fill="#916168" fill-rule="nonzero"></path>
                    <path d="M361.627996,238 C362.406658,240.074275 362.677931,242.355523 362.412295,244.595513 C360.958874,258.039969 339.62376,266.998716 333.804593,268.671353 C330.738699,269.558357 327.398574,267.486568 326,264.996619 C326.899475,267.923735 330.771607,270.8065 334.292723,269.79278 C340.11189,268.113807 361.447004,259.148725 362.900425,245.71694 C363.218033,243.053104 362.771076,240.342432 361.627996,238 Z" id="Shape" fill="#FFFFFF" fill-rule="nonzero" opacity="0.1"></path>
                    <path d="M205.915745,251.742631 C205.482082,250.637829 203.231423,248.484086 192.378858,248.018579 C184.946195,247.702035 182.415576,243.264207 181.7294,238.931894 C184.172188,238.571902 186.082503,238.075362 186.708296,237.386412 C186.708296,237.386412 186.675359,237.187796 186.620465,236.834011 L186.708296,236.75953 C186.233637,233.634613 185.985787,230.471039 185.967225,227.30044 C185.952965,224.587329 186.207056,221.880922 186.724764,219.231661 C187.027005,217.480264 187.15406,215.695986 187.103533,213.912475 C187.163917,203.360995 183.886738,184.815219 183.886738,184.815219 L183.436607,169.403853 C183.344529,165.486951 181.367458,161.939783 178.28205,160.155791 C177.203996,159.525013 176.010058,159.189118 174.796274,159.175125 C174.796274,159.175125 157.592459,156.108989 142.10683,154.439372 C141.008948,153.440085 137.138913,150.746355 128.268024,152.291836 L123.162872,135.397056 C123.121628,135.192557 123.092288,134.985221 123.075041,134.776381 C123.256192,132.628844 124.524246,129.395126 130.436342,129.190303 L131.671459,130.431654 C131.671459,130.431654 131.891036,129.94132 132.258826,129.190303 C139.59268,129.097202 179.544614,128.637902 181.603143,129.190303 C183.87027,129.810979 203.73096,124.808336 204.301859,124.187661 C212.019971,115.678203 181.603143,119.805694 181.603143,119.805694 C178.611414,120.358095 168.944561,119.700179 159.041663,118.787786 C163.943708,110.476945 168.554813,82.2672548 168.554813,82.2672548 C168.554813,82.2672548 186.120929,72.255763 181.037734,66.6262386 C175.954539,60.9967141 160.611635,79.1390515 160.611635,79.1390515 C160.611635,79.1390515 154.370175,99.788917 151.532149,106.045323 C150.434267,108.528024 149.012509,109.036978 147.744455,108.751468 C148.320843,108.2301 148.694123,107.919763 148.694123,107.919763 C148.694123,107.919763 136.211202,96.654507 135.074894,92.2787465 C134.863274,91.5618399 134.583508,90.8730001 134.240504,90.2243114 C133.642158,86.2581966 132.59368,82.3541493 130.035615,79.75352 C129.605976,79.2319817 129.131555,78.7600176 128.619347,78.3445872 C127.927681,77.7859795 127.142695,77.3018528 126.489455,76.6935911 C126.857246,74.7819113 127.28542,72.7957505 127.730062,70.8716572 C136.996188,69.6303067 144.198296,60.9408533 144.198296,50.3893741 C144.196873,48.7981791 144.029199,47.2127454 143.698759,45.6660355 C146.515569,45.8757258 149.223601,44.4012984 150.834994,41.7806084 C152.706883,38.6275782 152.646499,34.3325055 151.076528,31.0056861 C150.427564,29.6549855 149.576993,28.4412843 148.562378,27.4181832 C146.944814,25.576103 144.972003,24.1825014 142.798496,23.3465536 C140.915628,22.60795 138.835141,22.1672706 137.342021,20.7210973 C136.674771,19.7344591 136.067703,18.6976031 135.525026,17.6177211 C134.898447,16.5574379 134.161218,15.586331 133.329262,14.7253744 C130.584556,11.5288969 126.709032,9.56135636 122.762145,8.69241101 C117.953421,7.63105634 112.985504,8.00966824 108.094438,8.38828014 C106.266464,8.53103545 104.120105,8.89723385 103.296693,10.6971921 C102.67639,12.0502641 103.082606,13.6702265 103.000265,15.1784673 C102.742263,19.976287 97.889623,22.6265703 93.6682659,23.787233 C89.4469087,24.9478957 84.4131186,25.9533896 82.3765471,30.1615678 C80.5266155,33.9601003 81.827606,38.5655106 82.4204624,42.8295496 C83.4078828,50.3165623 81.9375562,57.9533034 78.2869358,64.2987064 C76.4315148,67.5075974 74.0381315,70.3627035 72.5724587,73.8074512 C70.9487358,77.6475824 70.571742,82.0112371 71.507513,86.1340616 C71.7819835,87.3381715 72.1772211,88.5671085 71.9796023,89.7960455 C71.7549691,90.8094173 71.3139063,91.745012 70.6950801,92.5208098 C65.5920714,99.6455884 58.0909094,104.039265 50,104.642597 C50.33611,105.902691 50.9928618,107.023028 51.8883574,107.863902 C53.026021,109.135873 54.3527199,110.171635 55.807797,110.923831 C59.641139,113.097498 63.6720804,114.793626 67.8296075,115.982334 C70.6292072,116.783005 73.5550633,117.354026 76.4040677,116.807832 C79.2530721,116.261638 82.0307142,114.418233 83.1999588,111.501059 C83.8806457,109.812822 83.9794551,107.901142 84.5832904,106.181872 C85.7854714,102.743331 88.7662217,100.515107 90.7808356,97.5668996 C90.102436,105.164155 89.7817677,112.79682 89.8201886,120.432576 C89.8201886,122.822175 89.8201886,124.975919 89.8201886,126.974493 C89.8201886,135.595672 89.2712475,141.541741 84.5448645,152.310456 C83.9815895,153.442452 83.73471,154.740782 83.8367305,156.034508 C83.6276703,157.456489 84.0970773,158.897765 85.071848,159.826834 C84.7424279,161.974764 84.5826054,164.151564 84.5942692,166.33151 C84.5283963,174.176845 86.8723748,184.709704 99.3004017,187.378608 L121.428218,186.137257 C121.428218,186.137257 152.635521,179.253969 161.144108,184.275232 C162.59108,184.623208 163.626971,186.065949 163.630811,187.738599 C163.604482,188.260456 163.532774,188.778113 163.416724,189.284081 C163.179678,190.910174 163.089554,192.559316 163.147743,194.206036 C163.109317,204.757515 165.118442,228.703166 165.118442,228.703166 L165.118442,238.857413 C163.702174,241.265633 161.956541,244.828309 162.181607,247.453765 C162.181607,247.509626 162.181607,247.571693 162.181607,247.627554 C162.181607,247.683415 162.181607,247.782723 162.214543,247.857204 C162.24748,247.931685 162.214543,247.993752 162.252969,248.062027 C162.291395,248.130301 162.285905,248.192368 162.302374,248.260643 C162.318842,248.328917 162.346289,248.409605 162.373736,248.477879 C162.401183,248.546153 162.412162,248.589601 162.43412,248.645461 C162.456077,248.701322 162.505482,248.806837 162.543908,248.881318 L162.609781,249.01166 C162.675803,249.131131 162.749176,249.245203 162.829357,249.353031 C165.667383,253.077083 179.846532,260.283122 184.391764,259.991405 C189.216957,259.681067 205.383273,260.61208 205.954171,252.481234 C206.026561,252.238715 206.012783,251.973882 205.915745,251.742631 Z" id="Shape" fill="url(#linearGradient-4)" fill-rule="nonzero"></path>
                    <path d="M166.574602,238.742969 C166.574602,238.742969 159.895366,248.314583 162.678381,252.143229 C165.461396,255.971875 179.376471,263.29097 183.829295,262.991059 C188.560421,262.672005 204.423607,263.629167 204.98021,255.333768 C204.98021,255.333768 206.093416,251.505122 191.621737,250.867014 C177.150059,250.228906 181.602883,233 181.602883,233 L166.574602,238.742969 Z" id="Shape" fill="#594C76" fill-rule="nonzero"></path>
                    <path d="M89.0631634,159.309533 C89.0631634,159.309533 82.4183923,184.993693 102.352705,189.378794 L123.948211,188.125908 C123.948211,188.125908 154.403412,181.235035 162.709376,186.246579 C162.709376,186.246579 166.031761,186.873022 164.924299,191.884565 C163.816837,196.896109 166.585492,230.724027 166.585492,230.724027 L166.585492,242 C166.585492,242 185.412343,242 187.627267,239.494228 C187.627267,239.494228 185.966074,229.471141 187.627267,221.327383 C189.28846,213.183625 184.858612,187.499465 184.858612,187.499465 L184.421165,172.038853 C184.355098,168.149059 182.436412,164.60321 179.404363,162.767498 C178.356393,162.139002 177.19051,161.803887 176.004455,161.790247 C176.004455,161.790247 138.350752,154.899375 125.06121,156.15226 C111.771668,157.405146 89.0631634,159.309533 89.0631634,159.309533 Z" id="Shape" fill="#000000" fill-rule="nonzero" opacity="0.1"></path>
                    <path d="M89.0631634,158.309533 C89.0631634,158.309533 82.4183923,183.993693 102.352705,188.378794 L123.948211,187.125908 C123.948211,187.125908 154.403412,180.235035 162.709376,185.246579 C162.709376,185.246579 166.031761,185.873022 164.924299,190.884565 C163.816837,195.896109 166.585492,229.724027 166.585492,229.724027 L166.585492,241 C166.585492,241 185.412343,241 187.627267,238.494228 C187.627267,238.494228 185.966074,228.471141 187.627267,220.327383 C189.28846,212.183625 184.858612,186.499465 184.858612,186.499465 L184.421165,171.038853 C184.355098,167.149059 182.436412,163.60321 179.404363,161.767498 C178.356393,161.139002 177.19051,160.803887 176.004455,160.790247 C176.004455,160.790247 138.350752,153.899375 125.06121,155.15226 C111.771668,156.405146 89.0631634,158.309533 89.0631634,158.309533 Z" id="Shape" fill="#8B9CD1" fill-rule="nonzero"></path>
                    <path d="M145.50167,107.649699 C145.50167,107.649699 150.003341,113.929367 152.816885,107.649699 C155.630429,101.37003 161.820226,80.6471232 161.820226,80.6471232 C161.820226,80.6471232 177.013363,62.4360839 182.077742,68.0877858 C187.142122,73.7394876 169.698149,83.7869576 169.698149,83.7869576 C169.698149,83.7869576 163.508352,122.092937 157.881264,122.720904 C152.254176,123.34887 143.813544,122.720904 143.813544,122.720904 L141,115.813268 L145.50167,107.649699 Z" id="Shape" fill="#F8BDC5" fill-rule="nonzero"></path>
                    <path d="M145.50167,107.649699 C145.50167,107.649699 150.003341,113.929367 152.816885,107.649699 C155.630429,101.37003 161.820226,80.6471232 161.820226,80.6471232 C161.820226,80.6471232 177.013363,62.4360839 182.077742,68.0877858 C187.142122,73.7394876 169.698149,83.7869576 169.698149,83.7869576 C169.698149,83.7869576 163.508352,122.092937 157.881264,122.720904 C152.254176,123.34887 143.813544,122.720904 143.813544,122.720904 L141,115.813268 L145.50167,107.649699 Z" id="Shape" fill="#000000" fill-rule="nonzero" opacity="0.05"></path>
                    <path d="M124.870968,77 C124.870968,77 134.741935,90.1434501 135.83871,94.5246002 C136.935484,98.9057502 149,110.171565 149,110.171565 C149,110.171565 140.225806,117.682108 141.870968,121.437379 C143.516129,125.192651 130.354839,108.919807 130.354839,108.919807 L115,83.2587858 L124.870968,77 Z" id="Shape" fill="#EB6475" fill-rule="nonzero"></path>
                    <path d="M124.870968,77 C124.870968,77 134.741935,90.1434501 135.83871,94.5246002 C136.935484,98.9057502 149,110.171565 149,110.171565 C149,110.171565 140.225806,117.682108 141.870968,121.437379 C143.516129,125.192651 130.354839,108.919807 130.354839,108.919807 L115,83.2587858 L124.870968,77 Z" id="Shape" fill="#000000" fill-rule="nonzero" opacity="0.1"></path>
                    <path d="M130,61.6972899 C130,61.6972899 125.306327,80.3122352 125.306327,87.3730765 C125.306327,94.4339178 105.488596,85.4473925 106.010115,81.5960245 C106.531635,77.7446565 117.483539,63.6229739 118.005058,57.8459219 C118.526577,52.06887 130,61.6972899 130,61.6972899 Z" id="Shape" fill="#F8BDC5" fill-rule="nonzero"></path>
                    <path d="M114.866346,75.3830354 C114.866346,75.3830354 95.5589356,69.7545423 92.8007342,101.649337 C90.0425327,133.544131 95.0072953,137.29646 86.732691,156.683491 C78.4580868,176.070523 143,159.185044 143,159.185044 C143,159.185044 139.690158,154.807327 129.208993,156.683491 L124.24423,139.798012 C124.24423,139.798012 122.589309,132.293355 131.967194,132.293355 C141.345079,132.293355 136.931957,110.40477 136.931957,110.40477 C136.931957,110.40477 131.967194,91.6431266 129.208993,89.7669623 C126.450791,87.8907979 121.486029,76.6338117 114.866346,75.3830354 Z" id="Shape" fill="#000000" fill-rule="nonzero" opacity="0.1"></path>
                    <path d="M114.866346,73.3830354 C114.866346,73.3830354 95.5589356,67.7545423 92.8007342,99.6493366 C90.0425327,131.544131 95.0072953,135.29646 86.732691,154.683491 C78.4580868,174.070523 143,157.185044 143,157.185044 C143,157.185044 139.690158,152.807327 129.208993,154.683491 L124.24423,137.798012 C124.24423,137.798012 122.589309,130.293355 131.967194,130.293355 C141.345079,130.293355 136.931957,108.40477 136.931957,108.40477 C136.931957,108.40477 131.967194,89.6431266 129.208993,87.7669623 C126.450791,85.8907979 121.486029,74.6338117 114.866346,73.3830354 Z" id="Shape" fill="#EB6475" fill-rule="nonzero"></path>
                    <path d="M133.760749,118 C133.760749,118 174.067684,123.311505 180.693481,121.983629 C180.693481,121.983629 210.28871,117.601637 202.779473,126.631195 C202.227323,127.295134 182.902081,132.606638 180.693481,131.9427 C178.484882,131.278762 131.55215,131.9427 131.55215,131.9427 L131,125.303319 L133.760749,118 Z" id="Shape" fill="#F8BDC5" fill-rule="nonzero"></path>
                    <path d="M101.673289,104.096908 L131.573196,134 C131.573196,134 137.214688,121.540378 138.907136,121.540378 C140.599584,121.540378 118.597765,84.7844947 118.597765,84.7844947 C118.597765,84.7844947 112.956273,77.3087217 109.571378,81.0466082 C106.186483,84.7844947 96.0317975,82.2925704 101.673289,104.096908 Z" id="Shape" fill="#000000" fill-rule="nonzero" opacity="0.1"></path>
                    <path d="M101.673289,101.096908 L131.573196,131 C131.573196,131 137.214688,118.540378 138.907136,118.540378 C140.599584,118.540378 118.597765,81.7844947 118.597765,81.7844947 C118.597765,81.7844947 112.956273,74.3087217 109.571378,78.0466082 C106.186483,81.7844947 96.0317975,79.2925704 101.673289,101.096908 Z" id="Shape" fill="#EB6475" fill-rule="nonzero"></path>
                    <ellipse id="Oval" fill="#F8BDC5" fill-rule="nonzero" cx="126" cy="53" rx="18" ry="21"></ellipse>
                    <path d="M141.909022,47.7474605 C145.005164,49.137498 148.797937,47.4707109 150.622449,44.3069604 C152.446961,41.1432098 152.391673,36.8347225 150.85466,33.4759893 C149.317646,30.1172561 146.475831,27.6768282 143.340987,26.4062962 C141.439072,25.6389452 139.321532,25.1986618 137.861923,23.6136417 C136.938609,22.6135694 136.391255,21.2612705 135.700152,20.0410565 C133.118191,15.4621094 128.512681,12.7575115 123.829767,11.6945417 C119.146853,10.6315718 114.303603,11.0089575 109.537756,11.3863433 C107.757475,11.5310078 105.667579,11.8958141 104.860371,13.7072657 C104.257729,15.0658544 104.650276,16.6949029 104.572872,18.2107356 C104.324075,23.0349835 99.5969304,25.7081326 95.4668987,26.8654489 C91.336867,28.0227652 86.5489052,29.1108941 84.5364132,33.3627736 C82.7340165,37.1806594 84.0222326,41.8099247 84.5806438,46.0995427 C85.5355564,53.5924579 84.1082717,61.227081 80.5556598,67.6293998 C78.7477343,70.856048 76.4200993,73.7241797 74.9881338,77.1898389 C73.4040962,81.0626788 73.0371601,85.4368951 73.9487149,89.5806711 C74.2196273,90.7945952 74.6011161,92.0273887 74.4131361,93.2601822 C74.1964571,94.2733925 73.7677892,95.2120416 73.1636219,95.9962289 C68.2635464,103.128937 60.9372939,107.567034 53,108.210948 C53.630286,110.909256 55.924748,112.613781 58.1086336,113.871734 C61.8351589,116.052217 65.7624314,117.756642 69.8186832,118.953862 C72.5443935,119.758952 75.3972668,120.33132 78.1727366,119.784111 C80.9482063,119.236901 83.6518014,117.381421 84.8073256,114.450392 C85.4707845,112.752156 85.5703034,110.833779 86.1563587,109.097804 C87.4777477,105.204441 90.9996087,102.85207 92.8904666,99.2731951 C94.6983921,95.8515643 95.4005528,95.4490195 95.8594452,91.4990486 C96.3183376,87.5490778 97.3301124,83.2846188 100.182986,80.9636964 C103.168551,78.5295583 107.370457,78.9950007 110.687752,80.8630602 C114.005046,82.7311197 116.05624,82.0015072 118.826181,84.7438437 C123.685374,89.5460117 129.123753,93.5322114 134.975876,96.5811768 C134.422994,91.0965038 133.532853,84.9765649 129.618446,81.7121781 C128.512681,80.7750035 127.113888,80.0579706 126.527833,78.6239047 C125.593462,76.3407209 127.191292,73.5543561 126.467016,71.1705361 C125.74274,68.7867161 122.989386,67.9061494 121.767515,65.7424711 C120.728096,63.9058604 121.010066,61.4088247 121.98314,59.5218959 C122.956213,57.6349672 124.493226,56.2386399 126.02471,54.9177898 C127.384801,53.7478939 128.763321,52.6052537 130.160271,51.4898692 C131.422596,50.5785832 132.556015,49.454589 133.521796,48.156295 C134.074678,47.2945976 134.43958,45.4076688 135.208087,44.7975619 C137.143175,43.2754393 140.117683,46.9486606 141.909022,47.7474605 Z" id="Shape" fill="#000000" fill-rule="nonzero" opacity="0.1"></path>
                    <path d="M141.909022,47.7474605 C145.005164,49.137498 148.797937,47.4707109 150.622449,44.3069604 C152.446961,41.1432098 152.391673,36.8347225 150.85466,33.4759893 C149.317646,30.1172561 146.475831,27.6768282 143.340987,26.4062962 C141.439072,25.6389452 139.321532,25.1986618 137.861923,23.6136417 C136.938609,22.6135694 136.391255,21.2612705 135.700152,20.0410565 C133.118191,15.4621094 128.512681,12.7575115 123.829767,11.6945417 C119.146853,10.6315718 114.303603,11.0089575 109.537756,11.3863433 C107.757475,11.5310078 105.667579,11.8958141 104.860371,13.7072657 C104.257729,15.0658544 104.650276,16.6949029 104.572872,18.2107356 C104.324075,23.0349835 99.5969304,25.7081326 95.4668987,26.8654489 C91.336867,28.0227652 86.5489052,29.1108941 84.5364132,33.3627736 C82.7340165,37.1806594 84.0222326,41.8099247 84.5806438,46.0995427 C85.5355564,53.5924579 84.1082717,61.227081 80.5556598,67.6293998 C78.7477343,70.856048 76.4200993,73.7241797 74.9881338,77.1898389 C73.4040962,81.0626788 73.0371601,85.4368951 73.9487149,89.5806711 C74.2196273,90.7945952 74.6011161,92.0273887 74.4131361,93.2601822 C74.1964571,94.2733925 73.7677892,95.2120416 73.1636219,95.9962289 C68.2635464,103.128937 60.9372939,107.567034 53,108.210948 C53.630286,110.909256 55.924748,112.613781 58.1086336,113.871734 C61.8351589,116.052217 65.7624314,117.756642 69.8186832,118.953862 C72.5443935,119.758952 75.3972668,120.33132 78.1727366,119.784111 C80.9482063,119.236901 83.6518014,117.381421 84.8073256,114.450392 C85.4707845,112.752156 85.5703034,110.833779 86.1563587,109.097804 C87.4777477,105.204441 90.9996087,102.85207 92.8904666,99.2731951 C94.6983921,95.8515643 95.4005528,95.4490195 95.8594452,91.4990486 C96.3183376,87.5490778 97.3301124,83.2846188 100.182986,80.9636964 C103.168551,78.5295583 107.370457,78.9950007 110.687752,80.8630602 C114.005046,82.7311197 116.05624,82.0015072 118.826181,84.7438437 C123.685374,89.5460117 129.123753,93.5322114 134.975876,96.5811768 C134.422994,91.0965038 133.532853,84.9765649 129.618446,81.7121781 C128.512681,80.7750035 127.113888,80.0579706 126.527833,78.6239047 C125.593462,76.3407209 127.191292,73.5543561 126.467016,71.1705361 C125.74274,68.7867161 122.989386,67.9061494 121.767515,65.7424711 C120.728096,63.9058604 121.010066,61.4088247 121.98314,59.5218959 C122.956213,57.6349672 124.493226,56.2386399 126.02471,54.9177898 C127.384801,53.7478939 128.763321,52.6052537 130.160271,51.4898692 C131.422596,50.5785832 132.556015,49.454589 133.521796,48.156295 C134.074678,47.2945976 134.43958,45.4076688 135.208087,44.7975619 C137.143175,43.2754393 140.117683,46.9486606 141.909022,47.7474605 Z" id="Shape" fill="#916168" fill-rule="nonzero"></path>
                    <g id="Group" opacity="0.1" transform="translate(162.000000, 231.000000)" fill="#FFFFFF" fill-rule="nonzero">
                        <path d="M19.0798718,5.08125 C19.1213012,3.41761628 19.3321875,1.76498505 19.7083333,0.15625 L19.4326923,0.2625 C19.1575659,1.84890484 19.0392288,3.46512838 19.0798718,5.08125 Z" id="Shape"></path>
                        <path d="M21.9134615,28.28125 C17.5032051,28.575 3.72115385,21.40625 0.96474359,17.65625 C0.602753674,17.1484193 0.38037871,16.5311816 0.32525641,15.88125 C0.161842608,16.9463999 0.393199879,18.0408014 0.96474359,18.90625 C3.72115385,22.65625 17.5032051,29.825 21.9134615,29.53125 C26.599359,29.21875 42.3108974,30.15625 42.8621795,22.03125 C42.9033265,21.806878 42.8761173,21.5733172 42.785,21.36875 C41.5225641,28.85625 26.4835897,27.975 21.9134615,28.28125 Z" id="Shape"></path>
                    </g>
                    <rect id="Rectangle-path" stroke="#FFAB50" stroke-width="0.25" fill="#FFD77C" fill-rule="nonzero" x="205" y="75" width="1" height="26"></rect>
                    <rect id="Rectangle-path" stroke="#FFAB50" stroke-width="0.25" fill="#FFD77C" fill-rule="nonzero" x="207" y="75" width="1" height="26"></rect>
                    <rect id="Rectangle-path" stroke="#FFAB50" stroke-width="0.25" fill="#FFD77C" fill-rule="nonzero" x="207" y="75" width="1" height="26"></rect>
                    <rect id="Rectangle-path" stroke="#FFAB50" stroke-width="0.25" fill="#FFD77C" fill-rule="nonzero" x="207" y="75" width="1" height="26"></rect>
                    <rect id="Rectangle-path" stroke="#FFAB50" stroke-width="0.25" fill="#FFD77C" fill-rule="nonzero" x="208" y="75" width="1" height="26"></rect>
                    <rect id="Rectangle-path" stroke="#FFAB50" stroke-width="0.25" fill="#FFD77C" fill-rule="nonzero" x="208" y="75" width="1" height="26"></rect>
                    <rect id="Rectangle-path" stroke="#FFAB50" stroke-width="0.25" fill="#FFD77C" fill-rule="nonzero" x="209" y="75" width="1" height="26"></rect>
                </g>
            </g>
        </g>
    </g>
</svg>