<?xml version="1.0" encoding="UTF-8"?>
<svg width="272px" height="512px" viewBox="0 0 272 512" version="1.1" xmlns="http://www.w3.org/2000/svg" xmlns:xlink="http://www.w3.org/1999/xlink">
    <!-- Generator: Sketch 51.2 (57519) - http://www.bohemiancoding.com/sketch -->
    <title>ordering</title>
    <desc>Created with Sketch.</desc>
    <defs></defs>
    <g id="Page-1" stroke="none" stroke-width="1" fill="none" fill-rule="evenodd">
        <g id="Desktop" transform="translate(-376.000000, -952.000000)" fill-rule="nonzero">
            <g id="ordering" transform="translate(376.000000, 952.000000)">
                <path d="M263.492188,36.570312 L263.492188,475.472656 C263.492188,491.476562 250.511719,504.457031 234.496094,504.457031 L36.546875,504.457031 C20.53125,504.457031 7.550781,491.476562 7.550781,475.472656 L7.550781,36.570312 C7.550781,20.566406 20.53125,7.585938 36.546875,7.585938 L234.496094,7.585938 C250.511719,7.585938 263.492188,20.566406 263.492188,36.570312 Z" id="Shape" fill="#D2D2D7"></path>
                <path d="M263.492188,36.570312 L263.492188,475.472656 C263.492188,491.476562 250.511719,504.457031 234.496094,504.457031 L71.976562,504.457031 C55.960938,504.457031 42.984375,491.476562 42.984375,475.472656 L42.984375,36.570312 C42.984375,20.566406 55.960938,7.585938 71.976562,7.585938 L234.496094,7.585938 C250.511719,7.585938 263.492188,20.566406 263.492188,36.570312 Z" id="Shape" fill="#EBEBF0"></path>
                <path d="M45.320312,7.582031 L58.261719,63.613281 C59.144531,67.433594 62.542969,70.136719 66.464844,70.136719 L204.585938,70.136719 C208.503906,70.136719 211.90625,67.433594 212.789062,63.613281 L225.730469,7.582031 C188.257812,7.582031 82.722656,7.582031 45.320312,7.582031 Z" id="Shape" fill="#B9B9BE"></path>
                <path d="M238.867188,106.746094 L238.867188,463.414062 C238.867188,467.984375 235.15625,471.683594 230.597656,471.683594 L40.457031,471.683594 C35.890625,471.683594 32.1875,467.984375 32.1875,463.414062 L32.1875,106.746094 C32.1875,102.179688 35.890625,98.476562 40.457031,98.476562 L230.597656,98.476562 C235.15625,98.476562 238.867188,102.179688 238.867188,106.746094 Z" id="Shape" fill="#CCCED7"></path>
                <path d="M238.867188,106.746094 L238.867188,463.414062 C238.867188,467.984375 235.160156,471.683594 230.601562,471.683594 L75.886719,471.683594 C71.316406,471.683594 67.621094,467.984375 67.621094,463.414062 L67.621094,106.746094 C67.621094,102.175781 71.316406,98.480469 75.886719,98.480469 L230.601562,98.480469 C235.160156,98.480469 238.867188,102.175781 238.867188,106.746094 Z" id="Shape" fill="#FFFFFF"></path>
                <path d="M238.867188,106.746094 L238.867188,225.484375 L32.1875,225.484375 L32.1875,106.746094 C32.1875,102.179688 35.890625,98.476562 40.457031,98.476562 L230.597656,98.476562 C235.15625,98.476562 238.867188,102.179688 238.867188,106.746094 Z" id="Shape" fill="#32CCBC"></path>
                <g id="Group" transform="translate(167.000000, 254.000000)" fill="#FFC843">
                    <path d="M46.660156,40.1875 L3.425781,40.1875 C1.582031,40.1875 0.070312,38.675781 0.070312,36.832031 L0.070312,4.003906 C0.070312,2.15625 1.582031,0.648438 3.425781,0.648438 L46.660156,0.648438 C48.507812,0.648438 50.015625,2.15625 50.015625,4.003906 L50.015625,36.832031 C50.015625,38.675781 48.507812,40.1875 46.660156,40.1875 Z" id="Shape"></path>
                    <path d="M46.660156,113.304688 L3.425781,113.304688 C1.582031,113.304688 0.070312,111.792969 0.070312,109.949219 L0.070312,77.121094 C0.070312,75.273438 1.582031,73.765625 3.425781,73.765625 L46.660156,73.765625 C48.507812,73.765625 50.015625,75.273438 50.015625,77.121094 L50.015625,109.949219 C50.015625,111.792969 48.507812,113.304688 46.660156,113.304688 Z" id="Shape"></path>
                    <path d="M46.660156,186.421875 L3.425781,186.421875 C1.582031,186.421875 0.070312,184.914062 0.070312,183.070312 L0.070312,150.238281 C0.070312,148.394531 1.582031,146.882812 3.425781,146.882812 L46.660156,146.882812 C48.507812,146.882812 50.015625,148.394531 50.015625,150.238281 L50.015625,183.070312 C50.015625,184.914062 48.507812,186.421875 46.660156,186.421875 Z" id="Shape"></path>
                </g>
                <path d="M75.890625,98.476562 C71.3125,98.476562 67.621094,102.179688 67.621094,106.746094 L67.621094,225.484375 L32.1875,225.484375 L32.1875,106.746094 C32.1875,102.179688 35.890625,98.476562 40.457031,98.476562 L75.890625,98.476562 Z" id="Shape" fill="#8AF4E9"></path>
                <path d="M234.503906,0 C221.742188,0 44.730469,0 36.535156,0 C23.691406,0 11.640625,6.871094 5.085938,17.933594 C2.960938,21.519531 4.144531,26.148438 7.730469,28.269531 C11.316406,30.394531 15.945312,29.210938 18.070312,25.625 C25.394531,13.265625 38.398438,15.300781 39.308594,15.089844 L50.902344,65.28125 C52.585938,72.5625 58.980469,77.652344 66.457031,77.652344 L204.589844,77.652344 C212.0625,77.652344 218.460938,72.5625 220.144531,65.277344 L231.734375,15.089844 L234.503906,15.089844 C246.332031,15.089844 255.953125,24.710938 255.953125,36.539062 L255.953125,475.460938 C255.953125,487.289062 246.332031,496.910156 234.503906,496.910156 L36.539062,496.910156 C24.714844,496.910156 15.089844,487.289062 15.089844,475.460938 L15.089844,51.234375 C15.089844,47.066406 11.710938,43.6875 7.546875,43.6875 C3.378906,43.6875 0,47.066406 0,51.234375 L0,475.460938 C0,495.609375 16.390625,512 36.539062,512 L234.503906,512 C254.652344,512 271.046875,495.609375 271.046875,475.460938 L271.046875,36.539062 C271.046875,16.390625 254.652344,0 234.503906,0 Z M204.589844,62.558594 C57.78125,62.265625 65.90625,63.191406 65.605469,61.882812 L54.796875,15.089844 L216.246094,15.089844 C204.757812,63.574219 205.925781,62.558594 204.589844,62.558594 Z" id="Shape" fill="#000000"></path>
                <path d="M84.8125,45.75 L149.167969,45.75 C153.335938,45.75 156.714844,42.375 156.714844,38.207031 C156.714844,34.039062 153.335938,30.660156 149.167969,30.660156 L84.8125,30.660156 C80.648438,30.660156 77.269531,34.039062 77.269531,38.207031 C77.269531,42.375 80.648438,45.75 84.8125,45.75 Z" id="Shape" fill="#000000"></path>
                <path d="M186.230469,38.207031 C186.230469,43.484375 181.953125,47.765625 176.671875,47.765625 C171.394531,47.765625 167.113281,43.484375 167.113281,38.207031 C167.113281,32.925781 171.394531,28.648438 176.671875,28.648438 C181.953125,28.648438 186.230469,32.925781 186.230469,38.207031 Z" id="Shape" fill="#000000"></path>
                <path d="M124.320312,479.21875 L230.601562,479.21875 C239.320312,479.21875 246.414062,472.125 246.414062,463.40625 L246.414062,106.714844 C246.414062,97.996094 239.320312,90.902344 230.601562,90.902344 L40.445312,90.902344 C31.722656,90.902344 24.628906,97.996094 24.628906,106.714844 L24.628906,463.40625 C24.628906,472.125 31.722656,479.21875 40.445312,479.21875 L94.140625,479.21875 C98.308594,479.21875 101.683594,475.84375 101.683594,471.675781 C101.683594,467.503906 98.308594,464.128906 94.140625,464.128906 L40.445312,464.128906 C40.046875,464.128906 39.722656,463.804688 39.722656,463.40625 L39.722656,233.027344 L231.320312,233.027344 L231.320312,463.40625 C231.320312,463.804688 230.996094,464.128906 230.597656,464.128906 L124.320312,464.128906 C120.15625,464.128906 116.777344,467.503906 116.777344,471.675781 C116.777344,475.84375 120.15625,479.21875 124.320312,479.21875 Z M39.722656,217.9375 L39.722656,106.714844 C39.722656,106.316406 40.046875,105.992188 40.445312,105.992188 L230.601562,105.992188 C231,105.992188 231.324219,106.316406 231.324219,106.714844 L231.324219,217.9375 L39.722656,217.9375 Z" id="Shape" fill="#000000"></path>
                <path d="M184.554688,112.953125 C180.386719,112.953125 177.011719,116.332031 177.011719,120.5 L177.011719,139.835938 L173.945312,139.835938 L173.945312,120.5 C173.945312,116.332031 170.566406,112.953125 166.398438,112.953125 C162.234375,112.953125 158.855469,116.332031 158.855469,120.5 L158.855469,139.835938 L155.789062,139.835938 L155.789062,120.5 C155.789062,116.332031 152.414062,112.953125 148.246094,112.953125 C144.078125,112.953125 140.699219,116.332031 140.699219,120.5 L140.699219,151.566406 C140.699219,163.113281 148.355469,172.902344 158.855469,176.136719 L158.855469,204.875 C158.855469,209.042969 162.234375,212.421875 166.398438,212.421875 C170.566406,212.421875 173.945312,209.042969 173.945312,204.875 L173.945312,176.136719 C184.445312,172.902344 192.101562,163.113281 192.101562,151.566406 L192.101562,120.5 C192.101562,116.332031 188.722656,112.953125 184.554688,112.953125 Z M166.402344,162.175781 C161.726562,162.175781 157.753906,159.132812 156.34375,154.925781 L176.457031,154.925781 C175.046875,159.132812 171.074219,162.175781 166.402344,162.175781 Z" id="Shape" fill="#000000"></path>
                <path d="M104.734375,113.65625 C104.722656,113.65625 104.707031,113.65625 104.695312,113.65625 C97.226562,113.65625 90.339844,118.53125 85.296875,127.390625 C81.335938,134.347656 78.960938,143.167969 78.941406,150.992188 C78.90625,165.207031 86.570312,177.269531 97.097656,181.238281 L97.097656,204.871094 C97.097656,209.039062 100.476562,212.417969 104.644531,212.417969 C108.8125,212.417969 112.191406,209.039062 112.191406,204.871094 L112.191406,181.222656 C116.46875,179.621094 120.375,176.679688 123.449219,172.632812 C127.875,166.804688 130.324219,159.164062 130.34375,151.117188 C130.382812,135.5 120.660156,113.695312 104.734375,113.65625 Z M111.429688,163.507812 C103.96875,173.328125 94.003906,163.621094 94.035156,151.03125 C94.058594,140.539062 100.589844,128.746094 104.695312,128.746094 L104.699219,128.746094 C110.21875,128.757812 120.984375,150.929688 111.429688,163.507812 Z" id="Shape" fill="#000000"></path>
                <path d="M140.550781,255.804688 L54.027344,255.804688 C49.863281,255.804688 46.484375,259.183594 46.484375,263.351562 C46.484375,267.519531 49.863281,270.894531 54.027344,270.894531 L140.550781,270.894531 C144.71875,270.894531 148.097656,267.519531 148.097656,263.351562 C148.097656,259.183594 144.71875,255.804688 140.550781,255.804688 Z" id="Shape" fill="#000000"></path>
                <path d="M140.550781,277.9375 L134.515625,277.9375 C130.347656,277.9375 126.96875,281.316406 126.96875,285.484375 C126.96875,289.652344 130.347656,293.03125 134.515625,293.03125 L140.550781,293.03125 C144.71875,293.03125 148.097656,289.652344 148.097656,285.484375 C148.097656,281.316406 144.71875,277.9375 140.550781,277.9375 Z" id="Shape" fill="#000000"></path>
                <path d="M54.027344,293.03125 L104.332031,293.03125 C108.5,293.03125 111.878906,289.652344 111.878906,285.484375 C111.878906,281.316406 108.5,277.9375 104.332031,277.9375 L54.027344,277.9375 C49.863281,277.9375 46.484375,281.316406 46.484375,285.484375 C46.484375,289.652344 49.863281,293.03125 54.027344,293.03125 Z" id="Shape" fill="#000000"></path>
                <path d="M170.425781,301.730469 L213.660156,301.730469 C219.671875,301.730469 224.5625,296.84375 224.5625,290.832031 L224.5625,258 C224.5625,251.992188 219.671875,247.101562 213.660156,247.101562 L170.425781,247.101562 C164.414062,247.101562 159.527344,251.992188 159.527344,258 L159.527344,290.832031 C159.527344,296.84375 164.414062,301.730469 170.425781,301.730469 Z M174.617188,262.195312 L209.46875,262.195312 L209.46875,286.640625 L174.617188,286.640625 L174.617188,262.195312 Z" id="Shape" fill="#000000"></path>
                <path d="M54.027344,344.011719 L140.550781,344.011719 C144.71875,344.011719 148.097656,340.636719 148.097656,336.46875 C148.097656,332.300781 144.71875,328.921875 140.550781,328.921875 L54.027344,328.921875 C49.863281,328.921875 46.484375,332.300781 46.484375,336.46875 C46.484375,340.636719 49.863281,344.011719 54.027344,344.011719 Z" id="Shape" fill="#000000"></path>
                <path d="M54.027344,366.148438 L140.550781,366.148438 C144.71875,366.148438 148.097656,362.769531 148.097656,358.601562 C148.097656,354.433594 144.71875,351.054688 140.550781,351.054688 L54.027344,351.054688 C49.863281,351.054688 46.484375,354.433594 46.484375,358.601562 C46.484375,362.769531 49.863281,366.148438 54.027344,366.148438 Z" id="Shape" fill="#000000"></path>
                <path d="M159.527344,363.949219 C159.527344,369.960938 164.414062,374.847656 170.425781,374.847656 L213.660156,374.847656 C219.671875,374.847656 224.5625,369.960938 224.5625,363.949219 L224.5625,331.121094 C224.5625,325.109375 219.671875,320.21875 213.660156,320.21875 L170.425781,320.21875 C164.414062,320.21875 159.527344,325.109375 159.527344,331.121094 L159.527344,363.949219 Z M174.617188,335.3125 L209.46875,335.3125 L209.46875,359.757812 L174.617188,359.757812 L174.617188,335.3125 Z" id="Shape" fill="#000000"></path>
                <path d="M54.027344,417.132812 L140.550781,417.132812 C144.71875,417.132812 148.097656,413.753906 148.097656,409.585938 C148.097656,405.417969 144.71875,402.039062 140.550781,402.039062 L54.027344,402.039062 C49.863281,402.039062 46.484375,405.417969 46.484375,409.585938 C46.484375,413.753906 49.863281,417.132812 54.027344,417.132812 Z" id="Shape" fill="#000000"></path>
                <path d="M54.027344,439.265625 L140.550781,439.265625 C144.71875,439.265625 148.097656,435.886719 148.097656,431.71875 C148.097656,427.550781 144.71875,424.171875 140.550781,424.171875 L54.027344,424.171875 C49.863281,424.171875 46.484375,427.550781 46.484375,431.71875 C46.484375,435.886719 49.863281,439.265625 54.027344,439.265625 Z" id="Shape" fill="#000000"></path>
                <path d="M159.527344,437.070312 C159.527344,443.078125 164.414062,447.96875 170.425781,447.96875 L213.660156,447.96875 C219.671875,447.96875 224.5625,443.078125 224.5625,437.070312 L224.5625,404.238281 C224.5625,398.226562 219.671875,393.339844 213.660156,393.339844 L170.425781,393.339844 C164.414062,393.339844 159.527344,398.226562 159.527344,404.238281 L159.527344,437.070312 Z M174.617188,408.429688 L209.46875,408.429688 L209.46875,432.875 L174.617188,432.875 L174.617188,408.429688 Z" id="Shape" fill="#000000"></path>
            </g>
        </g>
    </g>
</svg>