<?xml version="1.0" encoding="UTF-8"?>
<svg width="48px" height="48px" viewBox="0 0 48 48" version="1.1" xmlns="http://www.w3.org/2000/svg" xmlns:xlink="http://www.w3.org/1999/xlink">
    <!-- Generator: Sketch 51.2 (57519) - http://www.bohemiancoding.com/sketch -->
    <title>translate</title>
    <desc>Created with Sketch.</desc>
    <defs></defs>
    <g id="Page-1" stroke="none" stroke-width="1" fill="none" fill-rule="evenodd">
        <g id="Desktop" transform="translate(-420.000000, -689.000000)" fill-rule="nonzero">
            <g id="Group-5" transform="translate(402.000000, 653.000000)">
                <g id="translate" transform="translate(18.000000, 36.000000)">
                    <polygon id="Shape" fill="#32CCBC" points="0.704589844 0.704589844 27.0058594 0.704589844 27.0058594 27.0058594 0.704589844 27.0058594"></polygon>
                    <polygon id="Shape" fill="#FFC843" points="27.0058594 20.9941406 27.0058594 27.0058594 20.9941406 27.0058594 20.9941406 47.2954102 47.2954102 47.2954102 47.2954102 20.9941406"></polygon>
                    <path d="M19.2736817,10.78125 L21.369873,10.78125 L21.369873,7.96325681 L15.5460205,7.96325681 L15.5460205,4.8775635 L12.3522949,4.8775635 L12.3522949,7.96325681 L6.34057613,7.96325681 L6.34057613,10.78125 L16.4498291,10.78125 C16.2619629,13.038208 15.328125,15.1094971 13.8552246,16.7131348 C13.0224609,15.8067627 12.3614502,14.7509766 11.9106445,13.5963135 L9.29113772,14.6257324 C9.69030759,15.6430664 10.223877,16.6124268 10.8830567,17.5151367 C11.1335449,17.857544 11.4005127,18.1834717 11.6795654,18.4958496 C11.0064698,18.9038086 10.2769776,19.237793 9.49987791,19.4846192 L7.41687009,20.1467286 L8.27014163,22.8325195 L10.3535156,22.1704102 C11.6184082,21.7686768 12.7939453,21.1827393 13.8552246,20.4360352 C14.9165039,21.1827393 16.0920411,21.7686768 17.3569336,22.1707763 L19.4403076,22.8328857 L20.2932129,20.1463623 L18.2098388,19.4849854 C17.4327393,19.2381592 16.7039795,18.9038086 16.0308838,18.4958496 C16.3099365,18.1831055 16.5765381,17.8571777 16.8270263,17.5151367 C18.2797852,15.5291748 19.1162109,13.2161865 19.2736817,10.78125 Z" id="Shape" fill="#E4EDFB"></path>
                    <path d="M28.7907714,32.8297119 L28.7907714,42.8807373 L31.9844971,42.8807373 L31.9844971,39.9686279 L36.3054199,39.9686279 L36.3054199,42.8807373 L39.4991455,42.8807373 L39.4991455,32.8297119 C39.4991455,29.8725586 37.1019287,27.475708 34.1447754,27.475708 C31.1876221,27.475708 28.7907714,29.8725586 28.7907714,32.8297119 Z M31.9844971,36.5870362 L31.9844971,32.8297119 C31.9844971,31.6365967 32.9516602,30.6694336 34.1447754,30.6694336 C35.3378906,30.6694336 36.3054199,31.6365967 36.3054199,32.8297119 L36.3054199,36.5870362 L31.9844971,36.5870362 Z" id="Shape" fill="#E4EDFB"></path>
                    <polygon id="Shape" fill="#FFA816" points="28.8845214 28.8845214 28.8845214 20.9941406 27.0058594 20.9941406 27.0058594 27.0058594 20.9941406 27.0058594 20.9941406 28.8845214"></polygon>
                    <path d="M27.7104492,0 L0,0 L0,27.7104492 L27.7104492,27.7104492 L27.7104492,0 Z M26.3012695,26.3012695 L1.40917969,26.3012695 L1.40917969,1.40917969 L26.3012695,1.40917969 L26.3012695,26.3012695 Z" id="Shape" fill="#323C5A"></path>
                    <polygon id="Shape" fill="#323C5A" points="29.3543701 20.2895508 29.3543701 21.6987305 46.5908203 21.6987305 46.5908203 46.5908203 21.6987305 46.5908203 21.6987305 29.3543701 20.2895508 29.3543701 20.2895508 48 48 48 48 20.2895508"></polygon>
                    <path d="M13.8544922,15.6196289 C13.3190918,14.9249268 12.8876953,14.161377 12.5668945,13.3399658 L12.3101807,12.682251 L8.37780759,14.2276612 L8.63525391,14.8835449 C9.05676272,15.9572754 9.62145994,16.9826661 10.3146973,17.9315185 C10.4022217,18.0509033 10.4934082,18.1710205 10.5878906,18.2907714 C10.1689453,18.496582 9.73352053,18.6712646 9.28674319,18.8133545 L6.53210447,19.6885987 L7.81201172,23.7172852 L10.5670166,22.8420411 C11.7333984,22.4714355 12.8375244,21.9488526 13.8552246,21.2867432 C14.8732911,21.9488526 15.977417,22.4710693 17.1434326,22.8420411 L19.8988037,23.7176513 L21.1779786,19.6882324 L18.4233398,18.8137207 C17.9772949,18.6719971 17.5422364,18.4969482 17.1225586,18.2907714 C17.2170411,18.1710205 17.3082276,18.0509033 17.3953857,17.9311523 C18.7869873,16.0290527 19.6523438,13.8127442 19.9178467,11.4858398 L22.0744629,11.4858398 L22.0744629,7.25903325 L16.2506104,7.25903325 L16.2506104,4.17297366 L11.6477051,4.17297366 L11.6477051,7.25866697 L5.63598637,7.25866697 L5.63598637,11.4858398 L15.6518555,11.4858398 C15.3995362,12.9880371 14.7788086,14.4151612 13.8544922,15.6196289 Z M7.04516606,10.0766602 L7.04516606,8.66784666 L13.0568848,8.66784666 L13.0568848,5.58215334 L14.8414307,5.58215334 L14.8414307,8.66784666 L20.6652833,8.66784666 L20.6652833,10.0766602 L18.6134033,10.0766602 L18.5705567,10.7358398 C18.421875,13.0345459 17.6224365,15.2347412 16.2583008,17.0991211 C16.0334473,17.4067383 15.7800293,17.7191162 15.5053711,18.0267334 L14.9414062,18.6591797 L15.6657714,19.0982666 C16.3967286,19.5413818 17.1807862,19.8973388 17.9967041,20.1566162 L19.4084473,20.6048584 L18.9821777,21.9481201 L17.5704346,21.4995117 C16.3842773,21.1223145 15.2709961,20.5708008 14.2606201,19.8599854 L13.8552246,19.574707 L13.4498291,19.8599854 C12.4398193,20.5708008 11.3261719,21.1223145 10.1400146,21.4991455 L8.72827144,21.9477539 L8.30163572,20.6048584 L9.71374509,20.15625 C10.5311279,19.8962402 11.3151855,19.5406494 12.0446777,19.0986328 L12.7694092,18.6591797 L12.2050781,18.0270996 C11.9307862,17.7194824 11.677002,17.4074707 11.4521484,17.0998536 C10.9716797,16.4421386 10.5600586,15.7437744 10.2235107,15.0164795 L11.5327148,14.5019531 C11.9926758,15.4833984 12.5972901,16.3850098 13.3363037,17.1895752 L13.8548584,17.7546386 L14.3737793,17.1895752 C15.9689942,15.4530029 16.9555664,13.197876 17.1518555,10.8394776 L17.2152099,10.0766602 L7.04516606,10.0766602 Z" id="Shape" fill="#323C5A"></path>
                    <path d="M37.0096435,32.8297119 C37.0096435,31.2502442 35.7246094,29.9648438 34.1447754,29.9648438 C32.5649414,29.9648438 31.2799073,31.2502442 31.2799073,32.8297119 L31.2799073,37.291626 L37.0096435,37.291626 L37.0096435,32.8297119 Z M35.6008301,35.8824463 L32.6887208,35.8824463 L32.6887208,32.8297119 C32.6887208,32.0269776 33.3420411,31.3736573 34.1447754,31.3736573 C34.9475098,31.3736573 35.6008301,32.0269776 35.6008301,32.8297119 L35.6008301,35.8824463 Z" id="Shape" fill="#000000"></path>
                    <path d="M32.6887208,40.6732177 L35.6008301,40.6732177 L35.6008301,43.5849609 L40.2033692,43.5849609 L40.2033692,32.8297119 C40.2033692,29.4891357 37.4857177,26.7711182 34.1447754,26.7711182 C30.8041992,26.7711182 28.0861817,29.4891357 28.0861817,32.8297119 L28.0861817,43.5849609 L32.6887208,43.5849609 L32.6887208,40.6732177 Z M31.2799073,42.1761474 L29.4949951,42.1761474 L29.4949951,32.8297119 C29.4949951,30.2658692 31.5809326,28.1799317 34.1447754,28.1799317 C36.7086182,28.1799317 38.7945557,30.2658692 38.7945557,32.8297119 L38.7945557,42.1761474 L37.0096435,42.1761474 L37.0096435,39.2640381 L31.2799073,39.2640381 L31.2799073,42.1761474 Z" id="Shape" fill="#323C5A"></path>
                    <polygon id="Shape" fill="#323C5A" points="30.5753174 3.66357422 31.9844971 3.66357422 31.9844971 5.07238772 30.5753174 5.07238772"></polygon>
                    <path d="M40.2033692,8.12512209 L40.2033692,15.5357666 L37.6486817,12.9810791 L36.6525879,13.9775391 L40.9079589,18.2329102 L45.1633301,13.9775391 L44.1672364,12.9810791 L41.6125489,15.5357666 L41.6125489,8.12512209 C41.6125489,5.66491697 39.6108398,3.66357422 37.1506348,3.66357422 L33.3933105,3.66357422 L33.3933105,5.07238772 L37.1506348,5.07238772 C38.8341065,5.07238772 40.2033692,6.44201662 40.2033692,8.12512209 Z" id="Shape" fill="#323C5A"></path>
                    <polygon id="Shape" fill="#323C5A" points="16.0155029 42.9276123 17.4246826 42.9276123 17.4246826 44.3364258 16.0155029 44.3364258"></polygon>
                    <path d="M7.79663081,39.8748779 L7.79663081,32.4642334 L10.3513183,35.0189209 L11.3474121,34.0224609 L7.09204106,29.7670898 L2.83666988,34.0224609 L3.83276363,35.0189209 L6.38745113,32.4642334 L6.38745113,39.8748779 C6.38745113,42.335083 8.38916016,44.3364258 10.8493652,44.3364258 L14.6066895,44.3364258 L14.6066895,42.9276123 L10.8493652,42.9276123 C9.16589353,42.9276123 7.79663081,41.5579834 7.79663081,39.8748779 Z" id="Shape" fill="#323C5A"></path>
                    <g id="Group" transform="translate(18.093750, 2.906250)" fill="#FFFFFF">
                        <path d="M6.65771484,1.41467287 L2.90039062,1.41467287 L2.90039062,0.005859375 L6.65771484,0.005859375 L6.65771484,1.41467287 Z M1.49121094,1.41467287 L0.0823974375,1.41467287 L0.0823974375,0.005859375 L1.49121094,0.005859375 L1.49121094,1.41467287 Z" id="Shape"></path>
                        <polygon id="Shape" points="27.0882568 24.663208 25.6790771 24.663208 25.6790771 21.6104737 22.6263427 21.6104737 22.6263427 20.201294 27.0882568 20.201294"></polygon>
                    </g>
                </g>
            </g>
        </g>
    </g>
</svg>